{"glyphs":{"0":{"ha":833,"x_min":83,"x_max":750,"o":"m 417 -11 q 169 117 256 -11 q 83 489 83 244 q 169 863 83 736 q 417 990 256 990 q 665 863 579 990 q 750 490 750 736 q 664 117 750 244 q 417 -11 578 -11 m 417 46 q 620 155 553 46 q 688 490 688 264 q 620 826 688 718 q 417 933 553 933 q 214 824 282 933 q 146 490 146 715 q 214 155 146 264 q 417 46 282 46 z "},"1":{"ha":833,"x_min":197,"x_max":711,"o":"m 197 0 l 197 54 l 432 54 l 432 926 l 469 926 l 218 763 l 218 828 l 447 979 l 490 979 l 490 54 l 711 54 l 711 0 l 197 0 z "},"2":{"ha":833,"x_min":99,"x_max":751,"o":"m 131 0 l 131 44 l 497 429 q 609 579 571 506 q 647 733 647 653 q 588 883 647 832 q 414 933 528 933 q 258 903 328 933 q 126 810 188 872 l 99 860 q 235 954 151 918 q 414 990 319 990 q 631 924 554 990 q 708 735 708 857 q 661 556 708 642 q 531 383 614 469 l 192 35 l 192 54 l 751 54 l 751 0 l 131 0 z "},"3":{"ha":833,"x_min":85,"x_max":736,"o":"m 421 -11 q 236 20 324 -11 q 85 111 149 51 l 114 161 q 260 73 186 100 q 421 46 333 46 q 610 101 544 46 q 675 261 675 157 q 607 417 675 364 q 407 471 539 471 l 269 471 l 269 525 l 404 525 q 582 585 515 525 q 649 746 649 644 q 588 885 649 836 q 418 933 528 933 q 131 810 250 933 l 103 860 q 241 956 157 921 q 418 990 325 990 q 632 926 554 990 q 710 746 710 861 q 657 587 710 653 q 514 497 604 521 l 514 511 q 678 427 621 493 q 736 261 736 361 q 652 62 736 135 q 421 -11 568 -11 z "},"4":{"ha":833,"x_min":81,"x_max":792,"o":"m 574 0 l 574 231 l 81 231 l 81 276 l 583 979 l 632 979 l 632 285 l 792 285 l 792 231 l 632 231 l 632 0 l 574 0 m 574 285 l 574 910 l 601 910 l 142 268 l 142 285 l 574 285 z "},"5":{"ha":833,"x_min":115,"x_max":764,"o":"m 446 -11 q 322 3 382 -11 q 210 44 263 17 q 115 111 157 72 l 144 161 q 288 74 215 101 q 446 46 361 46 q 634 113 565 46 q 703 290 703 181 q 638 475 703 403 q 456 547 572 547 q 310 514 374 547 q 203 408 247 481 l 150 408 l 150 979 l 706 979 l 706 925 l 210 925 l 210 467 l 190 467 q 300 568 229 532 q 460 604 371 604 q 622 565 554 604 q 727 458 690 526 q 764 296 764 389 q 725 136 764 206 q 615 28 686 67 q 446 -11 544 -11 z "},"6":{"ha":833,"x_min":89,"x_max":756,"o":"m 446 -11 q 181 113 274 -11 q 89 460 89 238 q 135 750 89 632 q 267 929 181 868 q 475 990 354 990 q 628 956 550 990 q 751 865 706 922 l 724 815 q 606 904 671 875 q 474 933 542 933 q 233 817 318 933 q 149 472 149 701 l 149 319 l 140 319 q 188 470 147 407 q 296 568 229 533 q 446 603 363 603 q 607 564 538 603 q 716 456 676 525 q 756 297 756 388 q 716 138 756 208 q 606 28 676 68 q 446 -11 536 -11 m 440 46 q 573 78 515 46 q 663 166 631 110 q 694 296 694 222 q 663 426 694 369 q 573 514 631 482 q 440 546 515 546 q 308 514 365 546 q 218 426 250 482 q 186 296 186 369 q 218 166 186 222 q 308 78 250 110 q 440 46 365 46 z "},"7":{"ha":833,"x_min":106,"x_max":728,"o":"m 189 0 l 679 964 l 679 925 l 106 925 l 106 979 l 728 979 l 728 936 l 254 0 l 189 0 z "},"8":{"ha":833,"x_min":76,"x_max":757,"o":"m 417 -11 q 165 59 253 -11 q 76 256 76 129 q 140 424 76 357 q 307 504 203 490 l 307 492 q 156 577 211 511 q 100 732 100 643 q 185 922 100 854 q 417 990 269 990 q 650 922 565 990 q 735 732 735 854 q 683 577 735 643 q 535 492 631 511 l 535 504 q 698 424 639 490 q 757 256 757 357 q 669 59 757 129 q 417 -11 582 -11 m 417 44 q 627 97 558 44 q 696 257 696 150 q 627 416 696 364 q 417 468 558 468 q 206 416 275 468 q 138 257 138 364 q 207 97 138 150 q 417 44 276 44 m 417 524 q 606 578 540 524 q 672 731 672 633 q 606 881 672 828 q 417 935 540 935 q 227 881 293 935 q 161 731 161 828 q 227 578 161 633 q 417 524 293 524 z "},"9":{"ha":833,"x_min":78,"x_max":746,"o":"m 360 -11 q 207 24 285 -11 q 82 114 129 58 l 111 164 q 228 75 164 104 q 361 46 293 46 q 600 162 515 46 q 685 507 685 278 l 685 660 l 694 660 q 646 510 688 574 q 538 411 604 446 q 389 376 472 376 q 227 415 297 376 q 117 524 157 454 q 78 682 78 593 q 117 842 78 772 q 227 951 157 911 q 388 990 297 990 q 653 867 561 990 q 746 519 746 743 q 699 230 746 349 q 567 50 653 111 q 360 -11 481 -11 m 394 433 q 527 465 469 433 q 617 553 585 497 q 649 683 649 610 q 617 813 649 757 q 527 901 585 869 q 394 933 469 933 q 262 901 319 933 q 172 813 204 869 q 140 683 140 757 q 172 553 140 610 q 262 465 204 497 q 394 433 319 433 z "},"A":{"ha":1001,"x_min":47,"x_max":954,"o":"m 47 0 l 468 979 l 525 979 l 954 0 l 890 0 l 767 283 l 799 271 l 192 271 l 231 283 l 110 0 l 47 0 m 494 901 l 246 317 l 215 325 l 775 325 l 753 317 l 497 901 l 494 901 z "},"Á":{"ha":1001,"x_min":47,"x_max":954,"o":"m 47 0 l 468 979 l 525 979 l 954 0 l 890 0 l 767 283 l 799 271 l 192 271 l 231 283 l 110 0 l 47 0 m 494 901 l 246 317 l 215 325 l 775 325 l 753 317 l 497 901 l 494 901 m 471 1063 l 635 1299 l 713 1299 l 524 1063 l 471 1063 z "},"Ă":{"ha":1001,"x_min":47,"x_max":954,"o":"m 47 0 l 468 979 l 525 979 l 954 0 l 890 0 l 767 283 l 799 271 l 192 271 l 231 283 l 110 0 l 47 0 m 494 901 l 246 317 l 215 325 l 775 325 l 753 317 l 497 901 l 494 901 m 497 1056 q 349 1117 408 1056 q 279 1288 289 1179 l 325 1293 q 378 1155 332 1204 q 497 1106 424 1106 q 617 1155 571 1106 q 669 1293 664 1204 l 715 1288 q 646 1117 706 1179 q 497 1056 586 1056 z "},"Ắ":{"ha":1001,"x_min":47,"x_max":954,"o":"m 47 0 l 468 979 l 525 979 l 954 0 l 890 0 l 767 283 l 799 271 l 192 271 l 231 283 l 110 0 l 47 0 m 494 901 l 246 317 l 215 325 l 775 325 l 753 317 l 497 901 l 494 901 m 497 1056 q 358 1110 411 1056 q 297 1260 304 1164 l 343 1265 q 389 1147 349 1189 q 497 1106 429 1106 q 606 1147 567 1106 q 651 1265 646 1189 l 697 1260 q 637 1110 690 1164 q 497 1056 583 1056 m 464 1199 l 600 1407 l 675 1407 l 514 1199 l 464 1199 z "},"Ặ":{"ha":1001,"x_min":47,"x_max":954,"o":"m 47 0 l 468 979 l 525 979 l 954 0 l 890 0 l 767 283 l 799 271 l 192 271 l 231 283 l 110 0 l 47 0 m 494 901 l 246 317 l 215 325 l 775 325 l 753 317 l 497 901 l 494 901 m 453 -239 l 453 -151 l 542 -151 l 542 -239 l 453 -239 m 497 1056 q 349 1117 408 1056 q 279 1288 289 1179 l 325 1293 q 378 1155 332 1204 q 497 1106 424 1106 q 617 1155 571 1106 q 669 1293 664 1204 l 715 1288 q 646 1117 706 1179 q 497 1056 586 1056 z "},"Ằ":{"ha":1001,"x_min":47,"x_max":954,"o":"m 47 0 l 468 979 l 525 979 l 954 0 l 890 0 l 767 283 l 799 271 l 192 271 l 231 283 l 110 0 l 47 0 m 494 901 l 246 317 l 215 325 l 775 325 l 753 317 l 497 901 l 494 901 m 497 1056 q 358 1110 411 1056 q 297 1260 304 1164 l 343 1265 q 389 1147 349 1189 q 497 1106 429 1106 q 606 1147 567 1106 q 651 1265 646 1189 l 697 1260 q 637 1110 690 1164 q 497 1056 583 1056 m 481 1199 l 319 1407 l 394 1407 l 531 1199 l 481 1199 z "},"Ẳ":{"ha":1001,"x_min":47,"x_max":954,"o":"m 47 0 l 468 979 l 525 979 l 954 0 l 890 0 l 767 283 l 799 271 l 192 271 l 231 283 l 110 0 l 47 0 m 494 901 l 246 317 l 215 325 l 775 325 l 753 317 l 497 901 l 494 901 m 497 1056 q 358 1110 411 1056 q 297 1260 304 1164 l 343 1265 q 389 1147 349 1189 q 497 1106 429 1106 q 606 1147 567 1106 q 651 1265 646 1189 l 697 1260 q 637 1110 690 1165 q 497 1056 583 1056 m 474 1199 q 488 1251 474 1232 q 520 1283 501 1271 q 553 1306 539 1294 q 567 1336 567 1318 q 549 1360 567 1354 q 494 1367 532 1367 q 455 1363 476 1367 q 407 1350 433 1360 l 394 1390 q 444 1407 417 1401 q 500 1413 471 1413 q 590 1393 558 1413 q 621 1340 621 1374 q 606 1295 621 1311 q 571 1267 590 1279 q 536 1240 551 1256 q 521 1199 521 1225 l 474 1199 z "},"Ẵ":{"ha":1001,"x_min":47,"x_max":954,"o":"m 47 0 l 468 979 l 525 979 l 954 0 l 890 0 l 767 283 l 799 271 l 192 271 l 231 283 l 110 0 l 47 0 m 494 901 l 246 317 l 215 325 l 775 325 l 753 317 l 497 901 l 494 901 m 497 1056 q 368 1095 421 1056 q 297 1204 315 1135 l 343 1210 q 399 1133 358 1160 q 497 1106 439 1106 q 596 1133 556 1106 q 651 1210 636 1160 l 697 1204 q 626 1096 679 1136 q 497 1056 574 1056 m 340 1275 l 294 1278 q 332 1378 301 1344 q 410 1411 363 1411 q 458 1400 436 1411 q 510 1365 481 1389 q 556 1335 540 1342 q 585 1328 571 1328 q 632 1348 617 1328 q 654 1414 647 1368 l 700 1411 q 665 1311 694 1344 q 586 1278 635 1278 q 537 1290 560 1278 q 478 1329 514 1301 q 447 1351 464 1340 q 410 1361 429 1361 q 363 1341 379 1361 q 340 1275 347 1321 z "},"Ǎ":{"ha":1001,"x_min":47,"x_max":954,"o":"m 47 0 l 468 979 l 525 979 l 954 0 l 890 0 l 767 283 l 799 271 l 192 271 l 231 283 l 110 0 l 47 0 m 494 901 l 246 317 l 215 325 l 775 325 l 753 317 l 497 901 l 494 901 m 464 1063 l 296 1299 l 347 1299 l 497 1115 l 647 1299 l 699 1299 l 531 1063 l 464 1063 z "},"Â":{"ha":1001,"x_min":47,"x_max":954,"o":"m 47 0 l 468 979 l 525 979 l 954 0 l 890 0 l 767 283 l 799 271 l 192 271 l 231 283 l 110 0 l 47 0 m 494 901 l 246 317 l 215 325 l 775 325 l 753 317 l 497 901 l 494 901 m 296 1063 l 464 1299 l 531 1299 l 699 1063 l 647 1063 l 497 1246 l 347 1063 l 296 1063 z "},"Ấ":{"ha":1001,"x_min":47,"x_max":954,"o":"m 47 0 l 468 979 l 525 979 l 954 0 l 890 0 l 767 283 l 799 271 l 192 271 l 231 283 l 110 0 l 47 0 m 494 901 l 246 317 l 215 325 l 775 325 l 753 317 l 497 901 l 494 901 m 313 1063 l 464 1285 l 531 1285 l 682 1063 l 635 1063 l 497 1233 l 360 1063 l 313 1063 m 610 1203 l 732 1411 l 807 1411 l 660 1203 l 610 1203 z "},"Ậ":{"ha":1001,"x_min":47,"x_max":954,"o":"m 47 0 l 468 979 l 525 979 l 954 0 l 890 0 l 767 283 l 799 271 l 192 271 l 231 283 l 110 0 l 47 0 m 494 901 l 246 317 l 215 325 l 775 325 l 753 317 l 497 901 l 494 901 m 453 -239 l 453 -151 l 542 -151 l 542 -239 l 453 -239 m 296 1063 l 464 1299 l 531 1299 l 699 1063 l 647 1063 l 497 1246 l 347 1063 l 296 1063 z "},"Ầ":{"ha":1001,"x_min":47,"x_max":954,"o":"m 47 0 l 468 979 l 525 979 l 954 0 l 890 0 l 767 283 l 799 271 l 192 271 l 231 283 l 110 0 l 47 0 m 494 901 l 246 317 l 215 325 l 775 325 l 753 317 l 497 901 l 494 901 m 313 1063 l 464 1285 l 531 1285 l 682 1063 l 635 1063 l 497 1233 l 360 1063 l 313 1063 m 667 1203 l 519 1411 l 594 1411 l 717 1203 l 667 1203 z "},"Ẩ":{"ha":1001,"x_min":47,"x_max":954,"o":"m 47 0 l 468 979 l 525 979 l 954 0 l 890 0 l 767 283 l 799 271 l 192 271 l 231 283 l 110 0 l 47 0 m 494 901 l 246 317 l 215 325 l 775 325 l 753 317 l 497 901 l 494 901 m 313 1063 l 464 1285 l 531 1285 l 682 1063 l 635 1063 l 497 1233 l 360 1063 l 313 1063 m 626 1203 q 640 1256 626 1236 q 673 1287 654 1275 q 706 1310 692 1299 q 719 1340 719 1322 q 702 1365 719 1358 q 647 1371 685 1371 q 608 1367 629 1371 q 560 1354 586 1364 l 547 1394 q 597 1411 569 1406 q 653 1417 624 1417 q 742 1397 711 1417 q 774 1344 774 1378 q 758 1299 774 1315 q 724 1272 743 1283 q 689 1244 704 1260 q 674 1203 674 1229 l 626 1203 z "},"Ẫ":{"ha":1001,"x_min":47,"x_max":954,"o":"m 47 0 l 468 979 l 525 979 l 954 0 l 890 0 l 767 283 l 799 271 l 192 271 l 231 283 l 110 0 l 47 0 m 494 901 l 246 317 l 215 325 l 775 325 l 753 317 l 497 901 l 494 901 m 313 1063 l 464 1243 l 531 1243 l 682 1063 l 635 1063 l 497 1196 l 360 1063 l 313 1063 m 340 1275 l 294 1278 q 332 1378 301 1344 q 410 1411 363 1411 q 458 1400 436 1411 q 510 1365 481 1389 q 556 1335 540 1342 q 585 1328 571 1328 q 632 1348 617 1328 q 654 1414 647 1368 l 700 1411 q 665 1311 694 1344 q 586 1278 635 1278 q 537 1290 560 1278 q 478 1329 514 1301 q 447 1351 464 1340 q 410 1361 429 1361 q 363 1341 379 1361 q 340 1275 347 1321 z "},"Ȁ":{"ha":1001,"x_min":47,"x_max":954,"o":"m 47 0 l 468 979 l 525 979 l 954 0 l 890 0 l 767 283 l 799 271 l 192 271 l 231 283 l 110 0 l 47 0 m 494 901 l 246 317 l 215 325 l 775 325 l 753 317 l 497 901 l 494 901 m 554 1063 l 400 1299 l 472 1299 l 592 1063 l 554 1063 m 403 1063 l 250 1299 l 322 1299 l 440 1063 l 403 1063 z "},"Ä":{"ha":1001,"x_min":47,"x_max":954,"o":"m 47 0 l 468 979 l 525 979 l 954 0 l 890 0 l 767 283 l 799 271 l 192 271 l 231 283 l 110 0 l 47 0 m 494 901 l 246 317 l 215 325 l 775 325 l 753 317 l 497 901 l 494 901 m 567 1139 l 567 1222 l 651 1222 l 651 1139 l 567 1139 m 343 1139 l 343 1222 l 428 1222 l 428 1139 l 343 1139 z "},"Ȧ":{"ha":1001,"x_min":47,"x_max":954,"o":"m 47 0 l 468 979 l 525 979 l 954 0 l 890 0 l 767 283 l 799 271 l 192 271 l 231 283 l 110 0 l 47 0 m 494 901 l 246 317 l 215 325 l 775 325 l 753 317 l 497 901 l 494 901 m 454 1136 l 454 1224 l 540 1224 l 540 1136 l 454 1136 z "},"Ạ":{"ha":1001,"x_min":47,"x_max":954,"o":"m 47 0 l 468 979 l 525 979 l 954 0 l 890 0 l 767 283 l 799 271 l 192 271 l 231 283 l 110 0 l 47 0 m 494 901 l 246 317 l 215 325 l 775 325 l 753 317 l 497 901 l 494 901 m 453 -239 l 453 -151 l 542 -151 l 542 -239 l 453 -239 z "},"À":{"ha":1001,"x_min":47,"x_max":954,"o":"m 47 0 l 468 979 l 525 979 l 954 0 l 890 0 l 767 283 l 799 271 l 192 271 l 231 283 l 110 0 l 47 0 m 494 901 l 246 317 l 215 325 l 775 325 l 753 317 l 497 901 l 494 901 m 471 1063 l 282 1299 l 360 1299 l 524 1063 l 471 1063 z "},"Ả":{"ha":1001,"x_min":47,"x_max":954,"o":"m 47 0 l 468 979 l 525 979 l 954 0 l 890 0 l 767 283 l 799 271 l 192 271 l 231 283 l 110 0 l 47 0 m 494 901 l 246 317 l 215 325 l 775 325 l 753 317 l 497 901 l 494 901 m 471 1063 l 471 1082 q 485 1131 471 1113 q 519 1163 500 1150 q 552 1189 538 1176 q 567 1219 567 1201 q 549 1246 567 1236 q 494 1256 532 1256 q 452 1251 474 1256 q 404 1233 431 1246 l 392 1279 q 500 1306 438 1306 q 591 1283 558 1306 q 624 1222 624 1260 q 608 1176 624 1193 q 574 1147 593 1158 q 539 1119 554 1135 q 524 1076 524 1104 l 524 1063 l 471 1063 z "},"Ȃ":{"ha":1001,"x_min":47,"x_max":954,"o":"m 47 0 l 468 979 l 525 979 l 954 0 l 890 0 l 767 283 l 799 271 l 192 271 l 231 283 l 110 0 l 47 0 m 494 901 l 246 317 l 215 325 l 775 325 l 753 317 l 497 901 l 494 901 m 325 1056 l 279 1061 q 349 1231 289 1169 q 497 1293 408 1293 q 646 1231 586 1293 q 715 1061 706 1169 l 669 1056 q 617 1194 664 1146 q 497 1243 571 1243 q 378 1194 424 1243 q 325 1056 332 1146 z "},"Ā":{"ha":1001,"x_min":47,"x_max":954,"o":"m 47 0 l 468 979 l 525 979 l 954 0 l 890 0 l 767 283 l 799 271 l 192 271 l 231 283 l 110 0 l 47 0 m 494 901 l 246 317 l 215 325 l 775 325 l 753 317 l 497 901 l 494 901 m 282 1142 l 282 1194 l 713 1194 l 713 1142 l 282 1142 z "},"Ą":{"ha":1001,"x_min":47,"x_max":1029,"o":"m 47 0 l 468 979 l 525 979 l 954 0 l 890 0 l 767 283 l 799 271 l 192 271 l 231 283 l 110 0 l 47 0 m 494 901 l 246 317 l 215 325 l 775 325 l 753 317 l 497 901 l 494 901 m 931 -264 q 837 -229 874 -264 q 800 -136 800 -194 q 833 -35 800 -83 q 925 43 865 13 l 954 0 q 910 -26 933 -8 q 871 -71 888 -44 q 854 -131 854 -97 q 878 -194 854 -174 q 938 -214 903 -214 q 974 -210 956 -214 q 1011 -196 992 -206 l 1029 -240 q 989 -257 1015 -250 q 931 -264 963 -264 z "},"Å":{"ha":1001,"x_min":47,"x_max":954,"o":"m 47 0 l 468 979 l 525 979 l 954 0 l 890 0 l 767 283 l 799 271 l 192 271 l 231 283 l 110 0 l 47 0 m 494 901 l 246 317 l 215 325 l 775 325 l 753 317 l 497 901 l 494 901 m 497 1056 q 419 1076 454 1056 q 363 1132 383 1097 q 342 1208 342 1167 q 363 1285 342 1251 q 419 1340 383 1319 q 497 1361 454 1361 q 576 1340 542 1361 q 632 1285 611 1319 q 653 1208 653 1251 q 632 1132 653 1167 q 576 1076 611 1097 q 497 1056 542 1056 m 497 1100 q 576 1131 546 1100 q 606 1208 606 1163 q 576 1285 606 1254 q 497 1317 546 1317 q 419 1285 450 1317 q 389 1208 389 1254 q 419 1131 389 1163 q 497 1100 450 1100 z "},"Ǻ":{"ha":1001,"x_min":47,"x_max":954,"o":"m 47 0 l 468 979 l 525 979 l 954 0 l 890 0 l 767 283 l 799 271 l 192 271 l 231 283 l 110 0 l 47 0 m 494 901 l 246 317 l 215 325 l 775 325 l 753 317 l 497 901 l 494 901 m 497 1056 q 419 1076 454 1056 q 363 1132 383 1097 q 342 1208 342 1167 q 363 1285 342 1251 q 419 1340 383 1319 q 497 1361 454 1361 q 549 1353 525 1361 q 592 1331 572 1346 l 697 1429 l 782 1429 l 625 1297 q 653 1208 653 1258 q 632 1132 653 1167 q 576 1076 611 1097 q 497 1056 542 1056 m 497 1100 q 576 1131 546 1100 q 606 1208 606 1163 q 576 1285 606 1254 q 497 1317 546 1317 q 419 1285 450 1317 q 389 1208 389 1254 q 419 1131 389 1163 q 497 1100 450 1100 z "},"Ã":{"ha":1001,"x_min":47,"x_max":954,"o":"m 47 0 l 468 979 l 525 979 l 954 0 l 890 0 l 767 283 l 799 271 l 192 271 l 231 283 l 110 0 l 47 0 m 494 901 l 246 317 l 215 325 l 775 325 l 753 317 l 497 901 l 494 901 m 269 1100 l 225 1103 q 274 1227 235 1183 q 374 1271 313 1271 q 438 1256 406 1271 q 515 1207 469 1240 q 582 1165 560 1176 q 625 1153 604 1153 q 691 1184 667 1153 q 725 1274 715 1215 l 769 1271 q 722 1147 760 1190 q 622 1103 683 1103 q 558 1118 592 1103 q 475 1169 525 1133 q 413 1210 436 1199 q 369 1221 389 1221 q 303 1190 328 1221 q 269 1100 279 1158 z "},"Æ":{"ha":1383,"x_min":19,"x_max":1304,"o":"m 19 0 l 607 979 l 1304 979 l 1304 925 l 722 925 l 750 958 l 793 508 l 769 524 l 1275 524 l 1275 469 l 783 469 l 794 483 l 839 28 l 829 54 l 1304 54 l 1304 0 l 782 0 l 756 275 l 789 271 l 236 271 l 263 288 l 89 0 l 19 0 m 640 924 l 276 311 l 264 325 l 763 325 l 753 313 l 694 924 l 640 924 z "},"Ǽ":{"ha":1383,"x_min":19,"x_max":1304,"o":"m 19 0 l 607 979 l 1304 979 l 1304 925 l 722 925 l 750 958 l 793 508 l 769 524 l 1275 524 l 1275 469 l 783 469 l 794 483 l 839 28 l 829 54 l 1304 54 l 1304 0 l 782 0 l 756 275 l 789 271 l 236 271 l 263 288 l 89 0 l 19 0 m 640 924 l 276 311 l 264 325 l 763 325 l 753 313 l 694 924 l 640 924 m 688 1063 l 851 1299 l 929 1299 l 740 1063 l 688 1063 z "},"B":{"ha":933,"x_min":135,"x_max":835,"o":"m 135 0 l 135 979 l 492 979 q 729 913 646 979 q 813 724 813 847 q 755 568 813 629 q 599 488 697 507 l 599 507 q 772 435 708 497 q 835 265 835 372 q 751 67 835 135 q 511 0 668 0 l 135 0 m 193 54 l 510 54 q 701 101 629 54 q 774 261 774 149 q 701 422 774 375 q 510 468 629 468 l 193 468 l 193 54 m 193 522 l 489 522 q 685 574 618 522 q 751 724 751 626 q 685 874 751 822 q 489 925 618 925 l 193 925 l 193 522 z "},"Ɓ":{"ha":1081,"x_min":-1,"x_max":982,"o":"m 282 0 l 282 925 l 228 925 q 97 885 139 925 q 54 763 54 846 l 54 703 l -1 703 l -1 765 q 58 926 -1 874 q 243 979 117 979 l 639 979 q 875 913 792 979 q 958 724 958 847 q 901 569 958 631 q 746 488 844 507 l 746 507 q 919 434 856 497 q 982 265 982 371 q 898 67 982 135 q 657 0 814 0 l 282 0 m 340 54 l 656 54 q 854 105 788 54 q 921 261 921 156 q 855 417 921 367 q 657 468 789 468 l 340 468 l 340 54 m 340 522 l 635 522 q 831 574 764 522 q 897 724 897 626 q 831 874 897 822 q 635 925 764 925 l 340 925 l 340 522 z "},"C":{"ha":950,"x_min":94,"x_max":867,"o":"m 535 -11 q 295 49 393 -11 q 146 222 197 110 q 94 490 94 335 q 146 758 94 646 q 295 930 197 869 q 535 990 393 990 q 723 956 642 990 q 867 857 804 922 l 836 808 q 698 903 768 874 q 533 933 628 933 q 253 817 349 933 q 157 490 157 701 q 253 163 157 279 q 533 46 349 46 q 698 76 628 46 q 836 171 768 106 l 867 122 q 722 23 804 57 q 535 -11 640 -11 z "},"Ć":{"ha":950,"x_min":94,"x_max":867,"o":"m 535 -11 q 295 49 393 -11 q 146 222 197 110 q 94 490 94 335 q 146 758 94 646 q 295 930 197 869 q 535 990 393 990 q 723 956 642 990 q 867 857 804 922 l 836 808 q 698 903 768 874 q 533 933 628 933 q 253 817 349 933 q 157 490 157 701 q 253 163 157 279 q 533 46 349 46 q 698 76 628 46 q 836 171 768 106 l 867 122 q 722 23 804 57 q 535 -11 640 -11 m 510 1063 l 674 1299 l 751 1299 l 563 1063 l 510 1063 z "},"Č":{"ha":950,"x_min":94,"x_max":867,"o":"m 535 -11 q 295 49 393 -11 q 146 222 197 110 q 94 490 94 335 q 146 758 94 646 q 295 930 197 869 q 535 990 393 990 q 723 956 642 990 q 867 857 804 922 l 836 808 q 698 903 768 874 q 533 933 628 933 q 253 817 349 933 q 157 490 157 701 q 253 163 157 279 q 533 46 349 46 q 698 76 628 46 q 836 171 768 106 l 867 122 q 722 23 804 57 q 535 -11 640 -11 m 503 1063 l 335 1299 l 386 1299 l 536 1115 l 686 1299 l 738 1299 l 569 1063 l 503 1063 z "},"Ç":{"ha":950,"x_min":94,"x_max":867,"o":"m 535 -11 q 295 49 393 -11 q 146 222 197 110 q 94 490 94 335 q 146 758 94 646 q 295 930 197 869 q 535 990 393 990 q 723 956 642 990 q 867 857 804 922 l 836 808 q 698 903 768 874 q 533 933 628 933 q 253 817 349 933 q 157 490 157 701 q 253 163 157 279 q 533 46 349 46 q 698 76 628 46 q 836 171 768 106 l 867 122 q 722 23 804 57 q 535 -11 640 -11 m 540 -264 q 480 -257 508 -264 q 432 -239 451 -250 l 444 -192 q 492 -209 471 -204 q 546 -214 513 -214 q 608 -199 583 -214 q 632 -154 632 -183 q 578 -110 632 -110 q 547 -112 563 -110 q 507 -124 531 -115 l 486 -106 l 507 28 l 560 28 l 542 -76 l 517 -74 q 549 -67 533 -69 q 579 -64 565 -64 q 656 -87 624 -64 q 688 -154 688 -111 q 647 -233 688 -203 q 540 -264 606 -264 z "},"Ḉ":{"ha":950,"x_min":94,"x_max":867,"o":"m 535 -11 q 295 49 393 -11 q 146 222 197 110 q 94 490 94 335 q 146 758 94 646 q 295 930 197 869 q 535 990 393 990 q 723 956 642 990 q 867 857 804 922 l 836 808 q 698 903 768 874 q 533 933 628 933 q 253 817 349 933 q 157 490 157 701 q 253 163 157 279 q 533 46 349 46 q 698 76 628 46 q 836 171 768 106 l 867 122 q 722 23 804 57 q 535 -11 640 -11 m 540 -264 q 480 -257 508 -264 q 432 -239 451 -250 l 444 -192 q 492 -209 471 -204 q 546 -214 513 -214 q 608 -199 583 -214 q 632 -154 632 -183 q 578 -110 632 -110 q 547 -112 563 -110 q 507 -124 531 -115 l 486 -106 l 507 28 l 560 28 l 542 -76 l 517 -74 q 549 -67 533 -69 q 579 -64 565 -64 q 656 -87 624 -64 q 688 -154 688 -111 q 647 -233 688 -203 q 540 -264 606 -264 m 510 1063 l 674 1299 l 751 1299 l 563 1063 l 510 1063 z "},"Ĉ":{"ha":950,"x_min":94,"x_max":867,"o":"m 535 -11 q 295 49 393 -11 q 146 222 197 110 q 94 490 94 335 q 146 758 94 646 q 295 930 197 869 q 535 990 393 990 q 723 956 642 990 q 867 857 804 922 l 836 808 q 698 903 768 874 q 533 933 628 933 q 253 817 349 933 q 157 490 157 701 q 253 163 157 279 q 533 46 349 46 q 698 76 628 46 q 836 171 768 106 l 867 122 q 722 23 804 57 q 535 -11 640 -11 m 335 1063 l 503 1299 l 569 1299 l 738 1063 l 686 1063 l 536 1246 l 386 1063 l 335 1063 z "},"Ċ":{"ha":950,"x_min":94,"x_max":867,"o":"m 535 -11 q 295 49 393 -11 q 146 222 197 110 q 94 490 94 335 q 146 758 94 646 q 295 930 197 869 q 535 990 393 990 q 723 956 642 990 q 867 857 804 922 l 836 808 q 698 903 768 874 q 533 933 628 933 q 253 817 349 933 q 157 490 157 701 q 253 163 157 279 q 533 46 349 46 q 698 76 628 46 q 836 171 768 106 l 867 122 q 722 23 804 57 q 535 -11 640 -11 m 493 1136 l 493 1224 l 579 1224 l 579 1136 l 493 1136 z "},"D":{"ha":1018,"x_min":135,"x_max":924,"o":"m 135 0 l 135 979 l 432 979 q 700 924 590 979 q 867 759 810 868 q 924 490 924 650 q 867 221 924 331 q 700 56 810 111 q 432 0 590 0 l 135 0 m 193 54 l 426 54 q 753 163 646 54 q 861 490 861 272 q 753 817 861 708 q 426 925 646 925 l 193 925 l 193 54 z "},"Ǆ":{"ha":1810,"x_min":135,"x_max":1756,"o":"m 135 0 l 135 979 l 432 979 q 700 924 590 979 q 867 759 810 868 q 924 490 924 650 q 867 221 924 331 q 700 56 810 111 q 432 0 590 0 l 135 0 m 193 54 l 426 54 q 753 163 646 54 q 861 490 861 272 q 753 817 861 708 q 426 925 646 925 l 193 925 l 193 54 m 1056 0 l 1056 43 l 1686 957 l 1686 925 l 1056 925 l 1056 979 l 1742 979 l 1742 936 l 1110 22 l 1110 54 l 1756 54 l 1756 0 l 1056 0 m 1372 1063 l 1204 1299 l 1256 1299 l 1406 1115 l 1556 1299 l 1607 1299 l 1439 1063 l 1372 1063 z "},"Ð":{"ha":1018,"x_min":13,"x_max":924,"o":"m 135 0 l 135 979 l 432 979 q 700 924 590 979 q 867 759 810 868 q 924 490 924 650 q 867 221 924 331 q 700 56 810 111 q 432 0 590 0 l 135 0 m 193 54 l 426 54 q 753 163 646 54 q 861 490 861 272 q 753 817 861 708 q 426 925 646 925 l 193 925 l 193 54 m 13 472 l 13 524 l 476 524 l 476 472 l 13 472 z "},"Ď":{"ha":1018,"x_min":135,"x_max":924,"o":"m 135 0 l 135 979 l 432 979 q 700 924 590 979 q 867 759 810 868 q 924 490 924 650 q 867 221 924 331 q 700 56 810 111 q 432 0 590 0 l 135 0 m 193 54 l 426 54 q 753 163 646 54 q 861 490 861 272 q 753 817 861 708 q 426 925 646 925 l 193 925 l 193 54 m 483 1063 l 315 1299 l 367 1299 l 517 1115 l 667 1299 l 718 1299 l 550 1063 l 483 1063 z "},"Đ":{"ha":1018,"x_min":13,"x_max":924,"o":"m 135 0 l 135 979 l 432 979 q 700 924 590 979 q 867 759 810 868 q 924 490 924 650 q 867 221 924 331 q 700 56 810 111 q 432 0 590 0 l 135 0 m 193 54 l 426 54 q 753 163 646 54 q 861 490 861 272 q 753 817 861 708 q 426 925 646 925 l 193 925 l 193 54 m 13 472 l 13 524 l 476 524 l 476 472 l 13 472 z "},"Ḍ":{"ha":1018,"x_min":135,"x_max":924,"o":"m 135 0 l 135 979 l 432 979 q 700 924 590 979 q 867 759 810 868 q 924 490 924 650 q 867 221 924 331 q 700 56 810 111 q 432 0 590 0 l 135 0 m 193 54 l 426 54 q 753 163 646 54 q 861 490 861 272 q 753 817 861 708 q 426 925 646 925 l 193 925 l 193 54 m 472 -239 l 472 -151 l 561 -151 l 561 -239 l 472 -239 z "},"Ɗ":{"ha":1165,"x_min":-1,"x_max":1071,"o":"m 282 0 l 282 925 l 228 925 q 97 885 139 925 q 54 763 54 846 l 54 703 l -1 703 l -1 765 q 56 926 -1 874 q 231 979 114 979 l 579 979 q 944 855 817 979 q 1071 490 1071 731 q 944 125 1071 250 q 579 0 817 0 l 282 0 m 340 54 l 574 54 q 901 163 793 54 q 1008 490 1008 272 q 901 817 1008 708 q 574 925 793 925 l 340 925 l 340 54 z "},"Ḏ":{"ha":1018,"x_min":135,"x_max":924,"o":"m 135 0 l 135 979 l 432 979 q 700 924 590 979 q 867 759 810 868 q 924 490 924 650 q 867 221 924 331 q 700 56 810 111 q 432 0 590 0 l 135 0 m 193 54 l 426 54 q 753 163 646 54 q 861 490 861 272 q 753 817 861 708 q 426 925 646 925 l 193 925 l 193 54 m 322 -206 l 322 -153 l 711 -153 l 711 -206 l 322 -206 z "},"ǅ":{"ha":1729,"x_min":135,"x_max":1663,"o":"m 135 0 l 135 979 l 432 979 q 700 924 590 979 q 867 759 810 868 q 924 490 924 650 q 867 221 924 331 q 700 56 810 111 q 432 0 590 0 l 135 0 m 193 54 l 426 54 q 753 163 646 54 q 861 490 861 272 q 753 817 861 708 q 426 925 646 925 l 193 925 l 193 54 m 1089 0 l 1089 42 l 1588 663 l 1589 644 l 1089 644 l 1089 694 l 1646 694 l 1646 653 l 1144 31 l 1143 50 l 1663 50 l 1663 0 l 1089 0 m 1333 763 l 1182 1040 l 1231 1040 l 1367 817 l 1503 1040 l 1551 1040 l 1400 763 l 1333 763 z "},"E":{"ha":808,"x_min":135,"x_max":729,"o":"m 135 0 l 135 979 l 729 979 l 729 925 l 193 925 l 193 524 l 699 524 l 699 469 l 193 469 l 193 54 l 729 54 l 729 0 l 135 0 z "},"É":{"ha":808,"x_min":135,"x_max":729,"o":"m 135 0 l 135 979 l 729 979 l 729 925 l 193 925 l 193 524 l 699 524 l 699 469 l 193 469 l 193 54 l 729 54 l 729 0 l 135 0 m 422 1063 l 586 1299 l 664 1299 l 475 1063 l 422 1063 z "},"Ĕ":{"ha":808,"x_min":135,"x_max":729,"o":"m 135 0 l 135 979 l 729 979 l 729 925 l 193 925 l 193 524 l 699 524 l 699 469 l 193 469 l 193 54 l 729 54 l 729 0 l 135 0 m 449 1056 q 300 1117 360 1056 q 231 1288 240 1179 l 276 1293 q 329 1155 283 1204 q 449 1106 375 1106 q 569 1155 522 1106 q 621 1293 615 1204 l 667 1288 q 597 1117 657 1179 q 449 1056 538 1056 z "},"Ě":{"ha":808,"x_min":135,"x_max":729,"o":"m 135 0 l 135 979 l 729 979 l 729 925 l 193 925 l 193 524 l 699 524 l 699 469 l 193 469 l 193 54 l 729 54 l 729 0 l 135 0 m 415 1063 l 247 1299 l 299 1299 l 449 1115 l 599 1299 l 650 1299 l 482 1063 l 415 1063 z "},"Ȩ":{"ha":808,"x_min":135,"x_max":729,"o":"m 135 0 l 135 979 l 729 979 l 729 925 l 193 925 l 193 524 l 699 524 l 699 469 l 193 469 l 193 54 l 729 54 l 729 0 l 135 0 m 456 -264 q 395 -257 424 -264 q 347 -239 367 -250 l 360 -192 q 407 -209 386 -204 q 461 -214 428 -214 q 523 -199 499 -214 q 547 -154 547 -183 q 493 -110 547 -110 q 462 -112 478 -110 q 422 -124 446 -115 l 401 -106 l 422 28 l 475 28 l 457 -76 l 432 -74 q 465 -67 449 -69 q 494 -64 481 -64 q 571 -87 539 -64 q 603 -154 603 -111 q 562 -233 603 -203 q 456 -264 521 -264 z "},"Ḝ":{"ha":808,"x_min":135,"x_max":729,"o":"m 135 0 l 135 979 l 729 979 l 729 925 l 193 925 l 193 524 l 699 524 l 699 469 l 193 469 l 193 54 l 729 54 l 729 0 l 135 0 m 456 -264 q 395 -257 424 -264 q 347 -239 367 -250 l 360 -192 q 407 -209 386 -204 q 461 -214 428 -214 q 523 -199 499 -214 q 547 -154 547 -183 q 493 -110 547 -110 q 462 -112 478 -110 q 422 -124 446 -115 l 401 -106 l 422 28 l 475 28 l 457 -76 l 432 -74 q 465 -67 449 -69 q 494 -64 481 -64 q 571 -87 539 -64 q 603 -154 603 -111 q 562 -233 603 -203 q 456 -264 521 -264 m 449 1056 q 300 1117 360 1056 q 231 1288 240 1179 l 276 1293 q 329 1155 283 1204 q 449 1106 375 1106 q 569 1155 522 1106 q 621 1293 615 1204 l 667 1288 q 597 1117 657 1179 q 449 1056 538 1056 z "},"Ê":{"ha":808,"x_min":135,"x_max":729,"o":"m 135 0 l 135 979 l 729 979 l 729 925 l 193 925 l 193 524 l 699 524 l 699 469 l 193 469 l 193 54 l 729 54 l 729 0 l 135 0 m 247 1063 l 415 1299 l 482 1299 l 650 1063 l 599 1063 l 449 1246 l 299 1063 l 247 1063 z "},"Ế":{"ha":808,"x_min":135,"x_max":758,"o":"m 135 0 l 135 979 l 729 979 l 729 925 l 193 925 l 193 524 l 699 524 l 699 469 l 193 469 l 193 54 l 729 54 l 729 0 l 135 0 m 264 1063 l 415 1285 l 482 1285 l 633 1063 l 586 1063 l 449 1233 l 311 1063 l 264 1063 m 561 1203 l 683 1411 l 758 1411 l 611 1203 l 561 1203 z "},"Ệ":{"ha":808,"x_min":135,"x_max":729,"o":"m 135 0 l 135 979 l 729 979 l 729 925 l 193 925 l 193 524 l 699 524 l 699 469 l 193 469 l 193 54 l 729 54 l 729 0 l 135 0 m 404 -239 l 404 -151 l 493 -151 l 493 -239 l 404 -239 m 247 1063 l 415 1299 l 482 1299 l 650 1063 l 599 1063 l 449 1246 l 299 1063 l 247 1063 z "},"Ề":{"ha":808,"x_min":135,"x_max":729,"o":"m 135 0 l 135 979 l 729 979 l 729 925 l 193 925 l 193 524 l 699 524 l 699 469 l 193 469 l 193 54 l 729 54 l 729 0 l 135 0 m 264 1063 l 415 1285 l 482 1285 l 633 1063 l 586 1063 l 449 1233 l 311 1063 l 264 1063 m 618 1203 l 471 1411 l 546 1411 l 668 1203 l 618 1203 z "},"Ể":{"ha":808,"x_min":135,"x_max":729,"o":"m 135 0 l 135 979 l 729 979 l 729 925 l 193 925 l 193 524 l 699 524 l 699 469 l 193 469 l 193 54 l 729 54 l 729 0 l 135 0 m 264 1063 l 415 1285 l 482 1285 l 633 1063 l 586 1063 l 449 1233 l 311 1063 l 264 1063 m 578 1203 q 592 1256 578 1236 q 624 1287 606 1275 q 657 1310 643 1299 q 671 1340 671 1322 q 653 1365 671 1358 q 599 1371 636 1371 q 559 1367 581 1371 q 511 1354 538 1364 l 499 1394 q 548 1411 521 1406 q 604 1417 575 1417 q 694 1397 663 1417 q 725 1344 725 1378 q 710 1299 725 1315 q 675 1272 694 1283 q 640 1244 656 1260 q 625 1203 625 1229 l 578 1203 z "},"Ễ":{"ha":808,"x_min":135,"x_max":729,"o":"m 135 0 l 135 979 l 729 979 l 729 925 l 193 925 l 193 524 l 699 524 l 699 469 l 193 469 l 193 54 l 729 54 l 729 0 l 135 0 m 264 1063 l 415 1243 l 482 1243 l 633 1063 l 586 1063 l 449 1196 l 311 1063 l 264 1063 m 292 1275 l 246 1278 q 283 1378 253 1344 q 361 1411 314 1411 q 410 1400 388 1411 q 461 1365 432 1389 q 507 1335 492 1342 q 536 1328 522 1328 q 583 1348 568 1328 q 606 1414 599 1368 l 651 1411 q 616 1311 646 1344 q 538 1278 586 1278 q 488 1290 511 1278 q 429 1329 465 1301 q 398 1351 415 1340 q 361 1361 381 1361 q 315 1341 331 1361 q 292 1275 299 1321 z "},"Ȅ":{"ha":808,"x_min":135,"x_max":729,"o":"m 135 0 l 135 979 l 729 979 l 729 925 l 193 925 l 193 524 l 699 524 l 699 469 l 193 469 l 193 54 l 729 54 l 729 0 l 135 0 m 506 1063 l 351 1299 l 424 1299 l 543 1063 l 506 1063 m 354 1063 l 201 1299 l 274 1299 l 392 1063 l 354 1063 z "},"Ë":{"ha":808,"x_min":135,"x_max":729,"o":"m 135 0 l 135 979 l 729 979 l 729 925 l 193 925 l 193 524 l 699 524 l 699 469 l 193 469 l 193 54 l 729 54 l 729 0 l 135 0 m 518 1139 l 518 1222 l 603 1222 l 603 1139 l 518 1139 m 294 1139 l 294 1222 l 379 1222 l 379 1139 l 294 1139 z "},"Ė":{"ha":808,"x_min":135,"x_max":729,"o":"m 135 0 l 135 979 l 729 979 l 729 925 l 193 925 l 193 524 l 699 524 l 699 469 l 193 469 l 193 54 l 729 54 l 729 0 l 135 0 m 406 1136 l 406 1224 l 492 1224 l 492 1136 l 406 1136 z "},"Ẹ":{"ha":808,"x_min":135,"x_max":729,"o":"m 135 0 l 135 979 l 729 979 l 729 925 l 193 925 l 193 524 l 699 524 l 699 469 l 193 469 l 193 54 l 729 54 l 729 0 l 135 0 m 404 -239 l 404 -151 l 493 -151 l 493 -239 l 404 -239 z "},"È":{"ha":808,"x_min":135,"x_max":729,"o":"m 135 0 l 135 979 l 729 979 l 729 925 l 193 925 l 193 524 l 699 524 l 699 469 l 193 469 l 193 54 l 729 54 l 729 0 l 135 0 m 422 1063 l 233 1299 l 311 1299 l 475 1063 l 422 1063 z "},"Ẻ":{"ha":808,"x_min":135,"x_max":729,"o":"m 135 0 l 135 979 l 729 979 l 729 925 l 193 925 l 193 524 l 699 524 l 699 469 l 193 469 l 193 54 l 729 54 l 729 0 l 135 0 m 422 1063 l 422 1082 q 437 1131 422 1113 q 470 1163 451 1150 q 503 1189 489 1176 q 518 1219 518 1201 q 501 1246 518 1236 q 446 1256 483 1256 q 403 1251 425 1256 q 356 1233 382 1246 l 343 1279 q 451 1306 389 1306 q 542 1283 510 1306 q 575 1222 575 1260 q 560 1176 575 1193 q 525 1147 544 1158 q 490 1119 506 1135 q 475 1076 475 1104 l 475 1063 l 422 1063 z "},"Ȇ":{"ha":808,"x_min":135,"x_max":729,"o":"m 135 0 l 135 979 l 729 979 l 729 925 l 193 925 l 193 524 l 699 524 l 699 469 l 193 469 l 193 54 l 729 54 l 729 0 l 135 0 m 276 1056 l 231 1061 q 300 1231 240 1169 q 449 1293 360 1293 q 597 1231 538 1293 q 667 1061 657 1169 l 621 1056 q 569 1194 615 1146 q 449 1243 522 1243 q 329 1194 375 1243 q 276 1056 283 1146 z "},"Ē":{"ha":808,"x_min":135,"x_max":729,"o":"m 135 0 l 135 979 l 729 979 l 729 925 l 193 925 l 193 524 l 699 524 l 699 469 l 193 469 l 193 54 l 729 54 l 729 0 l 135 0 m 233 1142 l 233 1194 l 664 1194 l 664 1142 l 233 1142 z "},"Ḗ":{"ha":808,"x_min":135,"x_max":729,"o":"m 135 0 l 135 979 l 729 979 l 729 925 l 193 925 l 193 524 l 699 524 l 699 469 l 193 469 l 193 54 l 729 54 l 729 0 l 135 0 m 254 1106 l 254 1158 l 643 1158 l 643 1106 l 254 1106 m 424 1210 l 560 1418 l 635 1418 l 474 1210 l 424 1210 z "},"Ḕ":{"ha":808,"x_min":135,"x_max":729,"o":"m 135 0 l 135 979 l 729 979 l 729 925 l 193 925 l 193 524 l 699 524 l 699 469 l 193 469 l 193 54 l 729 54 l 729 0 l 135 0 m 424 1210 l 263 1418 l 338 1418 l 474 1210 l 424 1210 m 254 1106 l 254 1158 l 643 1158 l 643 1106 l 254 1106 z "},"Ę":{"ha":808,"x_min":135,"x_max":768,"o":"m 135 0 l 135 979 l 729 979 l 729 925 l 193 925 l 193 524 l 699 524 l 699 469 l 193 469 l 193 54 l 729 54 l 729 0 l 135 0 m 669 -264 q 576 -229 613 -264 q 539 -136 539 -194 q 572 -35 539 -83 q 664 43 604 13 l 693 0 q 649 -26 672 -8 q 610 -71 626 -44 q 593 -131 593 -97 q 617 -194 593 -174 q 676 -214 642 -214 q 713 -210 694 -214 q 750 -196 731 -206 l 768 -240 q 728 -257 754 -250 q 669 -264 701 -264 z "},"Ẽ":{"ha":808,"x_min":135,"x_max":729,"o":"m 135 0 l 135 979 l 729 979 l 729 925 l 193 925 l 193 524 l 699 524 l 699 469 l 193 469 l 193 54 l 729 54 l 729 0 l 135 0 m 221 1100 l 176 1103 q 225 1227 186 1183 q 325 1271 264 1271 q 389 1256 357 1271 q 467 1207 421 1240 q 533 1165 511 1176 q 576 1153 556 1153 q 642 1184 618 1153 q 676 1274 667 1215 l 721 1271 q 673 1147 711 1190 q 574 1103 635 1103 q 510 1118 543 1103 q 426 1169 476 1133 q 364 1210 388 1199 q 321 1221 340 1221 q 255 1190 279 1221 q 221 1100 231 1158 z "},"F":{"ha":769,"x_min":135,"x_max":715,"o":"m 135 0 l 135 979 l 715 979 l 715 925 l 193 925 l 193 524 l 686 524 l 686 469 l 193 469 l 193 0 l 135 0 z "},"G":{"ha":1004,"x_min":94,"x_max":881,"o":"m 564 -11 q 303 48 408 -11 q 147 219 199 107 q 94 490 94 332 q 148 758 94 646 q 302 930 201 869 q 544 990 403 990 q 728 956 651 990 q 869 857 806 922 l 839 808 q 749 880 793 853 q 657 920 706 907 q 543 933 608 933 q 258 817 358 933 q 157 489 157 700 q 256 160 157 274 q 564 46 356 46 q 712 60 643 46 q 842 103 781 75 l 825 53 l 825 442 l 556 442 l 556 496 l 881 496 l 881 57 q 740 8 828 28 q 564 -11 651 -11 z "},"Ğ":{"ha":1004,"x_min":94,"x_max":881,"o":"m 564 -11 q 303 48 408 -11 q 147 219 199 107 q 94 490 94 332 q 148 758 94 646 q 302 930 201 869 q 544 990 403 990 q 728 956 651 990 q 869 857 806 922 l 839 808 q 749 880 793 853 q 657 920 706 907 q 543 933 608 933 q 258 817 358 933 q 157 489 157 700 q 256 160 157 274 q 564 46 356 46 q 712 60 643 46 q 842 103 781 75 l 825 53 l 825 442 l 556 442 l 556 496 l 881 496 l 881 57 q 740 8 828 28 q 564 -11 651 -11 m 543 1056 q 394 1117 454 1056 q 325 1288 335 1179 l 371 1293 q 424 1155 378 1204 q 543 1106 469 1106 q 663 1155 617 1106 q 715 1293 710 1204 l 761 1288 q 692 1117 751 1179 q 543 1056 632 1056 z "},"Ǧ":{"ha":1004,"x_min":94,"x_max":881,"o":"m 564 -11 q 303 48 408 -11 q 147 219 199 107 q 94 490 94 332 q 148 758 94 646 q 302 930 201 869 q 544 990 403 990 q 728 956 651 990 q 869 857 806 922 l 839 808 q 749 880 793 853 q 657 920 706 907 q 543 933 608 933 q 258 817 358 933 q 157 489 157 700 q 256 160 157 274 q 564 46 356 46 q 712 60 643 46 q 842 103 781 75 l 825 53 l 825 442 l 556 442 l 556 496 l 881 496 l 881 57 q 740 8 828 28 q 564 -11 651 -11 m 510 1063 l 342 1299 l 393 1299 l 543 1115 l 693 1299 l 744 1299 l 576 1063 l 510 1063 z "},"Ĝ":{"ha":1004,"x_min":94,"x_max":881,"o":"m 564 -11 q 303 48 408 -11 q 147 219 199 107 q 94 490 94 332 q 148 758 94 646 q 302 930 201 869 q 544 990 403 990 q 728 956 651 990 q 869 857 806 922 l 839 808 q 749 880 793 853 q 657 920 706 907 q 543 933 608 933 q 258 817 358 933 q 157 489 157 700 q 256 160 157 274 q 564 46 356 46 q 712 60 643 46 q 842 103 781 75 l 825 53 l 825 442 l 556 442 l 556 496 l 881 496 l 881 57 q 740 8 828 28 q 564 -11 651 -11 m 342 1063 l 510 1299 l 576 1299 l 744 1063 l 693 1063 l 543 1246 l 393 1063 l 342 1063 z "},"Ģ":{"ha":1004,"x_min":94,"x_max":881,"o":"m 564 -11 q 303 48 408 -11 q 147 219 199 107 q 94 490 94 332 q 148 758 94 646 q 302 930 201 869 q 544 990 403 990 q 728 956 651 990 q 869 857 806 922 l 839 808 q 749 880 793 853 q 657 920 706 907 q 543 933 608 933 q 258 817 358 933 q 157 489 157 700 q 256 160 157 274 q 564 46 356 46 q 712 60 643 46 q 842 103 781 75 l 825 53 l 825 442 l 556 442 l 556 496 l 881 496 l 881 57 q 740 8 828 28 q 564 -11 651 -11 m 547 -360 l 511 -332 q 553 -265 543 -296 q 564 -200 564 -235 l 585 -210 l 515 -210 l 515 -119 l 613 -119 l 613 -194 q 596 -284 613 -242 q 547 -360 579 -326 z "},"Ġ":{"ha":1004,"x_min":94,"x_max":881,"o":"m 564 -11 q 303 48 408 -11 q 147 219 199 107 q 94 490 94 332 q 148 758 94 646 q 302 930 201 869 q 544 990 403 990 q 728 956 651 990 q 869 857 806 922 l 839 808 q 749 880 793 853 q 657 920 706 907 q 543 933 608 933 q 258 817 358 933 q 157 489 157 700 q 256 160 157 274 q 564 46 356 46 q 712 60 643 46 q 842 103 781 75 l 825 53 l 825 442 l 556 442 l 556 496 l 881 496 l 881 57 q 740 8 828 28 q 564 -11 651 -11 m 500 1136 l 500 1224 l 586 1224 l 586 1136 l 500 1136 z "},"Ḡ":{"ha":1004,"x_min":94,"x_max":881,"o":"m 564 -11 q 303 48 408 -11 q 147 219 199 107 q 94 490 94 332 q 148 758 94 646 q 302 930 201 869 q 544 990 403 990 q 728 956 651 990 q 869 857 806 922 l 839 808 q 749 880 793 853 q 657 920 706 907 q 543 933 608 933 q 258 817 358 933 q 157 489 157 700 q 256 160 157 274 q 564 46 356 46 q 712 60 643 46 q 842 103 781 75 l 825 53 l 825 442 l 556 442 l 556 496 l 881 496 l 881 57 q 740 8 828 28 q 564 -11 651 -11 m 328 1142 l 328 1194 l 758 1194 l 758 1142 l 328 1142 z "},"H":{"ha":1054,"x_min":135,"x_max":919,"o":"m 135 0 l 135 979 l 193 979 l 193 524 l 861 524 l 861 979 l 919 979 l 919 0 l 861 0 l 861 469 l 193 469 l 193 0 l 135 0 z "},"Ħ":{"ha":1065,"x_min":6,"x_max":1060,"o":"m 142 0 l 142 732 l 6 732 l 6 785 l 142 785 l 142 979 l 200 979 l 200 785 l 865 785 l 865 979 l 924 979 l 924 785 l 1060 785 l 1060 732 l 924 732 l 924 0 l 865 0 l 865 469 l 200 469 l 200 0 l 142 0 m 200 524 l 865 524 l 865 732 l 200 732 l 200 524 z "},"Ḫ":{"ha":1054,"x_min":135,"x_max":919,"o":"m 135 0 l 135 979 l 193 979 l 193 524 l 861 524 l 861 979 l 919 979 l 919 0 l 861 0 l 861 469 l 193 469 l 193 0 l 135 0 m 528 -299 q 388 -244 442 -299 q 328 -94 335 -190 l 374 -89 q 419 -207 379 -165 q 528 -249 460 -249 q 637 -207 597 -249 q 682 -89 676 -165 l 728 -94 q 667 -244 721 -190 q 528 -299 614 -299 z "},"Ĥ":{"ha":1054,"x_min":135,"x_max":919,"o":"m 135 0 l 135 979 l 193 979 l 193 524 l 861 524 l 861 979 l 919 979 l 919 0 l 861 0 l 861 469 l 193 469 l 193 0 l 135 0 m 326 1063 l 494 1299 l 561 1299 l 729 1063 l 678 1063 l 528 1246 l 378 1063 l 326 1063 z "},"Ḥ":{"ha":1054,"x_min":135,"x_max":919,"o":"m 135 0 l 135 979 l 193 979 l 193 524 l 861 524 l 861 979 l 919 979 l 919 0 l 861 0 l 861 469 l 193 469 l 193 0 l 135 0 m 483 -239 l 483 -151 l 572 -151 l 572 -239 l 483 -239 z "},"I":{"ha":328,"x_min":135,"x_max":193,"o":"m 135 0 l 135 979 l 193 979 l 193 0 l 135 0 z "},"Ĳ":{"ha":744,"x_min":135,"x_max":610,"o":"m 135 0 l 135 979 l 193 979 l 193 0 l 135 0 m 425 -258 q 378 -256 403 -258 q 328 -247 354 -254 l 328 -193 q 376 -202 354 -199 q 417 -206 397 -206 q 516 -164 481 -206 q 551 -33 551 -122 l 551 979 l 610 979 l 610 -36 q 589 -156 610 -106 q 527 -232 568 -206 q 425 -258 486 -258 z "},"Í":{"ha":328,"x_min":135,"x_max":379,"o":"m 135 0 l 135 979 l 193 979 l 193 0 l 135 0 m 138 1063 l 301 1299 l 379 1299 l 190 1063 l 138 1063 z "},"Ĭ":{"ha":328,"x_min":-54,"x_max":382,"o":"m 135 0 l 135 979 l 193 979 l 193 0 l 135 0 m 164 1056 q 15 1117 75 1056 q -54 1288 -44 1179 l -8 1293 q 44 1155 -1 1204 q 164 1106 90 1106 q 284 1155 238 1106 q 336 1293 331 1204 l 382 1288 q 313 1117 372 1179 q 164 1056 253 1056 z "},"Î":{"ha":328,"x_min":-37,"x_max":365,"o":"m 135 0 l 135 979 l 193 979 l 193 0 l 135 0 m -37 1063 l 131 1299 l 197 1299 l 365 1063 l 314 1063 l 164 1246 l 14 1063 l -37 1063 z "},"Ȉ":{"ha":328,"x_min":-83,"x_max":258,"o":"m 135 0 l 135 979 l 193 979 l 193 0 l 135 0 m 221 1063 l 67 1299 l 139 1299 l 258 1063 l 221 1063 m 69 1063 l -83 1299 l -11 1299 l 107 1063 l 69 1063 z "},"Ï":{"ha":328,"x_min":10,"x_max":318,"o":"m 135 0 l 135 979 l 193 979 l 193 0 l 135 0 m 233 1139 l 233 1222 l 318 1222 l 318 1139 l 233 1139 m 10 1139 l 10 1222 l 94 1222 l 94 1139 l 10 1139 z "},"Ḯ":{"ha":328,"x_min":10,"x_max":350,"o":"m 135 0 l 135 979 l 193 979 l 193 0 l 135 0 m 139 1210 l 275 1418 l 350 1418 l 189 1210 l 139 1210 m 10 1071 l 10 1154 l 94 1154 l 94 1071 l 10 1071 m 233 1071 l 233 1154 l 318 1154 l 318 1071 l 233 1071 z "},"İ":{"ha":328,"x_min":121,"x_max":207,"o":"m 135 0 l 135 979 l 193 979 l 193 0 l 135 0 m 121 1136 l 121 1224 l 207 1224 l 207 1136 l 121 1136 z "},"Ị":{"ha":328,"x_min":119,"x_max":208,"o":"m 135 0 l 135 979 l 193 979 l 193 0 l 135 0 m 119 -239 l 119 -151 l 208 -151 l 208 -239 l 119 -239 z "},"Ì":{"ha":328,"x_min":-51,"x_max":193,"o":"m 135 0 l 135 979 l 193 979 l 193 0 l 135 0 m 138 1063 l -51 1299 l 26 1299 l 190 1063 l 138 1063 z "},"Ỉ":{"ha":328,"x_min":58,"x_max":290,"o":"m 135 0 l 135 979 l 193 979 l 193 0 l 135 0 m 138 1063 l 138 1082 q 152 1131 138 1113 q 185 1163 167 1150 q 219 1189 204 1176 q 233 1219 233 1201 q 216 1246 233 1236 q 161 1256 199 1256 q 119 1251 140 1256 q 71 1233 97 1246 l 58 1279 q 167 1306 104 1306 q 258 1283 225 1306 q 290 1222 290 1260 q 275 1176 290 1193 q 240 1147 260 1158 q 206 1119 221 1135 q 190 1076 190 1104 l 190 1063 l 138 1063 z "},"Ȋ":{"ha":328,"x_min":-54,"x_max":382,"o":"m 135 0 l 135 979 l 193 979 l 193 0 l 135 0 m -8 1056 l -54 1061 q 15 1231 -44 1169 q 164 1293 75 1293 q 313 1231 253 1293 q 382 1061 372 1169 l 336 1056 q 284 1194 331 1146 q 164 1243 238 1243 q 44 1194 90 1243 q -8 1056 -1 1146 z "},"Ī":{"ha":328,"x_min":-51,"x_max":379,"o":"m 135 0 l 135 979 l 193 979 l 193 0 l 135 0 m -51 1142 l -51 1194 l 379 1194 l 379 1142 l -51 1142 z "},"Į":{"ha":328,"x_min":39,"x_max":268,"o":"m 135 0 l 135 979 l 193 979 l 193 0 l 135 0 m 169 -264 q 76 -229 113 -264 q 39 -136 39 -194 q 72 -35 39 -83 q 164 43 104 13 l 193 0 q 149 -26 172 -8 q 110 -71 126 -44 q 93 -131 93 -97 q 117 -194 93 -174 q 176 -214 142 -214 q 213 -210 194 -214 q 250 -196 231 -206 l 268 -240 q 228 -257 254 -250 q 169 -264 201 -264 z "},"Ĩ":{"ha":328,"x_min":-108,"x_max":436,"o":"m 135 0 l 135 979 l 193 979 l 193 0 l 135 0 m -64 1100 l -108 1103 q -60 1227 -99 1183 q 40 1271 -21 1271 q 104 1256 72 1271 q 182 1207 136 1240 q 249 1165 226 1176 q 292 1153 271 1153 q 358 1184 333 1153 q 392 1274 382 1215 l 436 1271 q 388 1147 426 1190 q 289 1103 350 1103 q 225 1118 258 1103 q 142 1169 192 1133 q 79 1210 103 1199 q 36 1221 56 1221 q -30 1190 -6 1221 q -64 1100 -54 1158 z "},"J":{"ha":417,"x_min":0,"x_max":282,"o":"m 97 -258 q 51 -256 75 -258 q 0 -247 26 -254 l 0 -193 q 48 -202 26 -199 q 89 -206 69 -206 q 188 -164 153 -206 q 224 -33 224 -122 l 224 979 l 282 979 l 282 -36 q 261 -156 282 -106 q 199 -232 240 -206 q 97 -258 158 -258 z "},"Ĵ":{"ha":417,"x_min":0,"x_max":453,"o":"m 97 -258 q 51 -256 75 -258 q 0 -247 26 -254 l 0 -193 q 48 -202 26 -199 q 89 -206 69 -206 q 188 -164 153 -206 q 224 -33 224 -122 l 224 979 l 282 979 l 282 -36 q 261 -156 282 -106 q 199 -232 240 -206 q 97 -258 158 -258 m 50 1063 l 218 1299 l 285 1299 l 453 1063 l 401 1063 l 251 1246 l 101 1063 l 50 1063 z "},"K":{"ha":840,"x_min":135,"x_max":832,"o":"m 135 0 l 135 979 l 193 979 l 193 524 l 196 524 l 704 979 l 789 979 l 222 476 l 224 518 l 832 0 l 744 0 l 196 469 l 193 469 l 193 0 l 135 0 z "},"Ķ":{"ha":840,"x_min":135,"x_max":832,"o":"m 135 0 l 135 979 l 193 979 l 193 524 l 196 524 l 704 979 l 789 979 l 222 476 l 224 518 l 832 0 l 744 0 l 196 469 l 193 469 l 193 0 l 135 0 m 413 -360 l 376 -332 q 419 -265 408 -296 q 429 -200 429 -235 l 450 -210 l 381 -210 l 381 -119 l 478 -119 l 478 -194 q 461 -284 478 -242 q 413 -360 444 -326 z "},"L":{"ha":739,"x_min":135,"x_max":718,"o":"m 135 0 l 135 979 l 193 979 l 193 54 l 718 54 l 718 0 l 135 0 z "},"Ǉ":{"ha":1211,"x_min":135,"x_max":1076,"o":"m 135 0 l 135 979 l 193 979 l 193 54 l 718 54 l 718 0 l 135 0 m 892 -258 q 845 -256 869 -258 q 794 -247 821 -254 l 794 -193 q 842 -202 821 -199 q 883 -206 864 -206 q 983 -164 947 -206 q 1018 -33 1018 -122 l 1018 979 l 1076 979 l 1076 -36 q 1056 -156 1076 -106 q 994 -232 1035 -206 q 892 -258 953 -258 z "},"Ĺ":{"ha":739,"x_min":135,"x_max":718,"o":"m 135 0 l 135 979 l 193 979 l 193 54 l 718 54 l 718 0 l 135 0 m 138 1063 l 301 1299 l 379 1299 l 190 1063 l 138 1063 z "},"Ľ":{"ha":739,"x_min":135,"x_max":718,"o":"m 135 0 l 135 979 l 193 979 l 193 54 l 718 54 l 718 0 l 135 0 m 356 679 l 356 979 l 424 979 l 397 679 l 356 679 z "},"Ļ":{"ha":739,"x_min":135,"x_max":718,"o":"m 135 0 l 135 979 l 193 979 l 193 54 l 718 54 l 718 0 l 135 0 m 404 -360 l 368 -332 q 410 -265 400 -296 q 421 -200 421 -235 l 442 -210 l 372 -210 l 372 -119 l 469 -119 l 469 -194 q 453 -284 469 -242 q 404 -360 436 -326 z "},"Ŀ":{"ha":739,"x_min":135,"x_max":718,"o":"m 135 0 l 135 979 l 193 979 l 193 54 l 718 54 l 718 0 l 135 0 m 486 489 l 486 583 l 582 583 l 582 489 l 486 489 z "},"Ḷ":{"ha":739,"x_min":135,"x_max":718,"o":"m 135 0 l 135 979 l 193 979 l 193 54 l 718 54 l 718 0 l 135 0 m 376 -239 l 376 -151 l 465 -151 l 465 -239 l 376 -239 z "},"ǈ":{"ha":1042,"x_min":135,"x_max":946,"o":"m 135 0 l 135 979 l 193 979 l 193 54 l 718 54 l 718 0 l 135 0 m 751 -303 q 710 -298 738 -303 q 668 -287 683 -293 l 668 -232 q 707 -243 683 -237 q 749 -249 731 -249 q 843 -206 814 -249 q 872 -71 872 -162 l 872 694 l 931 694 l 931 -83 q 885 -247 931 -192 q 751 -303 839 -303 m 857 876 l 857 964 l 946 964 l 946 876 l 857 876 z "},"Ḻ":{"ha":739,"x_min":135,"x_max":718,"o":"m 135 0 l 135 979 l 193 979 l 193 54 l 718 54 l 718 0 l 135 0 m 226 -206 l 226 -153 l 615 -153 l 615 -206 l 226 -206 z "},"Ł":{"ha":739,"x_min":-12,"x_max":718,"o":"m 135 0 l 135 979 l 193 979 l 193 54 l 718 54 l 718 0 l 135 0 m 15 385 l -12 432 l 438 690 l 465 644 l 15 385 z "},"M":{"ha":1178,"x_min":135,"x_max":1043,"o":"m 135 0 l 135 979 l 186 979 l 608 24 l 569 24 l 993 979 l 1043 979 l 1043 0 l 989 0 l 989 922 l 1022 922 l 614 0 l 565 0 l 156 924 l 189 924 l 189 0 l 135 0 z "},"Ṃ":{"ha":1178,"x_min":135,"x_max":1043,"o":"m 135 0 l 135 979 l 186 979 l 608 24 l 569 24 l 993 979 l 1043 979 l 1043 0 l 989 0 l 989 922 l 1022 922 l 614 0 l 565 0 l 156 924 l 189 924 l 189 0 l 135 0 m 544 -239 l 544 -151 l 633 -151 l 633 -239 l 544 -239 z "},"N":{"ha":1026,"x_min":135,"x_max":892,"o":"m 135 0 l 135 979 l 185 979 l 867 58 l 838 58 l 838 979 l 892 979 l 892 0 l 843 0 l 161 921 l 189 921 l 189 0 l 135 0 z "},"Ǌ":{"ha":1443,"x_min":135,"x_max":1308,"o":"m 135 0 l 135 979 l 185 979 l 867 58 l 838 58 l 838 979 l 892 979 l 892 0 l 843 0 l 161 921 l 189 921 l 189 0 l 135 0 m 1124 -258 q 1077 -256 1101 -258 q 1026 -247 1053 -254 l 1026 -193 q 1074 -202 1053 -199 q 1115 -206 1096 -206 q 1215 -164 1179 -206 q 1250 -33 1250 -122 l 1250 979 l 1308 979 l 1308 -36 q 1288 -156 1308 -106 q 1226 -232 1267 -206 q 1124 -258 1185 -258 z "},"Ń":{"ha":1026,"x_min":135,"x_max":892,"o":"m 135 0 l 135 979 l 185 979 l 867 58 l 838 58 l 838 979 l 892 979 l 892 0 l 843 0 l 161 921 l 189 921 l 189 0 l 135 0 m 488 1063 l 651 1299 l 729 1299 l 540 1063 l 488 1063 z "},"Ň":{"ha":1026,"x_min":135,"x_max":892,"o":"m 135 0 l 135 979 l 185 979 l 867 58 l 838 58 l 838 979 l 892 979 l 892 0 l 843 0 l 161 921 l 189 921 l 189 0 l 135 0 m 481 1063 l 313 1299 l 364 1299 l 514 1115 l 664 1299 l 715 1299 l 547 1063 l 481 1063 z "},"Ņ":{"ha":1026,"x_min":135,"x_max":892,"o":"m 135 0 l 135 979 l 185 979 l 867 58 l 838 58 l 838 979 l 892 979 l 892 0 l 843 0 l 161 921 l 189 921 l 189 0 l 135 0 m 497 -360 l 461 -332 q 503 -265 493 -296 q 514 -200 514 -235 l 535 -210 l 465 -210 l 465 -119 l 563 -119 l 563 -194 q 546 -284 563 -242 q 497 -360 529 -326 z "},"Ṅ":{"ha":1026,"x_min":135,"x_max":892,"o":"m 135 0 l 135 979 l 185 979 l 867 58 l 838 58 l 838 979 l 892 979 l 892 0 l 843 0 l 161 921 l 189 921 l 189 0 l 135 0 m 471 1136 l 471 1224 l 557 1224 l 557 1136 l 471 1136 z "},"Ṇ":{"ha":1026,"x_min":135,"x_max":892,"o":"m 135 0 l 135 979 l 185 979 l 867 58 l 838 58 l 838 979 l 892 979 l 892 0 l 843 0 l 161 921 l 189 921 l 189 0 l 135 0 m 469 -239 l 469 -151 l 558 -151 l 558 -239 l 469 -239 z "},"Ŋ":{"ha":1026,"x_min":135,"x_max":892,"o":"m 626 -268 l 622 -215 l 682 -211 q 797 -160 757 -206 q 838 -31 838 -114 l 838 36 l 843 0 l 161 921 l 189 921 l 189 0 l 135 0 l 135 979 l 185 979 l 867 58 l 838 58 l 838 979 l 892 979 l 892 -29 q 867 -151 892 -100 q 798 -231 843 -203 q 689 -264 753 -260 l 626 -268 z "},"ǋ":{"ha":1329,"x_min":135,"x_max":1233,"o":"m 135 0 l 135 979 l 185 979 l 867 58 l 838 58 l 838 979 l 892 979 l 892 0 l 843 0 l 161 921 l 189 921 l 189 0 l 135 0 m 1039 -303 q 998 -298 1025 -303 q 956 -287 971 -293 l 956 -232 q 994 -243 971 -237 q 1036 -249 1018 -249 q 1131 -206 1101 -249 q 1160 -71 1160 -162 l 1160 694 l 1218 694 l 1218 -83 q 1172 -247 1218 -192 q 1039 -303 1126 -303 m 1144 876 l 1144 964 l 1233 964 l 1233 876 l 1144 876 z "},"Ṉ":{"ha":1026,"x_min":135,"x_max":892,"o":"m 135 0 l 135 979 l 185 979 l 867 58 l 838 58 l 838 979 l 892 979 l 892 0 l 843 0 l 161 921 l 189 921 l 189 0 l 135 0 m 319 -206 l 319 -153 l 708 -153 l 708 -206 l 319 -206 z "},"Ñ":{"ha":1026,"x_min":135,"x_max":892,"o":"m 135 0 l 135 979 l 185 979 l 867 58 l 838 58 l 838 979 l 892 979 l 892 0 l 843 0 l 161 921 l 189 921 l 189 0 l 135 0 m 286 1100 l 242 1103 q 290 1227 251 1183 q 390 1271 329 1271 q 454 1256 422 1271 q 532 1207 486 1240 q 599 1165 576 1176 q 642 1153 621 1153 q 708 1184 683 1153 q 742 1274 732 1215 l 786 1271 q 738 1147 776 1190 q 639 1103 700 1103 q 575 1118 608 1103 q 492 1169 542 1133 q 429 1210 453 1199 q 386 1221 406 1221 q 320 1190 344 1221 q 286 1100 296 1158 z "},"O":{"ha":1054,"x_min":94,"x_max":960,"o":"m 94 490 q 145 758 94 646 q 292 930 196 869 q 526 990 389 990 q 757 930 660 990 q 907 758 854 869 q 960 492 960 646 q 906 224 960 336 q 756 50 853 111 q 526 -11 658 -11 q 294 50 390 -11 q 146 224 197 111 q 94 490 94 336 m 157 490 q 251 163 157 281 q 526 46 346 46 q 799 163 700 46 q 897 490 897 279 q 799 817 897 701 q 526 933 701 933 q 251 817 346 933 q 157 490 157 701 z "},"Ó":{"ha":1054,"x_min":94,"x_max":960,"o":"m 94 490 q 145 758 94 646 q 292 930 196 869 q 526 990 389 990 q 757 930 660 990 q 907 758 854 869 q 960 492 960 646 q 906 224 960 336 q 756 50 853 111 q 526 -11 658 -11 q 294 50 390 -11 q 146 224 197 111 q 94 490 94 336 m 157 490 q 251 163 157 281 q 526 46 346 46 q 799 163 700 46 q 897 490 897 279 q 799 817 897 701 q 526 933 701 933 q 251 817 346 933 q 157 490 157 701 m 500 1063 l 664 1299 l 742 1299 l 553 1063 l 500 1063 z "},"Ŏ":{"ha":1054,"x_min":94,"x_max":960,"o":"m 94 490 q 145 758 94 646 q 292 930 196 869 q 526 990 389 990 q 757 930 660 990 q 907 758 854 869 q 960 492 960 646 q 906 224 960 336 q 756 50 853 111 q 526 -11 658 -11 q 294 50 390 -11 q 146 224 197 111 q 94 490 94 336 m 157 490 q 251 163 157 281 q 526 46 346 46 q 799 163 700 46 q 897 490 897 279 q 799 817 897 701 q 526 933 701 933 q 251 817 346 933 q 157 490 157 701 m 526 1056 q 378 1117 438 1056 q 308 1288 318 1179 l 354 1293 q 407 1155 361 1204 q 526 1106 453 1106 q 647 1155 600 1106 q 699 1293 693 1204 l 744 1288 q 675 1117 735 1179 q 526 1056 615 1056 z "},"Ô":{"ha":1054,"x_min":94,"x_max":960,"o":"m 94 490 q 145 758 94 646 q 292 930 196 869 q 526 990 389 990 q 757 930 660 990 q 907 758 854 869 q 960 492 960 646 q 906 224 960 336 q 756 50 853 111 q 526 -11 658 -11 q 294 50 390 -11 q 146 224 197 111 q 94 490 94 336 m 157 490 q 251 163 157 281 q 526 46 346 46 q 799 163 700 46 q 897 490 897 279 q 799 817 897 701 q 526 933 701 933 q 251 817 346 933 q 157 490 157 701 m 325 1063 l 493 1299 l 560 1299 l 728 1063 l 676 1063 l 526 1246 l 376 1063 l 325 1063 z "},"Ố":{"ha":1054,"x_min":94,"x_max":960,"o":"m 94 490 q 145 758 94 646 q 292 930 196 869 q 526 990 389 990 q 757 930 660 990 q 907 758 854 869 q 960 492 960 646 q 906 224 960 336 q 756 50 853 111 q 526 -11 658 -11 q 294 50 390 -11 q 146 224 197 111 q 94 490 94 336 m 157 490 q 251 163 157 281 q 526 46 346 46 q 799 163 700 46 q 897 490 897 279 q 799 817 897 701 q 526 933 701 933 q 251 817 346 933 q 157 490 157 701 m 342 1063 l 493 1285 l 560 1285 l 711 1063 l 664 1063 l 526 1233 l 389 1063 l 342 1063 m 639 1203 l 761 1411 l 836 1411 l 689 1203 l 639 1203 z "},"Ộ":{"ha":1054,"x_min":94,"x_max":960,"o":"m 94 490 q 145 758 94 646 q 292 930 196 869 q 526 990 389 990 q 757 930 660 990 q 907 758 854 869 q 960 492 960 646 q 906 224 960 336 q 756 50 853 111 q 526 -11 658 -11 q 294 50 390 -11 q 146 224 197 111 q 94 490 94 336 m 157 490 q 251 163 157 281 q 526 46 346 46 q 799 163 700 46 q 897 490 897 279 q 799 817 897 701 q 526 933 701 933 q 251 817 346 933 q 157 490 157 701 m 482 -239 l 482 -151 l 571 -151 l 571 -239 l 482 -239 m 325 1063 l 493 1299 l 560 1299 l 728 1063 l 676 1063 l 526 1246 l 376 1063 l 325 1063 z "},"Ồ":{"ha":1054,"x_min":94,"x_max":960,"o":"m 94 490 q 145 758 94 646 q 292 930 196 869 q 526 990 389 990 q 757 930 660 990 q 907 758 854 869 q 960 492 960 646 q 906 224 960 336 q 756 50 853 111 q 526 -11 658 -11 q 294 50 390 -11 q 146 224 197 111 q 94 490 94 336 m 157 490 q 251 163 157 281 q 526 46 346 46 q 799 163 700 46 q 897 490 897 279 q 799 817 897 701 q 526 933 701 933 q 251 817 346 933 q 157 490 157 701 m 342 1063 l 493 1285 l 560 1285 l 711 1063 l 664 1063 l 526 1233 l 389 1063 l 342 1063 m 696 1203 l 549 1411 l 624 1411 l 746 1203 l 696 1203 z "},"Ổ":{"ha":1054,"x_min":94,"x_max":960,"o":"m 94 490 q 145 758 94 646 q 292 930 196 869 q 526 990 389 990 q 757 930 660 990 q 907 758 854 869 q 960 492 960 646 q 906 224 960 336 q 756 50 853 111 q 526 -11 658 -11 q 294 50 390 -11 q 146 224 197 111 q 94 490 94 336 m 157 490 q 251 163 157 281 q 526 46 346 46 q 799 163 700 46 q 897 490 897 279 q 799 817 897 701 q 526 933 701 933 q 251 817 346 933 q 157 490 157 701 m 342 1063 l 493 1285 l 560 1285 l 711 1063 l 664 1063 l 526 1233 l 389 1063 l 342 1063 m 656 1203 q 669 1256 656 1236 q 702 1287 683 1275 q 735 1310 721 1299 q 749 1340 749 1322 q 731 1365 749 1358 q 676 1371 714 1371 q 637 1367 658 1371 q 589 1354 615 1364 l 576 1394 q 626 1411 599 1406 q 682 1417 653 1417 q 772 1397 740 1417 q 803 1344 803 1378 q 788 1299 803 1315 q 753 1272 772 1283 q 718 1244 733 1260 q 703 1203 703 1229 l 656 1203 z "},"Ỗ":{"ha":1054,"x_min":94,"x_max":960,"o":"m 94 490 q 145 758 94 646 q 292 930 196 869 q 526 990 389 990 q 757 930 660 990 q 907 758 854 869 q 960 492 960 646 q 906 224 960 336 q 756 50 853 111 q 526 -11 658 -11 q 294 50 390 -11 q 146 224 197 111 q 94 490 94 336 m 157 490 q 251 163 157 281 q 526 46 346 46 q 799 163 700 46 q 897 490 897 279 q 799 817 897 701 q 526 933 701 933 q 251 817 346 933 q 157 490 157 701 m 342 1063 l 493 1243 l 560 1243 l 711 1063 l 664 1063 l 526 1196 l 389 1063 l 342 1063 m 369 1275 l 324 1278 q 361 1378 331 1344 q 439 1411 392 1411 q 488 1400 465 1411 q 539 1365 510 1389 q 585 1335 569 1342 q 614 1328 600 1328 q 661 1348 646 1328 q 683 1414 676 1368 l 729 1411 q 694 1311 724 1344 q 615 1278 664 1278 q 566 1290 589 1278 q 507 1329 543 1301 q 476 1351 493 1340 q 439 1361 458 1361 q 392 1341 408 1361 q 369 1275 376 1321 z "},"Ȍ":{"ha":1054,"x_min":94,"x_max":960,"o":"m 94 490 q 145 758 94 646 q 292 930 196 869 q 526 990 389 990 q 757 930 660 990 q 907 758 854 869 q 960 492 960 646 q 906 224 960 336 q 756 50 853 111 q 526 -11 658 -11 q 294 50 390 -11 q 146 224 197 111 q 94 490 94 336 m 157 490 q 251 163 157 281 q 526 46 346 46 q 799 163 700 46 q 897 490 897 279 q 799 817 897 701 q 526 933 701 933 q 251 817 346 933 q 157 490 157 701 m 583 1063 l 429 1299 l 501 1299 l 621 1063 l 583 1063 m 432 1063 l 279 1299 l 351 1299 l 469 1063 l 432 1063 z "},"Ö":{"ha":1054,"x_min":94,"x_max":960,"o":"m 94 490 q 145 758 94 646 q 292 930 196 869 q 526 990 389 990 q 757 930 660 990 q 907 758 854 869 q 960 492 960 646 q 906 224 960 336 q 756 50 853 111 q 526 -11 658 -11 q 294 50 390 -11 q 146 224 197 111 q 94 490 94 336 m 157 490 q 251 163 157 281 q 526 46 346 46 q 799 163 700 46 q 897 490 897 279 q 799 817 897 701 q 526 933 701 933 q 251 817 346 933 q 157 490 157 701 m 596 1139 l 596 1222 l 681 1222 l 681 1139 l 596 1139 m 372 1139 l 372 1222 l 457 1222 l 457 1139 l 372 1139 z "},"Ȫ":{"ha":1054,"x_min":94,"x_max":960,"o":"m 94 490 q 145 758 94 646 q 292 930 196 869 q 526 990 389 990 q 757 930 660 990 q 907 758 854 869 q 960 492 960 646 q 906 224 960 336 q 756 50 853 111 q 526 -11 658 -11 q 294 50 390 -11 q 146 224 197 111 q 94 490 94 336 m 157 490 q 251 163 157 281 q 526 46 346 46 q 799 163 700 46 q 897 490 897 279 q 799 817 897 701 q 526 933 701 933 q 251 817 346 933 q 157 490 157 701 m 332 1288 l 332 1340 l 721 1340 l 721 1288 l 332 1288 m 372 1119 l 372 1203 l 457 1203 l 457 1119 l 372 1119 m 596 1119 l 596 1203 l 681 1203 l 681 1119 l 596 1119 z "},"Ȱ":{"ha":1054,"x_min":94,"x_max":960,"o":"m 94 490 q 145 758 94 646 q 292 930 196 869 q 526 990 389 990 q 757 930 660 990 q 907 758 854 869 q 960 492 960 646 q 906 224 960 336 q 756 50 853 111 q 526 -11 658 -11 q 294 50 390 -11 q 146 224 197 111 q 94 490 94 336 m 157 490 q 251 163 157 281 q 526 46 346 46 q 799 163 700 46 q 897 490 897 279 q 799 817 897 701 q 526 933 701 933 q 251 817 346 933 q 157 490 157 701 m 332 1288 l 332 1340 l 721 1340 l 721 1288 l 332 1288 m 485 1119 l 485 1203 l 569 1203 l 569 1119 l 485 1119 z "},"Ọ":{"ha":1054,"x_min":94,"x_max":960,"o":"m 94 490 q 145 758 94 646 q 292 930 196 869 q 526 990 389 990 q 757 930 660 990 q 907 758 854 869 q 960 492 960 646 q 906 224 960 336 q 756 50 853 111 q 526 -11 658 -11 q 294 50 390 -11 q 146 224 197 111 q 94 490 94 336 m 157 490 q 251 163 157 281 q 526 46 346 46 q 799 163 700 46 q 897 490 897 279 q 799 817 897 701 q 526 933 701 933 q 251 817 346 933 q 157 490 157 701 m 482 -239 l 482 -151 l 571 -151 l 571 -239 l 482 -239 z "},"Ò":{"ha":1054,"x_min":94,"x_max":960,"o":"m 94 490 q 145 758 94 646 q 292 930 196 869 q 526 990 389 990 q 757 930 660 990 q 907 758 854 869 q 960 492 960 646 q 906 224 960 336 q 756 50 853 111 q 526 -11 658 -11 q 294 50 390 -11 q 146 224 197 111 q 94 490 94 336 m 157 490 q 251 163 157 281 q 526 46 346 46 q 799 163 700 46 q 897 490 897 279 q 799 817 897 701 q 526 933 701 933 q 251 817 346 933 q 157 490 157 701 m 500 1063 l 311 1299 l 389 1299 l 553 1063 l 500 1063 z "},"Ỏ":{"ha":1054,"x_min":94,"x_max":960,"o":"m 94 490 q 145 758 94 646 q 292 930 196 869 q 526 990 389 990 q 757 930 660 990 q 907 758 854 869 q 960 492 960 646 q 906 224 960 336 q 756 50 853 111 q 526 -11 658 -11 q 294 50 390 -11 q 146 224 197 111 q 94 490 94 336 m 157 490 q 251 163 157 281 q 526 46 346 46 q 799 163 700 46 q 897 490 897 279 q 799 817 897 701 q 526 933 701 933 q 251 817 346 933 q 157 490 157 701 m 500 1063 l 500 1082 q 515 1131 500 1113 q 548 1163 529 1150 q 581 1189 567 1176 q 596 1219 596 1201 q 578 1246 596 1236 q 524 1256 561 1256 q 481 1251 503 1256 q 433 1233 460 1246 l 421 1279 q 529 1306 467 1306 q 620 1283 588 1306 q 653 1222 653 1260 q 638 1176 653 1193 q 603 1147 622 1158 q 568 1119 583 1135 q 553 1076 553 1104 l 553 1063 l 500 1063 z "},"Ơ":{"ha":1054,"x_min":94,"x_max":960,"o":"m 94 490 q 145 758 94 646 q 292 930 196 869 q 526 990 389 990 q 757 930 660 990 q 907 758 854 869 q 960 492 960 646 q 906 224 960 336 q 756 50 853 111 q 526 -11 658 -11 q 294 50 390 -11 q 146 224 197 111 q 94 490 94 336 m 157 490 q 251 163 157 281 q 526 46 346 46 q 799 163 700 46 q 897 490 897 279 q 799 817 897 701 q 526 933 701 933 q 251 817 346 933 q 157 490 157 701 m 679 926 l 604 985 q 674 981 644 982 q 735 979 704 979 q 838 998 803 979 q 888 1054 874 1017 q 901 1146 901 1092 l 901 1163 l 957 1163 l 957 1135 q 933 1023 957 1069 q 865 951 910 976 q 757 926 821 926 l 679 926 z "},"Ớ":{"ha":1054,"x_min":94,"x_max":960,"o":"m 94 490 q 145 758 94 646 q 292 930 196 869 q 526 990 389 990 q 757 930 660 990 q 907 758 854 869 q 960 492 960 646 q 906 224 960 336 q 756 50 853 111 q 526 -11 658 -11 q 294 50 390 -11 q 146 224 197 111 q 94 490 94 336 m 157 490 q 251 163 157 281 q 526 46 346 46 q 799 163 700 46 q 897 490 897 279 q 799 817 897 701 q 526 933 701 933 q 251 817 346 933 q 157 490 157 701 m 679 926 l 604 985 q 674 981 644 982 q 735 979 704 979 q 838 998 803 979 q 888 1054 874 1017 q 901 1146 901 1092 l 901 1163 l 957 1163 l 957 1135 q 933 1023 957 1069 q 865 951 910 976 q 757 926 821 926 l 679 926 m 511 1063 l 675 1299 l 753 1299 l 564 1063 l 511 1063 z "},"Ợ":{"ha":1054,"x_min":94,"x_max":960,"o":"m 94 490 q 145 758 94 646 q 292 930 196 869 q 526 990 389 990 q 757 930 660 990 q 907 758 854 869 q 960 492 960 646 q 906 224 960 336 q 756 50 853 111 q 526 -11 658 -11 q 294 50 390 -11 q 146 224 197 111 q 94 490 94 336 m 157 490 q 251 163 157 281 q 526 46 346 46 q 799 163 700 46 q 897 490 897 279 q 799 817 897 701 q 526 933 701 933 q 251 817 346 933 q 157 490 157 701 m 679 926 l 604 985 q 674 981 644 982 q 735 979 704 979 q 838 998 803 979 q 888 1054 874 1017 q 901 1146 901 1092 l 901 1163 l 957 1163 l 957 1135 q 933 1023 957 1069 q 865 951 910 976 q 757 926 821 926 l 679 926 m 494 -239 l 494 -151 l 583 -151 l 583 -239 l 494 -239 z "},"Ờ":{"ha":1054,"x_min":94,"x_max":960,"o":"m 94 490 q 145 758 94 646 q 292 930 196 869 q 526 990 389 990 q 757 930 660 990 q 907 758 854 869 q 960 492 960 646 q 906 224 960 336 q 756 50 853 111 q 526 -11 658 -11 q 294 50 390 -11 q 146 224 197 111 q 94 490 94 336 m 157 490 q 251 163 157 281 q 526 46 346 46 q 799 163 700 46 q 897 490 897 279 q 799 817 897 701 q 526 933 701 933 q 251 817 346 933 q 157 490 157 701 m 679 926 l 604 985 q 674 981 644 982 q 735 979 704 979 q 838 998 803 979 q 888 1054 874 1017 q 901 1146 901 1092 l 901 1163 l 957 1163 l 957 1135 q 933 1023 957 1069 q 865 951 910 976 q 757 926 821 926 l 679 926 m 511 1063 l 322 1299 l 400 1299 l 564 1063 l 511 1063 z "},"Ở":{"ha":1054,"x_min":94,"x_max":960,"o":"m 94 490 q 145 758 94 646 q 292 930 196 869 q 526 990 389 990 q 757 930 660 990 q 907 758 854 869 q 960 492 960 646 q 906 224 960 336 q 756 50 853 111 q 526 -11 658 -11 q 294 50 390 -11 q 146 224 197 111 q 94 490 94 336 m 157 490 q 251 163 157 281 q 526 46 346 46 q 799 163 700 46 q 897 490 897 279 q 799 817 897 701 q 526 933 701 933 q 251 817 346 933 q 157 490 157 701 m 679 926 l 604 985 q 674 981 644 982 q 735 979 704 979 q 838 998 803 979 q 888 1054 874 1017 q 901 1146 901 1092 l 901 1163 l 957 1163 l 957 1135 q 933 1023 957 1069 q 865 951 910 976 q 757 926 821 926 l 679 926 m 511 1063 l 511 1082 q 526 1131 511 1113 q 559 1163 540 1150 q 592 1189 578 1176 q 607 1219 607 1201 q 590 1246 607 1236 q 535 1256 572 1256 q 492 1251 514 1256 q 444 1233 471 1246 l 432 1279 q 540 1306 478 1306 q 631 1283 599 1306 q 664 1222 664 1260 q 649 1176 664 1193 q 614 1147 633 1158 q 579 1119 594 1135 q 564 1076 564 1104 l 564 1063 l 511 1063 z "},"Ỡ":{"ha":1054,"x_min":94,"x_max":960,"o":"m 94 490 q 145 758 94 646 q 292 930 196 869 q 526 990 389 990 q 757 930 660 990 q 907 758 854 869 q 960 492 960 646 q 906 224 960 336 q 756 50 853 111 q 526 -11 658 -11 q 294 50 390 -11 q 146 224 197 111 q 94 490 94 336 m 157 490 q 251 163 157 281 q 526 46 346 46 q 799 163 700 46 q 897 490 897 279 q 799 817 897 701 q 526 933 701 933 q 251 817 346 933 q 157 490 157 701 m 679 926 l 604 985 q 674 981 644 982 q 735 979 704 979 q 838 998 803 979 q 888 1054 874 1017 q 901 1146 901 1092 l 901 1163 l 957 1163 l 957 1135 q 933 1023 957 1069 q 865 951 910 976 q 757 926 821 926 l 679 926 m 324 1100 l 279 1103 q 328 1227 289 1183 q 428 1271 367 1271 q 490 1255 460 1271 q 554 1207 519 1239 q 608 1166 586 1179 q 651 1153 629 1153 q 717 1184 693 1153 q 751 1274 742 1215 l 796 1271 q 748 1147 786 1190 q 649 1103 710 1103 q 584 1120 614 1103 q 521 1167 554 1138 q 466 1208 489 1196 q 424 1221 443 1221 q 358 1190 382 1221 q 324 1100 333 1158 z "},"Ő":{"ha":1054,"x_min":94,"x_max":960,"o":"m 94 490 q 145 758 94 646 q 292 930 196 869 q 526 990 389 990 q 757 930 660 990 q 907 758 854 869 q 960 492 960 646 q 906 224 960 336 q 756 50 853 111 q 526 -11 658 -11 q 294 50 390 -11 q 146 224 197 111 q 94 490 94 336 m 157 490 q 251 163 157 281 q 526 46 346 46 q 799 163 700 46 q 897 490 897 279 q 799 817 897 701 q 526 933 701 933 q 251 817 346 933 q 157 490 157 701 m 432 1063 l 551 1299 l 624 1299 l 469 1063 l 432 1063 m 583 1063 l 701 1299 l 774 1299 l 621 1063 l 583 1063 z "},"Ȏ":{"ha":1054,"x_min":94,"x_max":960,"o":"m 94 490 q 145 758 94 646 q 292 930 196 869 q 526 990 389 990 q 757 930 660 990 q 907 758 854 869 q 960 492 960 646 q 906 224 960 336 q 756 50 853 111 q 526 -11 658 -11 q 294 50 390 -11 q 146 224 197 111 q 94 490 94 336 m 157 490 q 251 163 157 281 q 526 46 346 46 q 799 163 700 46 q 897 490 897 279 q 799 817 897 701 q 526 933 701 933 q 251 817 346 933 q 157 490 157 701 m 354 1056 l 308 1061 q 378 1231 318 1169 q 526 1293 438 1293 q 675 1231 615 1293 q 744 1061 735 1169 l 699 1056 q 647 1194 693 1146 q 526 1243 600 1243 q 407 1194 453 1243 q 354 1056 361 1146 z "},"Ō":{"ha":1054,"x_min":94,"x_max":960,"o":"m 94 490 q 145 758 94 646 q 292 930 196 869 q 526 990 389 990 q 757 930 660 990 q 907 758 854 869 q 960 492 960 646 q 906 224 960 336 q 756 50 853 111 q 526 -11 658 -11 q 294 50 390 -11 q 146 224 197 111 q 94 490 94 336 m 157 490 q 251 163 157 281 q 526 46 346 46 q 799 163 700 46 q 897 490 897 279 q 799 817 897 701 q 526 933 701 933 q 251 817 346 933 q 157 490 157 701 m 311 1142 l 311 1194 l 742 1194 l 742 1142 l 311 1142 z "},"Ṓ":{"ha":1054,"x_min":94,"x_max":960,"o":"m 94 490 q 145 758 94 646 q 292 930 196 869 q 526 990 389 990 q 757 930 660 990 q 907 758 854 869 q 960 492 960 646 q 906 224 960 336 q 756 50 853 111 q 526 -11 658 -11 q 294 50 390 -11 q 146 224 197 111 q 94 490 94 336 m 157 490 q 251 163 157 281 q 526 46 346 46 q 799 163 700 46 q 897 490 897 279 q 799 817 897 701 q 526 933 701 933 q 251 817 346 933 q 157 490 157 701 m 332 1106 l 332 1158 l 721 1158 l 721 1106 l 332 1106 m 501 1210 l 638 1418 l 713 1418 l 551 1210 l 501 1210 z "},"Ṑ":{"ha":1054,"x_min":94,"x_max":960,"o":"m 94 490 q 145 758 94 646 q 292 930 196 869 q 526 990 389 990 q 757 930 660 990 q 907 758 854 869 q 960 492 960 646 q 906 224 960 336 q 756 50 853 111 q 526 -11 658 -11 q 294 50 390 -11 q 146 224 197 111 q 94 490 94 336 m 157 490 q 251 163 157 281 q 526 46 346 46 q 799 163 700 46 q 897 490 897 279 q 799 817 897 701 q 526 933 701 933 q 251 817 346 933 q 157 490 157 701 m 501 1210 l 340 1418 l 415 1418 l 551 1210 l 501 1210 m 332 1106 l 332 1158 l 721 1158 l 721 1106 l 332 1106 z "},"Ǫ":{"ha":1054,"x_min":94,"x_max":960,"o":"m 94 490 q 145 758 94 646 q 292 930 196 869 q 526 990 389 990 q 757 930 660 990 q 907 758 854 869 q 960 492 960 646 q 906 224 960 336 q 756 50 853 111 q 526 -11 658 -11 q 294 50 390 -11 q 146 224 197 111 q 94 490 94 336 m 157 490 q 251 163 157 281 q 526 46 346 46 q 799 163 700 46 q 897 490 897 279 q 799 817 897 701 q 526 933 701 933 q 251 817 346 933 q 157 490 157 701 m 582 -264 q 488 -229 525 -264 q 451 -136 451 -194 q 484 -35 451 -83 q 576 43 517 13 l 606 0 q 562 -26 585 -8 q 522 -71 539 -44 q 506 -131 506 -97 q 530 -194 506 -174 q 589 -214 554 -214 q 625 -210 607 -214 q 663 -196 643 -206 l 681 -240 q 640 -257 667 -250 q 582 -264 614 -264 z "},"Ø":{"ha":1054,"x_min":94,"x_max":960,"o":"m 94 490 q 145 758 94 646 q 292 930 196 869 q 526 990 389 990 q 757 930 660 990 q 907 758 854 869 q 960 492 960 646 q 906 224 960 336 q 756 50 853 111 q 526 -11 658 -11 q 294 50 390 -11 q 146 224 197 111 q 94 490 94 336 m 157 490 q 251 163 157 281 q 526 46 346 46 q 799 163 700 46 q 897 490 897 279 q 799 817 897 701 q 526 933 701 933 q 251 817 346 933 q 157 490 157 701 m 307 60 l 243 -49 l 197 -24 l 261 86 l 279 117 l 729 889 l 747 919 l 811 1028 l 857 1003 l 793 893 l 775 863 l 325 90 l 307 60 z "},"Ǿ":{"ha":1054,"x_min":94,"x_max":960,"o":"m 94 490 q 145 758 94 646 q 292 930 196 869 q 526 990 389 990 q 757 930 660 990 q 907 758 854 869 q 960 492 960 646 q 906 224 960 336 q 756 50 853 111 q 526 -11 658 -11 q 294 50 390 -11 q 146 224 197 111 q 94 490 94 336 m 157 490 q 251 163 157 281 q 526 46 346 46 q 799 163 700 46 q 897 490 897 279 q 799 817 897 701 q 526 933 701 933 q 251 817 346 933 q 157 490 157 701 m 307 60 l 243 -49 l 197 -24 l 261 86 l 279 117 l 729 889 l 747 919 l 811 1028 l 857 1003 l 793 893 l 775 863 l 325 90 l 307 60 m 500 1063 l 664 1299 l 742 1299 l 553 1063 l 500 1063 z "},"Õ":{"ha":1054,"x_min":94,"x_max":960,"o":"m 94 490 q 145 758 94 646 q 292 930 196 869 q 526 990 389 990 q 757 930 660 990 q 907 758 854 869 q 960 492 960 646 q 906 224 960 336 q 756 50 853 111 q 526 -11 658 -11 q 294 50 390 -11 q 146 224 197 111 q 94 490 94 336 m 157 490 q 251 163 157 281 q 526 46 346 46 q 799 163 700 46 q 897 490 897 279 q 799 817 897 701 q 526 933 701 933 q 251 817 346 933 q 157 490 157 701 m 299 1100 l 254 1103 q 303 1227 264 1183 q 403 1271 342 1271 q 467 1256 435 1271 q 544 1207 499 1240 q 611 1165 589 1176 q 654 1153 633 1153 q 720 1184 696 1153 q 754 1274 744 1215 l 799 1271 q 751 1147 789 1190 q 651 1103 713 1103 q 588 1118 621 1103 q 504 1169 554 1133 q 442 1210 465 1199 q 399 1221 418 1221 q 333 1190 357 1221 q 299 1100 308 1158 z "},"Ṍ":{"ha":1054,"x_min":94,"x_max":960,"o":"m 94 490 q 145 758 94 646 q 292 930 196 869 q 526 990 389 990 q 757 930 660 990 q 907 758 854 869 q 960 492 960 646 q 906 224 960 336 q 756 50 853 111 q 526 -11 658 -11 q 294 50 390 -11 q 146 224 197 111 q 94 490 94 336 m 157 490 q 251 163 157 281 q 526 46 346 46 q 799 163 700 46 q 897 490 897 279 q 799 817 897 701 q 526 933 701 933 q 251 817 346 933 q 157 490 157 701 m 501 1210 l 638 1418 l 713 1418 l 551 1210 l 501 1210 m 615 1067 q 567 1078 590 1067 q 513 1114 544 1089 q 469 1144 485 1138 q 439 1150 453 1150 q 392 1130 408 1150 q 369 1064 376 1110 l 324 1067 q 361 1167 331 1133 q 439 1200 392 1200 q 483 1190 463 1200 q 535 1157 504 1181 q 582 1125 565 1133 q 614 1117 599 1117 q 661 1137 646 1117 q 683 1203 676 1157 l 729 1200 q 693 1100 724 1133 q 615 1067 663 1067 z "},"Ṏ":{"ha":1054,"x_min":94,"x_max":960,"o":"m 94 490 q 145 758 94 646 q 292 930 196 869 q 526 990 389 990 q 757 930 660 990 q 907 758 854 869 q 960 492 960 646 q 906 224 960 336 q 756 50 853 111 q 526 -11 658 -11 q 294 50 390 -11 q 146 224 197 111 q 94 490 94 336 m 157 490 q 251 163 157 281 q 526 46 346 46 q 799 163 700 46 q 897 490 897 279 q 799 817 897 701 q 526 933 701 933 q 251 817 346 933 q 157 490 157 701 m 615 1067 q 567 1078 590 1067 q 513 1114 544 1089 q 469 1144 485 1138 q 439 1150 453 1150 q 392 1130 408 1150 q 369 1064 376 1110 l 324 1067 q 361 1167 331 1133 q 439 1200 392 1200 q 483 1190 463 1200 q 535 1157 504 1181 q 582 1125 565 1133 q 614 1117 599 1117 q 661 1137 646 1117 q 683 1203 676 1157 l 729 1200 q 693 1100 724 1133 q 615 1067 663 1067 m 372 1264 l 372 1347 l 457 1347 l 457 1264 l 372 1264 m 596 1264 l 596 1347 l 681 1347 l 681 1264 l 596 1264 z "},"Ȭ":{"ha":1054,"x_min":94,"x_max":960,"o":"m 94 490 q 145 758 94 646 q 292 930 196 869 q 526 990 389 990 q 757 930 660 990 q 907 758 854 869 q 960 492 960 646 q 906 224 960 336 q 756 50 853 111 q 526 -11 658 -11 q 294 50 390 -11 q 146 224 197 111 q 94 490 94 336 m 157 490 q 251 163 157 281 q 526 46 346 46 q 799 163 700 46 q 897 490 897 279 q 799 817 897 701 q 526 933 701 933 q 251 817 346 933 q 157 490 157 701 m 332 1288 l 332 1340 l 721 1340 l 721 1288 l 332 1288 m 615 1067 q 567 1078 590 1067 q 513 1114 544 1089 q 469 1144 485 1138 q 439 1150 453 1150 q 392 1130 408 1150 q 369 1064 376 1110 l 324 1067 q 361 1167 331 1133 q 439 1200 392 1200 q 483 1190 463 1200 q 535 1157 504 1181 q 582 1125 565 1133 q 614 1117 599 1117 q 661 1137 646 1117 q 683 1203 676 1157 l 729 1200 q 693 1100 724 1133 q 615 1067 663 1067 z "},"Œ":{"ha":1468,"x_min":94,"x_max":1389,"o":"m 794 0 l 794 979 l 1389 979 l 1389 925 l 853 925 l 853 524 l 1361 524 l 1361 469 l 853 469 l 853 54 l 1389 54 l 1389 0 l 794 0 m 526 -11 q 294 50 390 -11 q 146 224 197 111 q 94 490 94 336 q 145 758 94 646 q 292 930 196 869 q 526 990 389 990 q 690 970 617 990 q 818 900 764 950 l 818 813 q 697 908 771 882 q 526 933 624 933 q 251 817 346 933 q 157 490 157 701 q 251 163 157 281 q 526 46 346 46 q 702 80 626 46 q 825 188 778 114 l 825 94 q 742 36 788 60 q 642 1 696 13 q 526 -11 588 -11 z "},"P":{"ha":886,"x_min":135,"x_max":813,"o":"m 135 0 l 135 979 l 500 979 q 731 908 649 979 q 813 710 813 838 q 731 512 813 583 q 500 440 649 440 l 193 440 l 193 0 l 135 0 m 193 494 l 499 494 q 686 551 622 494 q 750 710 750 607 q 686 869 750 813 q 499 925 622 925 l 193 925 l 193 494 z "},"Þ":{"ha":886,"x_min":135,"x_max":813,"o":"m 135 0 l 135 979 l 193 979 l 193 776 l 500 776 q 731 706 649 776 q 813 507 813 635 q 731 309 813 381 q 500 238 649 238 l 193 238 l 193 0 l 135 0 m 193 292 l 499 292 q 686 348 622 292 q 750 507 750 404 q 686 666 750 610 q 499 722 622 722 l 193 722 l 193 292 z "},"Q":{"ha":1054,"x_min":94,"x_max":960,"o":"m 793 -265 q 715 -194 756 -237 q 636 -101 674 -151 q 571 1 599 -50 l 635 17 q 726 -115 672 -56 q 835 -219 781 -175 l 793 -265 m 94 490 q 145 758 94 646 q 292 930 196 869 q 526 990 389 990 q 757 930 660 990 q 907 758 854 869 q 960 492 960 646 q 906 224 960 336 q 756 50 853 111 q 526 -11 658 -11 q 294 50 390 -11 q 146 224 197 111 q 94 490 94 336 m 157 490 q 251 163 157 281 q 526 46 346 46 q 799 163 700 46 q 897 490 897 279 q 799 817 897 701 q 526 933 701 933 q 251 817 346 933 q 157 490 157 701 z "},"R":{"ha":950,"x_min":135,"x_max":879,"o":"m 135 0 l 135 979 l 510 979 q 740 910 658 979 q 822 714 822 840 q 785 574 822 632 q 683 487 747 517 q 535 457 618 457 l 564 468 l 575 468 q 674 442 631 468 q 744 350 718 417 l 879 0 l 814 0 l 692 328 q 610 426 664 404 q 472 447 557 447 l 193 447 l 193 0 l 135 0 m 193 501 l 504 501 q 694 556 629 501 q 760 714 760 611 q 694 871 760 817 q 504 925 629 925 l 193 925 l 193 501 z "},"Ŕ":{"ha":950,"x_min":135,"x_max":879,"o":"m 135 0 l 135 979 l 510 979 q 740 910 658 979 q 822 714 822 840 q 785 574 822 632 q 683 487 747 517 q 535 457 618 457 l 564 468 l 575 468 q 674 442 631 468 q 744 350 718 417 l 879 0 l 814 0 l 692 328 q 610 426 664 404 q 472 447 557 447 l 193 447 l 193 0 l 135 0 m 193 501 l 504 501 q 694 556 629 501 q 760 714 760 611 q 694 871 760 817 q 504 925 629 925 l 193 925 l 193 501 m 443 1063 l 607 1299 l 685 1299 l 496 1063 l 443 1063 z "},"Ř":{"ha":950,"x_min":135,"x_max":879,"o":"m 135 0 l 135 979 l 510 979 q 740 910 658 979 q 822 714 822 840 q 785 574 822 632 q 683 487 747 517 q 535 457 618 457 l 564 468 l 575 468 q 674 442 631 468 q 744 350 718 417 l 879 0 l 814 0 l 692 328 q 610 426 664 404 q 472 447 557 447 l 193 447 l 193 0 l 135 0 m 193 501 l 504 501 q 694 556 629 501 q 760 714 760 611 q 694 871 760 817 q 504 925 629 925 l 193 925 l 193 501 m 436 1063 l 268 1299 l 319 1299 l 469 1115 l 619 1299 l 671 1299 l 503 1063 l 436 1063 z "},"Ŗ":{"ha":950,"x_min":135,"x_max":879,"o":"m 135 0 l 135 979 l 510 979 q 740 910 658 979 q 822 714 822 840 q 785 574 822 632 q 683 487 747 517 q 535 457 618 457 l 564 468 l 575 468 q 674 442 631 468 q 744 350 718 417 l 879 0 l 814 0 l 692 328 q 610 426 664 404 q 472 447 557 447 l 193 447 l 193 0 l 135 0 m 193 501 l 504 501 q 694 556 629 501 q 760 714 760 611 q 694 871 760 817 q 504 925 629 925 l 193 925 l 193 501 m 453 -360 l 417 -332 q 459 -265 449 -296 q 469 -200 469 -235 l 490 -210 l 421 -210 l 421 -119 l 518 -119 l 518 -194 q 501 -284 518 -242 q 453 -360 485 -326 z "},"Ȑ":{"ha":950,"x_min":135,"x_max":879,"o":"m 135 0 l 135 979 l 510 979 q 740 910 658 979 q 822 714 822 840 q 785 574 822 632 q 683 487 747 517 q 535 457 618 457 l 564 468 l 575 468 q 674 442 631 468 q 744 350 718 417 l 879 0 l 814 0 l 692 328 q 610 426 664 404 q 472 447 557 447 l 193 447 l 193 0 l 135 0 m 193 501 l 504 501 q 694 556 629 501 q 760 714 760 611 q 694 871 760 817 q 504 925 629 925 l 193 925 l 193 501 m 526 1063 l 372 1299 l 444 1299 l 564 1063 l 526 1063 m 375 1063 l 222 1299 l 294 1299 l 413 1063 l 375 1063 z "},"Ṛ":{"ha":950,"x_min":135,"x_max":879,"o":"m 135 0 l 135 979 l 510 979 q 740 910 658 979 q 822 714 822 840 q 785 574 822 632 q 683 487 747 517 q 535 457 618 457 l 564 468 l 575 468 q 674 442 631 468 q 744 350 718 417 l 879 0 l 814 0 l 692 328 q 610 426 664 404 q 472 447 557 447 l 193 447 l 193 0 l 135 0 m 193 501 l 504 501 q 694 556 629 501 q 760 714 760 611 q 694 871 760 817 q 504 925 629 925 l 193 925 l 193 501 m 425 -239 l 425 -151 l 514 -151 l 514 -239 l 425 -239 z "},"Ȓ":{"ha":950,"x_min":135,"x_max":879,"o":"m 135 0 l 135 979 l 510 979 q 740 910 658 979 q 822 714 822 840 q 785 574 822 632 q 683 487 747 517 q 535 457 618 457 l 564 468 l 575 468 q 674 442 631 468 q 744 350 718 417 l 879 0 l 814 0 l 692 328 q 610 426 664 404 q 472 447 557 447 l 193 447 l 193 0 l 135 0 m 193 501 l 504 501 q 694 556 629 501 q 760 714 760 611 q 694 871 760 817 q 504 925 629 925 l 193 925 l 193 501 m 297 1056 l 251 1061 q 321 1231 261 1169 q 469 1293 381 1293 q 618 1231 558 1293 q 688 1061 678 1169 l 642 1056 q 590 1194 636 1146 q 469 1243 543 1243 q 350 1194 396 1243 q 297 1056 304 1146 z "},"Ṟ":{"ha":950,"x_min":135,"x_max":879,"o":"m 135 0 l 135 979 l 510 979 q 740 910 658 979 q 822 714 822 840 q 785 574 822 632 q 683 487 747 517 q 535 457 618 457 l 564 468 l 575 468 q 674 442 631 468 q 744 350 718 417 l 879 0 l 814 0 l 692 328 q 610 426 664 404 q 472 447 557 447 l 193 447 l 193 0 l 135 0 m 193 501 l 504 501 q 694 556 629 501 q 760 714 760 611 q 694 871 760 817 q 504 925 629 925 l 193 925 l 193 501 m 275 -206 l 275 -153 l 664 -153 l 664 -206 l 275 -206 z "},"S":{"ha":839,"x_min":72,"x_max":771,"o":"m 435 -11 q 229 20 317 -11 q 72 111 142 51 l 101 161 q 200 95 153 121 q 303 58 247 69 q 433 46 360 46 q 640 101 569 46 q 710 247 710 156 q 660 367 710 325 q 492 432 611 408 l 354 460 q 154 547 219 488 q 89 713 89 607 q 132 858 89 796 q 251 956 175 921 q 429 990 328 990 q 617 958 532 990 q 763 863 701 926 l 735 813 q 594 906 667 878 q 429 933 522 933 q 226 874 301 933 q 150 713 150 814 q 199 585 150 631 q 356 518 247 540 l 494 490 q 705 406 639 461 q 771 249 771 351 q 731 113 771 172 q 615 22 690 54 q 435 -11 539 -11 z "},"Ś":{"ha":839,"x_min":72,"x_max":771,"o":"m 435 -11 q 229 20 317 -11 q 72 111 142 51 l 101 161 q 200 95 153 121 q 303 58 247 69 q 433 46 360 46 q 640 101 569 46 q 710 247 710 156 q 660 367 710 325 q 492 432 611 408 l 354 460 q 154 547 219 488 q 89 713 89 607 q 132 858 89 796 q 251 956 175 921 q 429 990 328 990 q 617 958 532 990 q 763 863 701 926 l 735 813 q 594 906 667 878 q 429 933 522 933 q 226 874 301 933 q 150 713 150 814 q 199 585 150 631 q 356 518 247 540 l 494 490 q 705 406 639 461 q 771 249 771 351 q 731 113 771 172 q 615 22 690 54 q 435 -11 539 -11 m 408 1063 l 572 1299 l 650 1299 l 461 1063 l 408 1063 z "},"Ṥ":{"ha":839,"x_min":72,"x_max":771,"o":"m 435 -11 q 229 20 317 -11 q 72 111 142 51 l 101 161 q 200 95 153 121 q 303 58 247 69 q 433 46 360 46 q 640 101 569 46 q 710 247 710 156 q 660 367 710 325 q 492 432 611 408 l 354 460 q 154 547 219 488 q 89 713 89 607 q 132 858 89 796 q 251 956 175 921 q 429 990 328 990 q 617 958 532 990 q 763 863 701 926 l 735 813 q 594 906 667 878 q 429 933 522 933 q 226 874 301 933 q 150 713 150 814 q 199 585 150 631 q 356 518 247 540 l 494 490 q 705 406 639 461 q 771 249 771 351 q 731 113 771 172 q 615 22 690 54 q 435 -11 539 -11 m 350 1314 l 350 1397 l 435 1397 l 435 1314 l 350 1314 m 408 1063 l 572 1299 l 650 1299 l 461 1063 l 408 1063 z "},"Š":{"ha":839,"x_min":72,"x_max":771,"o":"m 435 -11 q 229 20 317 -11 q 72 111 142 51 l 101 161 q 200 95 153 121 q 303 58 247 69 q 433 46 360 46 q 640 101 569 46 q 710 247 710 156 q 660 367 710 325 q 492 432 611 408 l 354 460 q 154 547 219 488 q 89 713 89 607 q 132 858 89 796 q 251 956 175 921 q 429 990 328 990 q 617 958 532 990 q 763 863 701 926 l 735 813 q 594 906 667 878 q 429 933 522 933 q 226 874 301 933 q 150 713 150 814 q 199 585 150 631 q 356 518 247 540 l 494 490 q 705 406 639 461 q 771 249 771 351 q 731 113 771 172 q 615 22 690 54 q 435 -11 539 -11 m 401 1063 l 233 1299 l 285 1299 l 435 1115 l 585 1299 l 636 1299 l 468 1063 l 401 1063 z "},"Ṧ":{"ha":839,"x_min":72,"x_max":771,"o":"m 435 -11 q 229 20 317 -11 q 72 111 142 51 l 101 161 q 200 95 153 121 q 303 58 247 69 q 433 46 360 46 q 640 101 569 46 q 710 247 710 156 q 660 367 710 325 q 492 432 611 408 l 354 460 q 154 547 219 488 q 89 713 89 607 q 132 858 89 796 q 251 956 175 921 q 429 990 328 990 q 617 958 532 990 q 763 863 701 926 l 735 813 q 594 906 667 878 q 429 933 522 933 q 226 874 301 933 q 150 713 150 814 q 199 585 150 631 q 356 518 247 540 l 494 490 q 705 406 639 461 q 771 249 771 351 q 731 113 771 172 q 615 22 690 54 q 435 -11 539 -11 m 401 1063 l 250 1285 l 299 1285 l 435 1117 l 571 1285 l 619 1285 l 468 1063 l 401 1063 m 393 1356 l 393 1439 l 478 1439 l 478 1356 l 393 1356 z "},"Ş":{"ha":839,"x_min":72,"x_max":771,"o":"m 435 -11 q 229 20 317 -11 q 72 111 142 51 l 101 161 q 200 95 153 121 q 303 58 247 69 q 433 46 360 46 q 640 101 569 46 q 710 247 710 156 q 660 367 710 325 q 492 432 611 408 l 354 460 q 154 547 219 488 q 89 713 89 607 q 132 858 89 796 q 251 956 175 921 q 429 990 328 990 q 617 958 532 990 q 763 863 701 926 l 735 813 q 594 906 667 878 q 429 933 522 933 q 226 874 301 933 q 150 713 150 814 q 199 585 150 631 q 356 518 247 540 l 494 490 q 705 406 639 461 q 771 249 771 351 q 731 113 771 172 q 615 22 690 54 q 435 -11 539 -11 m 450 -264 q 390 -257 418 -264 q 342 -239 361 -250 l 354 -192 q 401 -209 381 -204 q 456 -214 422 -214 q 517 -199 493 -214 q 542 -154 542 -183 q 488 -110 542 -110 q 456 -112 472 -110 q 417 -124 440 -115 l 396 -106 l 417 28 l 469 28 l 451 -76 l 426 -74 q 459 -67 443 -69 q 489 -64 475 -64 q 565 -87 533 -64 q 597 -154 597 -111 q 556 -233 597 -203 q 450 -264 515 -264 z "},"Ŝ":{"ha":839,"x_min":72,"x_max":771,"o":"m 435 -11 q 229 20 317 -11 q 72 111 142 51 l 101 161 q 200 95 153 121 q 303 58 247 69 q 433 46 360 46 q 640 101 569 46 q 710 247 710 156 q 660 367 710 325 q 492 432 611 408 l 354 460 q 154 547 219 488 q 89 713 89 607 q 132 858 89 796 q 251 956 175 921 q 429 990 328 990 q 617 958 532 990 q 763 863 701 926 l 735 813 q 594 906 667 878 q 429 933 522 933 q 226 874 301 933 q 150 713 150 814 q 199 585 150 631 q 356 518 247 540 l 494 490 q 705 406 639 461 q 771 249 771 351 q 731 113 771 172 q 615 22 690 54 q 435 -11 539 -11 m 233 1063 l 401 1299 l 468 1299 l 636 1063 l 585 1063 l 435 1246 l 285 1063 l 233 1063 z "},"Ș":{"ha":839,"x_min":72,"x_max":771,"o":"m 435 -11 q 229 20 317 -11 q 72 111 142 51 l 101 161 q 200 95 153 121 q 303 58 247 69 q 433 46 360 46 q 640 101 569 46 q 710 247 710 156 q 660 367 710 325 q 492 432 611 408 l 354 460 q 154 547 219 488 q 89 713 89 607 q 132 858 89 796 q 251 956 175 921 q 429 990 328 990 q 617 958 532 990 q 763 863 701 926 l 735 813 q 594 906 667 878 q 429 933 522 933 q 226 874 301 933 q 150 713 150 814 q 199 585 150 631 q 356 518 247 540 l 494 490 q 705 406 639 461 q 771 249 771 351 q 731 113 771 172 q 615 22 690 54 q 435 -11 539 -11 m 426 -360 l 390 -332 q 433 -265 422 -296 q 443 -200 443 -235 l 464 -210 l 394 -210 l 394 -119 l 492 -119 l 492 -194 q 475 -284 492 -242 q 426 -360 458 -326 z "},"Ṡ":{"ha":839,"x_min":72,"x_max":771,"o":"m 435 -11 q 229 20 317 -11 q 72 111 142 51 l 101 161 q 200 95 153 121 q 303 58 247 69 q 433 46 360 46 q 640 101 569 46 q 710 247 710 156 q 660 367 710 325 q 492 432 611 408 l 354 460 q 154 547 219 488 q 89 713 89 607 q 132 858 89 796 q 251 956 175 921 q 429 990 328 990 q 617 958 532 990 q 763 863 701 926 l 735 813 q 594 906 667 878 q 429 933 522 933 q 226 874 301 933 q 150 713 150 814 q 199 585 150 631 q 356 518 247 540 l 494 490 q 705 406 639 461 q 771 249 771 351 q 731 113 771 172 q 615 22 690 54 q 435 -11 539 -11 m 392 1136 l 392 1224 l 478 1224 l 478 1136 l 392 1136 z "},"Ṣ":{"ha":839,"x_min":72,"x_max":771,"o":"m 435 -11 q 229 20 317 -11 q 72 111 142 51 l 101 161 q 200 95 153 121 q 303 58 247 69 q 433 46 360 46 q 640 101 569 46 q 710 247 710 156 q 660 367 710 325 q 492 432 611 408 l 354 460 q 154 547 219 488 q 89 713 89 607 q 132 858 89 796 q 251 956 175 921 q 429 990 328 990 q 617 958 532 990 q 763 863 701 926 l 735 813 q 594 906 667 878 q 429 933 522 933 q 226 874 301 933 q 150 713 150 814 q 199 585 150 631 q 356 518 247 540 l 494 490 q 705 406 639 461 q 771 249 771 351 q 731 113 771 172 q 615 22 690 54 q 435 -11 539 -11 m 399 -239 l 399 -151 l 488 -151 l 488 -239 l 399 -239 z "},"Ṩ":{"ha":839,"x_min":72,"x_max":771,"o":"m 435 -11 q 229 20 317 -11 q 72 111 142 51 l 101 161 q 200 95 153 121 q 303 58 247 69 q 433 46 360 46 q 640 101 569 46 q 710 247 710 156 q 660 367 710 325 q 492 432 611 408 l 354 460 q 154 547 219 488 q 89 713 89 607 q 132 858 89 796 q 251 956 175 921 q 429 990 328 990 q 617 958 532 990 q 763 863 701 926 l 735 813 q 594 906 667 878 q 429 933 522 933 q 226 874 301 933 q 150 713 150 814 q 199 585 150 631 q 356 518 247 540 l 494 490 q 705 406 639 461 q 771 249 771 351 q 731 113 771 172 q 615 22 690 54 q 435 -11 539 -11 m 399 -239 l 399 -151 l 488 -151 l 488 -239 l 399 -239 m 392 1136 l 392 1224 l 478 1224 l 478 1136 l 392 1136 z "},"ẞ":{"ha":949,"x_min":135,"x_max":850,"o":"m 543 -11 q 390 14 456 -11 q 274 86 324 39 l 306 135 q 415 65 363 85 q 543 44 468 44 q 725 101 663 44 q 788 258 788 157 q 724 412 788 358 q 528 465 660 465 l 329 465 l 329 519 l 489 519 q 668 573 603 519 q 733 728 733 626 q 672 882 733 829 q 479 935 610 935 q 258 863 324 935 q 193 649 193 792 l 193 0 l 135 0 l 135 653 q 218 905 135 819 q 478 990 301 990 q 713 922 631 990 q 794 735 794 854 q 742 575 794 642 q 604 490 690 508 l 604 510 q 783 431 717 496 q 850 258 850 367 q 769 58 850 128 q 543 -11 689 -11 z "},"Ə":{"ha":1022,"x_min":94,"x_max":928,"o":"m 504 -11 q 267 50 357 -11 q 135 222 176 111 q 94 483 94 333 l 94 522 l 872 522 l 872 468 l 139 468 l 156 490 q 189 248 156 347 q 299 97 222 149 q 503 46 375 46 q 772 163 679 46 q 865 492 865 281 q 767 818 865 703 q 482 933 668 933 q 357 921 411 933 q 256 881 303 908 q 161 808 210 853 l 132 857 q 282 957 197 924 q 485 990 367 990 q 724 931 625 990 q 875 759 822 871 q 928 492 928 647 q 878 223 928 336 q 733 49 828 110 q 504 -11 639 -11 z "},"T":{"ha":819,"x_min":14,"x_max":800,"o":"m 378 0 l 378 925 l 14 925 l 14 979 l 800 979 l 800 925 l 436 925 l 436 0 l 378 0 z "},"Ŧ":{"ha":819,"x_min":14,"x_max":800,"o":"m 378 0 l 378 925 l 14 925 l 14 979 l 800 979 l 800 925 l 436 925 l 436 0 l 378 0 m 178 472 l 178 524 l 642 524 l 642 472 l 178 472 z "},"Ť":{"ha":819,"x_min":14,"x_max":800,"o":"m 378 0 l 378 925 l 14 925 l 14 979 l 800 979 l 800 925 l 436 925 l 436 0 l 378 0 m 376 1063 l 208 1299 l 260 1299 l 410 1115 l 560 1299 l 611 1299 l 443 1063 l 376 1063 z "},"Ţ":{"ha":819,"x_min":14,"x_max":800,"o":"m 378 0 l 378 925 l 14 925 l 14 979 l 800 979 l 800 925 l 436 925 l 436 0 l 378 0 m 417 -264 q 356 -257 385 -264 q 308 -239 328 -250 l 321 -192 q 368 -209 347 -204 q 422 -214 389 -214 q 484 -199 460 -214 q 508 -154 508 -183 q 454 -110 508 -110 q 423 -112 439 -110 q 383 -124 407 -115 l 363 -106 l 383 28 l 436 28 l 418 -76 l 393 -74 q 426 -67 410 -69 q 456 -64 442 -64 q 532 -87 500 -64 q 564 -154 564 -111 q 523 -233 564 -203 q 417 -264 482 -264 z "},"Ț":{"ha":819,"x_min":14,"x_max":800,"o":"m 378 0 l 378 925 l 14 925 l 14 979 l 800 979 l 800 925 l 436 925 l 436 0 l 378 0 m 393 -360 l 357 -332 q 399 -265 389 -296 q 410 -200 410 -235 l 431 -210 l 361 -210 l 361 -119 l 458 -119 l 458 -194 q 442 -284 458 -242 q 393 -360 425 -326 z "},"Ṭ":{"ha":819,"x_min":14,"x_max":800,"o":"m 378 0 l 378 925 l 14 925 l 14 979 l 800 979 l 800 925 l 436 925 l 436 0 l 378 0 m 365 -239 l 365 -151 l 454 -151 l 454 -239 l 365 -239 z "},"Ṯ":{"ha":819,"x_min":14,"x_max":800,"o":"m 378 0 l 378 925 l 14 925 l 14 979 l 800 979 l 800 925 l 436 925 l 436 0 l 378 0 m 215 -206 l 215 -153 l 604 -153 l 604 -206 l 215 -206 z "},"U":{"ha":1003,"x_min":128,"x_max":875,"o":"m 501 -11 q 219 88 311 -11 q 128 375 128 186 l 128 979 l 186 979 l 186 383 q 262 130 186 214 q 501 46 338 46 q 736 130 656 46 q 817 383 817 214 l 817 979 l 875 979 l 875 375 q 779 88 875 186 q 501 -11 683 -11 z "},"Ú":{"ha":1003,"x_min":128,"x_max":875,"o":"m 501 -11 q 219 88 311 -11 q 128 375 128 186 l 128 979 l 186 979 l 186 383 q 262 130 186 214 q 501 46 338 46 q 736 130 656 46 q 817 383 817 214 l 817 979 l 875 979 l 875 375 q 779 88 875 186 q 501 -11 683 -11 m 475 1063 l 639 1299 l 717 1299 l 528 1063 l 475 1063 z "},"Ŭ":{"ha":1003,"x_min":128,"x_max":875,"o":"m 501 -11 q 219 88 311 -11 q 128 375 128 186 l 128 979 l 186 979 l 186 383 q 262 130 186 214 q 501 46 338 46 q 736 130 656 46 q 817 383 817 214 l 817 979 l 875 979 l 875 375 q 779 88 875 186 q 501 -11 683 -11 m 501 1056 q 353 1117 413 1056 q 283 1288 293 1179 l 329 1293 q 382 1155 336 1204 q 501 1106 428 1106 q 622 1155 575 1106 q 674 1293 668 1204 l 719 1288 q 650 1117 710 1179 q 501 1056 590 1056 z "},"Û":{"ha":1003,"x_min":128,"x_max":875,"o":"m 501 -11 q 219 88 311 -11 q 128 375 128 186 l 128 979 l 186 979 l 186 383 q 262 130 186 214 q 501 46 338 46 q 736 130 656 46 q 817 383 817 214 l 817 979 l 875 979 l 875 375 q 779 88 875 186 q 501 -11 683 -11 m 300 1063 l 468 1299 l 535 1299 l 703 1063 l 651 1063 l 501 1246 l 351 1063 l 300 1063 z "},"Ȕ":{"ha":1003,"x_min":128,"x_max":875,"o":"m 501 -11 q 219 88 311 -11 q 128 375 128 186 l 128 979 l 186 979 l 186 383 q 262 130 186 214 q 501 46 338 46 q 736 130 656 46 q 817 383 817 214 l 817 979 l 875 979 l 875 375 q 779 88 875 186 q 501 -11 683 -11 m 558 1063 l 404 1299 l 476 1299 l 596 1063 l 558 1063 m 407 1063 l 254 1299 l 326 1299 l 444 1063 l 407 1063 z "},"Ü":{"ha":1003,"x_min":128,"x_max":875,"o":"m 501 -11 q 219 88 311 -11 q 128 375 128 186 l 128 979 l 186 979 l 186 383 q 262 130 186 214 q 501 46 338 46 q 736 130 656 46 q 817 383 817 214 l 817 979 l 875 979 l 875 375 q 779 88 875 186 q 501 -11 683 -11 m 571 1139 l 571 1222 l 656 1222 l 656 1139 l 571 1139 m 347 1139 l 347 1222 l 432 1222 l 432 1139 l 347 1139 z "},"Ụ":{"ha":1003,"x_min":128,"x_max":875,"o":"m 501 -11 q 219 88 311 -11 q 128 375 128 186 l 128 979 l 186 979 l 186 383 q 262 130 186 214 q 501 46 338 46 q 736 130 656 46 q 817 383 817 214 l 817 979 l 875 979 l 875 375 q 779 88 875 186 q 501 -11 683 -11 m 457 -239 l 457 -151 l 546 -151 l 546 -239 l 457 -239 z "},"Ù":{"ha":1003,"x_min":128,"x_max":875,"o":"m 501 -11 q 219 88 311 -11 q 128 375 128 186 l 128 979 l 186 979 l 186 383 q 262 130 186 214 q 501 46 338 46 q 736 130 656 46 q 817 383 817 214 l 817 979 l 875 979 l 875 375 q 779 88 875 186 q 501 -11 683 -11 m 475 1063 l 286 1299 l 364 1299 l 528 1063 l 475 1063 z "},"Ủ":{"ha":1003,"x_min":128,"x_max":875,"o":"m 501 -11 q 219 88 311 -11 q 128 375 128 186 l 128 979 l 186 979 l 186 383 q 262 130 186 214 q 501 46 338 46 q 736 130 656 46 q 817 383 817 214 l 817 979 l 875 979 l 875 375 q 779 88 875 186 q 501 -11 683 -11 m 475 1063 l 475 1082 q 490 1131 475 1113 q 523 1163 504 1150 q 556 1189 542 1176 q 571 1219 571 1201 q 553 1246 571 1236 q 499 1256 536 1256 q 456 1251 478 1256 q 408 1233 435 1246 l 396 1279 q 504 1306 442 1306 q 595 1283 563 1306 q 628 1222 628 1260 q 613 1176 628 1193 q 578 1147 597 1158 q 543 1119 558 1135 q 528 1076 528 1104 l 528 1063 l 475 1063 z "},"Ư":{"ha":1003,"x_min":128,"x_max":1050,"o":"m 501 -11 q 219 88 311 -11 q 128 375 128 186 l 128 979 l 186 979 l 186 383 q 262 130 186 214 q 501 46 338 46 q 736 130 656 46 q 817 383 817 214 l 817 979 l 875 979 l 875 375 q 779 88 875 186 q 501 -11 683 -11 m 849 926 l 828 944 l 828 979 q 931 999 896 981 q 981 1056 967 1018 q 994 1146 994 1093 l 994 1163 l 1050 1163 l 1050 1135 q 1027 1024 1050 1069 q 959 954 1004 979 q 849 926 914 929 z "},"Ứ":{"ha":1003,"x_min":128,"x_max":1050,"o":"m 501 -11 q 219 88 311 -11 q 128 375 128 186 l 128 979 l 186 979 l 186 383 q 262 130 186 214 q 501 46 338 46 q 736 130 656 46 q 817 383 817 214 l 817 979 l 875 979 l 875 375 q 779 88 875 186 q 501 -11 683 -11 m 849 926 l 828 944 l 828 979 q 931 999 896 981 q 981 1056 967 1018 q 994 1146 994 1093 l 994 1163 l 1050 1163 l 1050 1135 q 1027 1024 1050 1069 q 959 954 1004 979 q 849 926 914 929 m 490 1063 l 654 1299 l 732 1299 l 543 1063 l 490 1063 z "},"Ự":{"ha":1003,"x_min":128,"x_max":1050,"o":"m 501 -11 q 219 88 311 -11 q 128 375 128 186 l 128 979 l 186 979 l 186 383 q 262 130 186 214 q 501 46 338 46 q 736 130 656 46 q 817 383 817 214 l 817 979 l 875 979 l 875 375 q 779 88 875 186 q 501 -11 683 -11 m 849 926 l 828 944 l 828 979 q 931 999 896 981 q 981 1056 967 1018 q 994 1146 994 1093 l 994 1163 l 1050 1163 l 1050 1135 q 1027 1024 1050 1069 q 959 954 1004 979 q 849 926 914 929 m 472 -239 l 472 -151 l 561 -151 l 561 -239 l 472 -239 z "},"Ừ":{"ha":1003,"x_min":128,"x_max":1050,"o":"m 501 -11 q 219 88 311 -11 q 128 375 128 186 l 128 979 l 186 979 l 186 383 q 262 130 186 214 q 501 46 338 46 q 736 130 656 46 q 817 383 817 214 l 817 979 l 875 979 l 875 375 q 779 88 875 186 q 501 -11 683 -11 m 849 926 l 828 944 l 828 979 q 931 999 896 981 q 981 1056 967 1018 q 994 1146 994 1093 l 994 1163 l 1050 1163 l 1050 1135 q 1027 1024 1050 1069 q 959 954 1004 979 q 849 926 914 929 m 490 1063 l 301 1299 l 379 1299 l 543 1063 l 490 1063 z "},"Ử":{"ha":1003,"x_min":128,"x_max":1050,"o":"m 501 -11 q 219 88 311 -11 q 128 375 128 186 l 128 979 l 186 979 l 186 383 q 262 130 186 214 q 501 46 338 46 q 736 130 656 46 q 817 383 817 214 l 817 979 l 875 979 l 875 375 q 779 88 875 186 q 501 -11 683 -11 m 849 926 l 828 944 l 828 979 q 931 999 896 981 q 981 1056 967 1018 q 994 1146 994 1093 l 994 1163 l 1050 1163 l 1050 1135 q 1027 1024 1050 1069 q 959 954 1004 979 q 849 926 914 929 m 490 1063 l 490 1082 q 505 1131 490 1113 q 538 1163 519 1150 q 572 1189 557 1176 q 586 1219 586 1201 q 569 1246 586 1236 q 514 1256 551 1256 q 472 1251 493 1256 q 424 1233 450 1246 l 411 1279 q 519 1306 457 1306 q 610 1283 578 1306 q 643 1222 643 1260 q 628 1176 643 1193 q 593 1147 613 1158 q 558 1119 574 1135 q 543 1076 543 1104 l 543 1063 l 490 1063 z "},"Ữ":{"ha":1003,"x_min":128,"x_max":1050,"o":"m 501 -11 q 219 88 311 -11 q 128 375 128 186 l 128 979 l 186 979 l 186 383 q 262 130 186 214 q 501 46 338 46 q 736 130 656 46 q 817 383 817 214 l 817 979 l 875 979 l 875 375 q 779 88 875 186 q 501 -11 683 -11 m 849 926 l 828 944 l 828 979 q 931 999 896 981 q 981 1056 967 1018 q 994 1146 994 1093 l 994 1163 l 1050 1163 l 1050 1135 q 1027 1024 1050 1069 q 959 954 1004 979 q 849 926 914 929 m 303 1100 l 258 1103 q 307 1227 268 1183 q 407 1271 346 1271 q 469 1255 439 1271 q 533 1207 499 1239 q 587 1166 565 1179 q 631 1153 608 1153 q 697 1184 672 1153 q 731 1274 721 1215 l 775 1271 q 727 1147 765 1190 q 628 1103 689 1103 q 563 1120 593 1103 q 500 1167 533 1138 q 445 1208 468 1196 q 403 1221 422 1221 q 337 1190 361 1221 q 303 1100 313 1158 z "},"Ű":{"ha":1003,"x_min":128,"x_max":875,"o":"m 501 -11 q 219 88 311 -11 q 128 375 128 186 l 128 979 l 186 979 l 186 383 q 262 130 186 214 q 501 46 338 46 q 736 130 656 46 q 817 383 817 214 l 817 979 l 875 979 l 875 375 q 779 88 875 186 q 501 -11 683 -11 m 407 1063 l 526 1299 l 599 1299 l 444 1063 l 407 1063 m 558 1063 l 676 1299 l 749 1299 l 596 1063 l 558 1063 z "},"Ȗ":{"ha":1003,"x_min":128,"x_max":875,"o":"m 501 -11 q 219 88 311 -11 q 128 375 128 186 l 128 979 l 186 979 l 186 383 q 262 130 186 214 q 501 46 338 46 q 736 130 656 46 q 817 383 817 214 l 817 979 l 875 979 l 875 375 q 779 88 875 186 q 501 -11 683 -11 m 329 1056 l 283 1061 q 353 1231 293 1169 q 501 1293 413 1293 q 650 1231 590 1293 q 719 1061 710 1169 l 674 1056 q 622 1194 668 1146 q 501 1243 575 1243 q 382 1194 428 1243 q 329 1056 336 1146 z "},"Ū":{"ha":1003,"x_min":128,"x_max":875,"o":"m 501 -11 q 219 88 311 -11 q 128 375 128 186 l 128 979 l 186 979 l 186 383 q 262 130 186 214 q 501 46 338 46 q 736 130 656 46 q 817 383 817 214 l 817 979 l 875 979 l 875 375 q 779 88 875 186 q 501 -11 683 -11 m 286 1142 l 286 1194 l 717 1194 l 717 1142 l 286 1142 z "},"Ṻ":{"ha":1003,"x_min":128,"x_max":875,"o":"m 501 -11 q 219 88 311 -11 q 128 375 128 186 l 128 979 l 186 979 l 186 383 q 262 130 186 214 q 501 46 338 46 q 736 130 656 46 q 817 383 817 214 l 817 979 l 875 979 l 875 375 q 779 88 875 186 q 501 -11 683 -11 m 307 1119 l 307 1172 l 696 1172 l 696 1119 l 307 1119 m 347 1257 l 347 1340 l 432 1340 l 432 1257 l 347 1257 m 571 1257 l 571 1340 l 656 1340 l 656 1257 l 571 1257 z "},"Ų":{"ha":1003,"x_min":128,"x_max":875,"o":"m 501 -11 q 219 88 311 -11 q 128 375 128 186 l 128 979 l 186 979 l 186 383 q 262 130 186 214 q 501 46 338 46 q 736 130 656 46 q 817 383 817 214 l 817 979 l 875 979 l 875 375 q 779 88 875 186 q 501 -11 683 -11 m 572 -264 q 478 -229 515 -264 q 442 -136 442 -194 q 474 -35 442 -83 q 567 43 507 13 l 596 0 q 552 -26 575 -8 q 513 -71 529 -44 q 496 -131 496 -97 q 520 -194 496 -174 q 579 -214 544 -214 q 615 -210 597 -214 q 653 -196 633 -206 l 671 -240 q 631 -257 657 -250 q 572 -264 604 -264 z "},"Ů":{"ha":1003,"x_min":128,"x_max":875,"o":"m 501 -11 q 219 88 311 -11 q 128 375 128 186 l 128 979 l 186 979 l 186 383 q 262 130 186 214 q 501 46 338 46 q 736 130 656 46 q 817 383 817 214 l 817 979 l 875 979 l 875 375 q 779 88 875 186 q 501 -11 683 -11 m 501 1056 q 423 1076 458 1056 q 367 1132 388 1097 q 346 1208 346 1167 q 367 1285 346 1251 q 423 1340 388 1319 q 501 1361 458 1361 q 581 1340 546 1361 q 636 1285 615 1319 q 657 1208 657 1251 q 636 1132 657 1167 q 581 1076 615 1097 q 501 1056 546 1056 m 501 1100 q 580 1131 550 1100 q 610 1208 610 1163 q 580 1285 610 1254 q 501 1317 550 1317 q 424 1285 454 1317 q 393 1208 393 1254 q 424 1131 393 1163 q 501 1100 454 1100 z "},"Ũ":{"ha":1003,"x_min":128,"x_max":875,"o":"m 501 -11 q 219 88 311 -11 q 128 375 128 186 l 128 979 l 186 979 l 186 383 q 262 130 186 214 q 501 46 338 46 q 736 130 656 46 q 817 383 817 214 l 817 979 l 875 979 l 875 375 q 779 88 875 186 q 501 -11 683 -11 m 274 1100 l 229 1103 q 278 1227 239 1183 q 378 1271 317 1271 q 442 1256 410 1271 q 519 1207 474 1240 q 586 1165 564 1176 q 629 1153 608 1153 q 695 1184 671 1153 q 729 1274 719 1215 l 774 1271 q 726 1147 764 1190 q 626 1103 688 1103 q 563 1118 596 1103 q 479 1169 529 1133 q 417 1210 440 1199 q 374 1221 393 1221 q 308 1190 332 1221 q 274 1100 283 1158 z "},"Ṹ":{"ha":1003,"x_min":128,"x_max":875,"o":"m 501 -11 q 219 88 311 -11 q 128 375 128 186 l 128 979 l 186 979 l 186 383 q 262 130 186 214 q 501 46 338 46 q 736 130 656 46 q 817 383 817 214 l 817 979 l 875 979 l 875 375 q 779 88 875 186 q 501 -11 683 -11 m 476 1210 l 613 1418 l 688 1418 l 526 1210 l 476 1210 m 590 1067 q 542 1078 565 1067 q 488 1114 519 1089 q 444 1144 460 1138 q 414 1150 428 1150 q 367 1130 383 1150 q 344 1064 351 1110 l 299 1067 q 336 1167 306 1133 q 414 1200 367 1200 q 458 1190 438 1200 q 510 1157 479 1181 q 557 1125 540 1133 q 589 1117 574 1117 q 636 1137 621 1117 q 658 1203 651 1157 l 704 1200 q 668 1100 699 1133 q 590 1067 638 1067 z "},"V":{"ha":940,"x_min":17,"x_max":924,"o":"m 436 0 l 17 979 l 79 979 l 485 33 l 454 33 l 863 979 l 924 979 l 500 0 l 436 0 z "},"W":{"ha":1533,"x_min":58,"x_max":1475,"o":"m 396 0 l 58 979 l 121 979 l 447 26 l 406 26 l 743 979 l 797 979 l 1121 26 l 1083 26 l 1415 979 l 1475 979 l 1133 0 l 1072 0 l 757 933 l 785 933 l 454 0 l 396 0 z "},"Ẃ":{"ha":1533,"x_min":58,"x_max":1475,"o":"m 396 0 l 58 979 l 121 979 l 447 26 l 406 26 l 743 979 l 797 979 l 1121 26 l 1083 26 l 1415 979 l 1475 979 l 1133 0 l 1072 0 l 757 933 l 785 933 l 454 0 l 396 0 m 740 1063 l 904 1299 l 982 1299 l 793 1063 l 740 1063 z "},"Ŵ":{"ha":1533,"x_min":58,"x_max":1475,"o":"m 396 0 l 58 979 l 121 979 l 447 26 l 406 26 l 743 979 l 797 979 l 1121 26 l 1083 26 l 1415 979 l 1475 979 l 1133 0 l 1072 0 l 757 933 l 785 933 l 454 0 l 396 0 m 565 1063 l 733 1299 l 800 1299 l 968 1063 l 917 1063 l 767 1246 l 617 1063 l 565 1063 z "},"Ẅ":{"ha":1533,"x_min":58,"x_max":1475,"o":"m 396 0 l 58 979 l 121 979 l 447 26 l 406 26 l 743 979 l 797 979 l 1121 26 l 1083 26 l 1415 979 l 1475 979 l 1133 0 l 1072 0 l 757 933 l 785 933 l 454 0 l 396 0 m 836 1139 l 836 1222 l 921 1222 l 921 1139 l 836 1139 m 613 1139 l 613 1222 l 697 1222 l 697 1139 l 613 1139 z "},"Ẁ":{"ha":1533,"x_min":58,"x_max":1475,"o":"m 396 0 l 58 979 l 121 979 l 447 26 l 406 26 l 743 979 l 797 979 l 1121 26 l 1083 26 l 1415 979 l 1475 979 l 1133 0 l 1072 0 l 757 933 l 785 933 l 454 0 l 396 0 m 740 1063 l 551 1299 l 629 1299 l 793 1063 l 740 1063 z "},"X":{"ha":883,"x_min":33,"x_max":850,"o":"m 33 0 l 414 510 l 414 496 l 54 979 l 125 979 l 453 538 l 436 538 l 758 979 l 829 979 l 471 496 l 471 510 l 850 0 l 779 0 l 428 475 l 457 475 l 104 0 l 33 0 z "},"Y":{"ha":815,"x_min":1,"x_max":814,"o":"m 378 0 l 378 453 l 393 400 l 1 979 l 69 979 l 419 454 l 399 454 l 749 979 l 814 979 l 422 400 l 436 453 l 436 0 l 378 0 z "},"Ý":{"ha":815,"x_min":1,"x_max":814,"o":"m 378 0 l 378 453 l 393 400 l 1 979 l 69 979 l 419 454 l 399 454 l 749 979 l 814 979 l 422 400 l 436 453 l 436 0 l 378 0 m 382 1063 l 546 1299 l 624 1299 l 435 1063 l 382 1063 z "},"Ŷ":{"ha":815,"x_min":1,"x_max":814,"o":"m 378 0 l 378 453 l 393 400 l 1 979 l 69 979 l 419 454 l 399 454 l 749 979 l 814 979 l 422 400 l 436 453 l 436 0 l 378 0 m 207 1063 l 375 1299 l 442 1299 l 610 1063 l 558 1063 l 408 1246 l 258 1063 l 207 1063 z "},"Ÿ":{"ha":815,"x_min":1,"x_max":814,"o":"m 378 0 l 378 453 l 393 400 l 1 979 l 69 979 l 419 454 l 399 454 l 749 979 l 814 979 l 422 400 l 436 453 l 436 0 l 378 0 m 478 1139 l 478 1222 l 563 1222 l 563 1139 l 478 1139 m 254 1139 l 254 1222 l 339 1222 l 339 1139 l 254 1139 z "},"Ẏ":{"ha":815,"x_min":1,"x_max":814,"o":"m 378 0 l 378 453 l 393 400 l 1 979 l 69 979 l 419 454 l 399 454 l 749 979 l 814 979 l 422 400 l 436 453 l 436 0 l 378 0 m 365 1136 l 365 1224 l 451 1224 l 451 1136 l 365 1136 z "},"Ỵ":{"ha":815,"x_min":1,"x_max":814,"o":"m 378 0 l 378 453 l 393 400 l 1 979 l 69 979 l 419 454 l 399 454 l 749 979 l 814 979 l 422 400 l 436 453 l 436 0 l 378 0 m 364 -239 l 364 -151 l 453 -151 l 453 -239 l 364 -239 z "},"Ỳ":{"ha":815,"x_min":1,"x_max":814,"o":"m 378 0 l 378 453 l 393 400 l 1 979 l 69 979 l 419 454 l 399 454 l 749 979 l 814 979 l 422 400 l 436 453 l 436 0 l 378 0 m 382 1063 l 193 1299 l 271 1299 l 435 1063 l 382 1063 z "},"Ƴ":{"ha":815,"x_min":1,"x_max":914,"o":"m 378 0 l 378 508 l 393 456 l 1 979 l 69 979 l 419 510 l 400 510 l 675 893 q 753 967 711 944 q 844 989 796 989 q 881 987 867 989 q 914 978 896 985 l 914 926 q 883 935 900 932 q 847 938 867 938 q 778 922 810 938 q 718 865 747 906 l 422 456 l 436 508 l 436 0 l 378 0 z "},"Ỷ":{"ha":815,"x_min":1,"x_max":814,"o":"m 378 0 l 378 453 l 393 400 l 1 979 l 69 979 l 419 454 l 399 454 l 749 979 l 814 979 l 422 400 l 436 453 l 436 0 l 378 0 m 382 1063 l 382 1082 q 397 1131 382 1113 q 430 1163 411 1150 q 463 1189 449 1176 q 478 1219 478 1201 q 460 1246 478 1236 q 406 1256 443 1256 q 363 1251 385 1256 q 315 1233 342 1246 l 303 1279 q 411 1306 349 1306 q 502 1283 469 1306 q 535 1222 535 1260 q 519 1176 535 1193 q 485 1147 504 1158 q 450 1119 465 1135 q 435 1076 435 1104 l 435 1063 l 382 1063 z "},"Ȳ":{"ha":815,"x_min":1,"x_max":814,"o":"m 378 0 l 378 453 l 393 400 l 1 979 l 69 979 l 419 454 l 399 454 l 749 979 l 814 979 l 422 400 l 436 453 l 436 0 l 378 0 m 193 1142 l 193 1194 l 624 1194 l 624 1142 l 193 1142 z "},"Ỹ":{"ha":815,"x_min":1,"x_max":814,"o":"m 378 0 l 378 453 l 393 400 l 1 979 l 69 979 l 419 454 l 399 454 l 749 979 l 814 979 l 422 400 l 436 453 l 436 0 l 378 0 m 181 1100 l 136 1103 q 185 1227 146 1183 q 285 1271 224 1271 q 349 1256 317 1271 q 426 1207 381 1240 q 493 1165 471 1176 q 536 1153 515 1153 q 602 1184 578 1153 q 636 1274 626 1215 l 681 1271 q 633 1147 671 1190 q 533 1103 594 1103 q 469 1118 503 1103 q 386 1169 436 1133 q 324 1210 347 1199 q 281 1221 300 1221 q 215 1190 239 1221 q 181 1100 190 1158 z "},"Z":{"ha":813,"x_min":58,"x_max":758,"o":"m 58 0 l 58 43 l 689 957 l 689 925 l 58 925 l 58 979 l 744 979 l 744 936 l 113 22 l 113 54 l 758 54 l 758 0 l 58 0 z "},"Ź":{"ha":813,"x_min":58,"x_max":758,"o":"m 58 0 l 58 43 l 689 957 l 689 925 l 58 925 l 58 979 l 744 979 l 744 936 l 113 22 l 113 54 l 758 54 l 758 0 l 58 0 m 382 1063 l 546 1299 l 624 1299 l 435 1063 l 382 1063 z "},"Ž":{"ha":813,"x_min":58,"x_max":758,"o":"m 58 0 l 58 43 l 689 957 l 689 925 l 58 925 l 58 979 l 744 979 l 744 936 l 113 22 l 113 54 l 758 54 l 758 0 l 58 0 m 375 1063 l 207 1299 l 258 1299 l 408 1115 l 558 1299 l 610 1299 l 442 1063 l 375 1063 z "},"Ż":{"ha":813,"x_min":58,"x_max":758,"o":"m 58 0 l 58 43 l 689 957 l 689 925 l 58 925 l 58 979 l 744 979 l 744 936 l 113 22 l 113 54 l 758 54 l 758 0 l 58 0 m 365 1136 l 365 1224 l 451 1224 l 451 1136 l 365 1136 z "},"Ẓ":{"ha":813,"x_min":58,"x_max":758,"o":"m 58 0 l 58 43 l 689 957 l 689 925 l 58 925 l 58 979 l 744 979 l 744 936 l 113 22 l 113 54 l 758 54 l 758 0 l 58 0 m 364 -239 l 364 -151 l 453 -151 l 453 -239 l 364 -239 z "},"a":{"ha":810,"x_min":75,"x_max":699,"o":"m 383 -11 q 219 32 289 -11 q 113 156 150 75 q 75 347 75 236 q 113 540 75 460 q 221 663 151 619 q 383 706 290 706 q 552 654 482 706 q 644 513 622 603 l 628 513 l 642 694 l 699 694 q 691 618 694 656 q 688 544 688 581 l 688 0 l 629 0 l 629 182 l 644 182 q 551 40 622 92 q 383 -11 481 -11 m 383 43 q 564 122 497 43 q 631 347 631 200 q 564 573 631 494 q 383 651 497 651 q 202 573 269 651 q 135 347 135 494 q 202 122 135 200 q 383 43 269 43 z "},"á":{"ha":810,"x_min":75,"x_max":699,"o":"m 383 -11 q 219 32 289 -11 q 113 156 150 75 q 75 347 75 236 q 113 540 75 460 q 221 663 151 619 q 383 706 290 706 q 552 654 482 706 q 644 513 622 603 l 628 513 l 642 694 l 699 694 q 691 618 694 656 q 688 544 688 581 l 688 0 l 629 0 l 629 182 l 644 182 q 551 40 622 92 q 383 -11 481 -11 m 383 43 q 564 122 497 43 q 631 347 631 200 q 564 573 631 494 q 383 651 497 651 q 202 573 269 651 q 135 347 135 494 q 202 122 135 200 q 383 43 269 43 m 371 763 l 515 1040 l 590 1040 l 421 763 l 371 763 z "},"ă":{"ha":810,"x_min":75,"x_max":699,"o":"m 383 -11 q 219 32 289 -11 q 113 156 150 75 q 75 347 75 236 q 113 540 75 460 q 221 663 151 619 q 383 706 290 706 q 552 654 482 706 q 644 513 622 603 l 628 513 l 642 694 l 699 694 q 691 618 694 656 q 688 544 688 581 l 688 0 l 629 0 l 629 182 l 644 182 q 551 40 622 92 q 383 -11 481 -11 m 383 43 q 564 122 497 43 q 631 347 631 200 q 564 573 631 494 q 383 651 497 651 q 202 573 269 651 q 135 347 135 494 q 202 122 135 200 q 383 43 269 43 m 396 760 q 295 791 339 760 q 226 881 251 822 q 196 1019 201 939 l 242 1025 q 288 866 247 922 q 396 810 328 810 q 505 866 465 810 q 550 1025 544 922 l 596 1019 q 566 881 592 939 q 497 791 540 822 q 396 760 454 760 z "},"ắ":{"ha":810,"x_min":75,"x_max":699,"o":"m 383 -11 q 219 32 289 -11 q 113 156 150 75 q 75 347 75 236 q 113 540 75 460 q 221 663 151 619 q 383 706 290 706 q 552 654 482 706 q 644 513 622 603 l 628 513 l 642 694 l 699 694 q 691 618 694 656 q 688 544 688 581 l 688 0 l 629 0 l 629 182 l 644 182 q 551 40 622 92 q 383 -11 481 -11 m 383 43 q 564 122 497 43 q 631 347 631 200 q 564 573 631 494 q 383 651 497 651 q 202 573 269 651 q 135 347 135 494 q 202 122 135 200 q 383 43 269 43 m 396 760 q 256 814 310 760 q 196 964 203 868 l 242 969 q 288 851 247 893 q 396 810 328 810 q 505 851 465 810 q 550 969 544 893 l 596 964 q 535 814 589 868 q 396 760 482 760 m 363 903 l 499 1111 l 574 1111 l 413 903 l 363 903 z "},"ặ":{"ha":810,"x_min":75,"x_max":699,"o":"m 383 -11 q 219 32 289 -11 q 113 156 150 75 q 75 347 75 236 q 113 540 75 460 q 221 663 151 619 q 383 706 290 706 q 552 654 482 706 q 644 513 622 603 l 628 513 l 642 694 l 699 694 q 691 618 694 656 q 688 544 688 581 l 688 0 l 629 0 l 629 182 l 644 182 q 551 40 622 92 q 383 -11 481 -11 m 383 43 q 564 122 497 43 q 631 347 631 200 q 564 573 631 494 q 383 651 497 651 q 202 573 269 651 q 135 347 135 494 q 202 122 135 200 q 383 43 269 43 m 351 -239 l 351 -151 l 440 -151 l 440 -239 l 351 -239 m 396 760 q 295 791 339 760 q 226 881 251 822 q 196 1019 201 939 l 242 1025 q 288 866 247 922 q 396 810 328 810 q 505 866 465 810 q 550 1025 544 922 l 596 1019 q 566 881 592 939 q 497 791 540 822 q 396 760 454 760 z "},"ằ":{"ha":810,"x_min":75,"x_max":699,"o":"m 383 -11 q 219 32 289 -11 q 113 156 150 75 q 75 347 75 236 q 113 540 75 460 q 221 663 151 619 q 383 706 290 706 q 552 654 482 706 q 644 513 622 603 l 628 513 l 642 694 l 699 694 q 691 618 694 656 q 688 544 688 581 l 688 0 l 629 0 l 629 182 l 644 182 q 551 40 622 92 q 383 -11 481 -11 m 383 43 q 564 122 497 43 q 631 347 631 200 q 564 573 631 494 q 383 651 497 651 q 202 573 269 651 q 135 347 135 494 q 202 122 135 200 q 383 43 269 43 m 396 760 q 256 814 310 760 q 196 964 203 868 l 242 969 q 288 851 247 893 q 396 810 328 810 q 505 851 465 810 q 550 969 544 893 l 596 964 q 535 814 589 868 q 396 760 482 760 m 379 903 l 218 1111 l 293 1111 l 429 903 l 379 903 z "},"ẳ":{"ha":810,"x_min":75,"x_max":699,"o":"m 383 -11 q 219 32 289 -11 q 113 156 150 75 q 75 347 75 236 q 113 540 75 460 q 221 663 151 619 q 383 706 290 706 q 552 654 482 706 q 644 513 622 603 l 628 513 l 642 694 l 699 694 q 691 618 694 656 q 688 544 688 581 l 688 0 l 629 0 l 629 182 l 644 182 q 551 40 622 92 q 383 -11 481 -11 m 383 43 q 564 122 497 43 q 631 347 631 200 q 564 573 631 494 q 383 651 497 651 q 202 573 269 651 q 135 347 135 494 q 202 122 135 200 q 383 43 269 43 m 396 760 q 256 814 310 760 q 196 964 203 868 l 242 969 q 288 851 247 893 q 396 810 328 810 q 505 851 465 810 q 550 969 544 893 l 596 964 q 535 815 589 869 q 396 760 482 760 m 372 903 q 386 956 372 936 q 419 987 400 975 q 451 1010 438 999 q 465 1040 465 1022 q 448 1065 465 1058 q 393 1071 431 1071 q 353 1067 375 1071 q 306 1054 332 1064 l 293 1094 q 342 1111 315 1106 q 399 1117 369 1117 q 488 1097 457 1117 q 519 1044 519 1078 q 504 999 519 1015 q 469 972 489 983 q 435 944 450 960 q 419 903 419 929 l 372 903 z "},"ẵ":{"ha":810,"x_min":75,"x_max":699,"o":"m 383 -11 q 219 32 289 -11 q 113 156 150 75 q 75 347 75 236 q 113 540 75 460 q 221 663 151 619 q 383 706 290 706 q 552 654 482 706 q 644 513 622 603 l 628 513 l 642 694 l 699 694 q 691 618 694 656 q 688 544 688 581 l 688 0 l 629 0 l 629 182 l 644 182 q 551 40 622 92 q 383 -11 481 -11 m 383 43 q 564 122 497 43 q 631 347 631 200 q 564 573 631 494 q 383 651 497 651 q 202 573 269 651 q 135 347 135 494 q 202 122 135 200 q 383 43 269 43 m 396 760 q 267 799 319 760 q 196 908 214 839 l 242 914 q 297 837 257 864 q 396 810 338 810 q 494 837 454 810 q 550 914 535 864 l 596 908 q 525 800 578 840 q 396 760 472 760 m 239 979 l 193 982 q 231 1082 200 1049 q 308 1115 261 1115 q 357 1104 335 1115 q 408 1069 379 1093 q 454 1039 439 1046 q 483 1032 469 1032 q 531 1052 515 1032 q 553 1118 546 1072 l 599 1115 q 563 1015 593 1049 q 485 982 533 982 q 435 994 458 982 q 376 1033 413 1006 q 345 1055 363 1044 q 308 1065 328 1065 q 262 1045 278 1065 q 239 979 246 1025 z "},"ǎ":{"ha":810,"x_min":75,"x_max":699,"o":"m 383 -11 q 219 32 289 -11 q 113 156 150 75 q 75 347 75 236 q 113 540 75 460 q 221 663 151 619 q 383 706 290 706 q 552 654 482 706 q 644 513 622 603 l 628 513 l 642 694 l 699 694 q 691 618 694 656 q 688 544 688 581 l 688 0 l 629 0 l 629 182 l 644 182 q 551 40 622 92 q 383 -11 481 -11 m 383 43 q 564 122 497 43 q 631 347 631 200 q 564 573 631 494 q 383 651 497 651 q 202 573 269 651 q 135 347 135 494 q 202 122 135 200 q 383 43 269 43 m 363 763 l 211 1040 l 260 1040 l 396 817 l 532 1040 l 581 1040 l 429 763 l 363 763 z "},"â":{"ha":810,"x_min":75,"x_max":699,"o":"m 383 -11 q 219 32 289 -11 q 113 156 150 75 q 75 347 75 236 q 113 540 75 460 q 221 663 151 619 q 383 706 290 706 q 552 654 482 706 q 644 513 622 603 l 628 513 l 642 694 l 699 694 q 691 618 694 656 q 688 544 688 581 l 688 0 l 629 0 l 629 182 l 644 182 q 551 40 622 92 q 383 -11 481 -11 m 383 43 q 564 122 497 43 q 631 347 631 200 q 564 573 631 494 q 383 651 497 651 q 202 573 269 651 q 135 347 135 494 q 202 122 135 200 q 383 43 269 43 m 211 763 l 363 1040 l 429 1040 l 581 763 l 532 763 l 396 986 l 260 763 l 211 763 z "},"ấ":{"ha":810,"x_min":75,"x_max":706,"o":"m 383 -11 q 219 32 289 -11 q 113 156 150 75 q 75 347 75 236 q 113 540 75 460 q 221 663 151 619 q 383 706 290 706 q 552 654 482 706 q 644 513 622 603 l 628 513 l 642 694 l 699 694 q 691 618 694 656 q 688 544 688 581 l 688 0 l 629 0 l 629 182 l 644 182 q 551 40 622 92 q 383 -11 481 -11 m 383 43 q 564 122 497 43 q 631 347 631 200 q 564 573 631 494 q 383 651 497 651 q 202 573 269 651 q 135 347 135 494 q 202 122 135 200 q 383 43 269 43 m 211 763 l 363 985 l 429 985 l 581 763 l 533 763 l 396 933 l 258 763 l 211 763 m 508 903 l 631 1111 l 706 1111 l 558 903 l 508 903 z "},"ậ":{"ha":810,"x_min":75,"x_max":699,"o":"m 383 -11 q 219 32 289 -11 q 113 156 150 75 q 75 347 75 236 q 113 540 75 460 q 221 663 151 619 q 383 706 290 706 q 552 654 482 706 q 644 513 622 603 l 628 513 l 642 694 l 699 694 q 691 618 694 656 q 688 544 688 581 l 688 0 l 629 0 l 629 182 l 644 182 q 551 40 622 92 q 383 -11 481 -11 m 383 43 q 564 122 497 43 q 631 347 631 200 q 564 573 631 494 q 383 651 497 651 q 202 573 269 651 q 135 347 135 494 q 202 122 135 200 q 383 43 269 43 m 351 -239 l 351 -151 l 440 -151 l 440 -239 l 351 -239 m 211 763 l 363 1040 l 429 1040 l 581 763 l 532 763 l 396 986 l 260 763 l 211 763 z "},"ầ":{"ha":810,"x_min":75,"x_max":699,"o":"m 383 -11 q 219 32 289 -11 q 113 156 150 75 q 75 347 75 236 q 113 540 75 460 q 221 663 151 619 q 383 706 290 706 q 552 654 482 706 q 644 513 622 603 l 628 513 l 642 694 l 699 694 q 691 618 694 656 q 688 544 688 581 l 688 0 l 629 0 l 629 182 l 644 182 q 551 40 622 92 q 383 -11 481 -11 m 383 43 q 564 122 497 43 q 631 347 631 200 q 564 573 631 494 q 383 651 497 651 q 202 573 269 651 q 135 347 135 494 q 202 122 135 200 q 383 43 269 43 m 211 763 l 363 985 l 429 985 l 581 763 l 533 763 l 396 933 l 258 763 l 211 763 m 565 903 l 418 1111 l 493 1111 l 615 903 l 565 903 z "},"ẩ":{"ha":810,"x_min":75,"x_max":699,"o":"m 383 -11 q 219 32 289 -11 q 113 156 150 75 q 75 347 75 236 q 113 540 75 460 q 221 663 151 619 q 383 706 290 706 q 552 654 482 706 q 644 513 622 603 l 628 513 l 642 694 l 699 694 q 691 618 694 656 q 688 544 688 581 l 688 0 l 629 0 l 629 182 l 644 182 q 551 40 622 92 q 383 -11 481 -11 m 383 43 q 564 122 497 43 q 631 347 631 200 q 564 573 631 494 q 383 651 497 651 q 202 573 269 651 q 135 347 135 494 q 202 122 135 200 q 383 43 269 43 m 211 763 l 363 985 l 429 985 l 581 763 l 533 763 l 396 933 l 258 763 l 211 763 m 525 903 q 539 956 525 936 q 572 987 553 975 q 604 1010 590 999 q 618 1040 618 1022 q 601 1065 618 1058 q 546 1071 583 1071 q 506 1067 528 1071 q 458 1054 485 1064 l 446 1094 q 495 1111 468 1106 q 551 1117 522 1117 q 641 1097 610 1117 q 672 1044 672 1078 q 657 999 672 1015 q 622 972 642 983 q 588 944 603 960 q 572 903 572 929 l 525 903 z "},"ẫ":{"ha":810,"x_min":75,"x_max":699,"o":"m 383 -11 q 219 32 289 -11 q 113 156 150 75 q 75 347 75 236 q 113 540 75 460 q 221 663 151 619 q 383 706 290 706 q 552 654 482 706 q 644 513 622 603 l 628 513 l 642 694 l 699 694 q 691 618 694 656 q 688 544 688 581 l 688 0 l 629 0 l 629 182 l 644 182 q 551 40 622 92 q 383 -11 481 -11 m 383 43 q 564 122 497 43 q 631 347 631 200 q 564 573 631 494 q 383 651 497 651 q 202 573 269 651 q 135 347 135 494 q 202 122 135 200 q 383 43 269 43 m 211 763 l 363 943 l 429 943 l 581 763 l 533 763 l 396 896 l 258 763 l 211 763 m 239 979 l 193 982 q 231 1082 200 1049 q 308 1115 261 1115 q 357 1104 335 1115 q 408 1069 379 1093 q 454 1039 439 1046 q 483 1032 469 1032 q 531 1052 515 1032 q 553 1118 546 1072 l 599 1115 q 563 1015 593 1049 q 485 982 533 982 q 435 994 458 982 q 376 1033 413 1006 q 345 1055 363 1044 q 308 1065 328 1065 q 262 1045 278 1065 q 239 979 246 1025 z "},"ȁ":{"ha":810,"x_min":75,"x_max":699,"o":"m 383 -11 q 219 32 289 -11 q 113 156 150 75 q 75 347 75 236 q 113 540 75 460 q 221 663 151 619 q 383 706 290 706 q 552 654 482 706 q 644 513 622 603 l 628 513 l 642 694 l 699 694 q 691 618 694 656 q 688 544 688 581 l 688 0 l 629 0 l 629 182 l 644 182 q 551 40 622 92 q 383 -11 481 -11 m 383 43 q 564 122 497 43 q 631 347 631 200 q 564 573 631 494 q 383 651 497 651 q 202 573 269 651 q 135 347 135 494 q 202 122 135 200 q 383 43 269 43 m 453 763 l 343 1040 l 410 1040 l 490 763 l 453 763 m 301 763 l 192 1040 l 258 1040 l 339 763 l 301 763 z "},"ä":{"ha":810,"x_min":75,"x_max":699,"o":"m 383 -11 q 219 32 289 -11 q 113 156 150 75 q 75 347 75 236 q 113 540 75 460 q 221 663 151 619 q 383 706 290 706 q 552 654 482 706 q 644 513 622 603 l 628 513 l 642 694 l 699 694 q 691 618 694 656 q 688 544 688 581 l 688 0 l 629 0 l 629 182 l 644 182 q 551 40 622 92 q 383 -11 481 -11 m 383 43 q 564 122 497 43 q 631 347 631 200 q 564 573 631 494 q 383 651 497 651 q 202 573 269 651 q 135 347 135 494 q 202 122 135 200 q 383 43 269 43 m 465 861 l 465 944 l 550 944 l 550 861 l 465 861 m 242 861 l 242 944 l 326 944 l 326 861 l 242 861 z "},"ȧ":{"ha":810,"x_min":75,"x_max":699,"o":"m 383 -11 q 219 32 289 -11 q 113 156 150 75 q 75 347 75 236 q 113 540 75 460 q 221 663 151 619 q 383 706 290 706 q 552 654 482 706 q 644 513 622 603 l 628 513 l 642 694 l 699 694 q 691 618 694 656 q 688 544 688 581 l 688 0 l 629 0 l 629 182 l 644 182 q 551 40 622 92 q 383 -11 481 -11 m 383 43 q 564 122 497 43 q 631 347 631 200 q 564 573 631 494 q 383 651 497 651 q 202 573 269 651 q 135 347 135 494 q 202 122 135 200 q 383 43 269 43 m 351 860 l 351 947 l 440 947 l 440 860 l 351 860 z "},"ạ":{"ha":810,"x_min":75,"x_max":699,"o":"m 383 -11 q 219 32 289 -11 q 113 156 150 75 q 75 347 75 236 q 113 540 75 460 q 221 663 151 619 q 383 706 290 706 q 552 654 482 706 q 644 513 622 603 l 628 513 l 642 694 l 699 694 q 691 618 694 656 q 688 544 688 581 l 688 0 l 629 0 l 629 182 l 644 182 q 551 40 622 92 q 383 -11 481 -11 m 383 43 q 564 122 497 43 q 631 347 631 200 q 564 573 631 494 q 383 651 497 651 q 202 573 269 651 q 135 347 135 494 q 202 122 135 200 q 383 43 269 43 m 351 -239 l 351 -151 l 440 -151 l 440 -239 l 351 -239 z "},"à":{"ha":810,"x_min":75,"x_max":699,"o":"m 383 -11 q 219 32 289 -11 q 113 156 150 75 q 75 347 75 236 q 113 540 75 460 q 221 663 151 619 q 383 706 290 706 q 552 654 482 706 q 644 513 622 603 l 628 513 l 642 694 l 699 694 q 691 618 694 656 q 688 544 688 581 l 688 0 l 629 0 l 629 182 l 644 182 q 551 40 622 92 q 383 -11 481 -11 m 383 43 q 564 122 497 43 q 631 347 631 200 q 564 573 631 494 q 383 651 497 651 q 202 573 269 651 q 135 347 135 494 q 202 122 135 200 q 383 43 269 43 m 371 763 l 201 1040 l 276 1040 l 421 763 l 371 763 z "},"ả":{"ha":810,"x_min":75,"x_max":699,"o":"m 383 -11 q 219 32 289 -11 q 113 156 150 75 q 75 347 75 236 q 113 540 75 460 q 221 663 151 619 q 383 706 290 706 q 552 654 482 706 q 644 513 622 603 l 628 513 l 642 694 l 699 694 q 691 618 694 656 q 688 544 688 581 l 688 0 l 629 0 l 629 182 l 644 182 q 551 40 622 92 q 383 -11 481 -11 m 383 43 q 564 122 497 43 q 631 347 631 200 q 564 573 631 494 q 383 651 497 651 q 202 573 269 651 q 135 347 135 494 q 202 122 135 200 q 383 43 269 43 m 371 763 l 371 790 q 385 847 371 825 q 418 884 400 868 q 451 916 436 900 q 465 954 465 932 q 448 986 465 975 q 393 997 431 997 q 351 992 372 997 q 303 975 329 988 l 290 1019 q 340 1041 313 1035 q 399 1047 368 1047 q 490 1024 457 1047 q 522 957 522 1000 q 507 902 522 922 q 472 867 492 882 q 436 833 451 851 q 421 783 421 814 l 421 763 l 371 763 z "},"ȃ":{"ha":810,"x_min":75,"x_max":699,"o":"m 383 -11 q 219 32 289 -11 q 113 156 150 75 q 75 347 75 236 q 113 540 75 460 q 221 663 151 619 q 383 706 290 706 q 552 654 482 706 q 644 513 622 603 l 628 513 l 642 694 l 699 694 q 691 618 694 656 q 688 544 688 581 l 688 0 l 629 0 l 629 182 l 644 182 q 551 40 622 92 q 383 -11 481 -11 m 383 43 q 564 122 497 43 q 631 347 631 200 q 564 573 631 494 q 383 651 497 651 q 202 573 269 651 q 135 347 135 494 q 202 122 135 200 q 383 43 269 43 m 242 751 l 196 757 q 226 897 201 839 q 295 985 251 954 q 396 1017 339 1017 q 497 985 454 1017 q 566 897 540 954 q 596 757 592 839 l 550 751 q 505 910 544 854 q 396 967 465 967 q 288 910 328 967 q 242 751 247 854 z "},"ā":{"ha":810,"x_min":75,"x_max":699,"o":"m 383 -11 q 219 32 289 -11 q 113 156 150 75 q 75 347 75 236 q 113 540 75 460 q 221 663 151 619 q 383 706 290 706 q 552 654 482 706 q 644 513 622 603 l 628 513 l 642 694 l 699 694 q 691 618 694 656 q 688 544 688 581 l 688 0 l 629 0 l 629 182 l 644 182 q 551 40 622 92 q 383 -11 481 -11 m 383 43 q 564 122 497 43 q 631 347 631 200 q 564 573 631 494 q 383 651 497 651 q 202 573 269 651 q 135 347 135 494 q 202 122 135 200 q 383 43 269 43 m 201 879 l 201 932 l 590 932 l 590 879 l 201 879 z "},"ą":{"ha":810,"x_min":75,"x_max":763,"o":"m 383 -11 q 219 32 289 -11 q 113 156 150 75 q 75 347 75 236 q 113 540 75 460 q 221 663 151 619 q 383 706 290 706 q 552 654 482 706 q 644 513 622 603 l 628 513 l 642 694 l 699 694 q 691 618 694 656 q 688 544 688 581 l 688 0 l 629 0 l 629 182 l 644 182 q 551 40 622 92 q 383 -11 481 -11 m 383 43 q 564 122 497 43 q 631 347 631 200 q 564 573 631 494 q 383 651 497 651 q 202 573 269 651 q 135 347 135 494 q 202 122 135 200 q 383 43 269 43 m 664 -264 q 570 -229 607 -264 q 533 -136 533 -194 q 566 -35 533 -83 q 658 43 599 13 l 688 0 q 644 -26 667 -8 q 604 -71 621 -44 q 588 -131 588 -97 q 612 -194 588 -174 q 671 -214 636 -214 q 707 -210 689 -214 q 744 -196 725 -206 l 763 -240 q 722 -257 749 -250 q 664 -264 696 -264 z "},"å":{"ha":810,"x_min":75,"x_max":699,"o":"m 383 -11 q 219 32 289 -11 q 113 156 150 75 q 75 347 75 236 q 113 540 75 460 q 221 663 151 619 q 383 706 290 706 q 552 654 482 706 q 644 513 622 603 l 628 513 l 642 694 l 699 694 q 691 618 694 656 q 688 544 688 581 l 688 0 l 629 0 l 629 182 l 644 182 q 551 40 622 92 q 383 -11 481 -11 m 383 43 q 564 122 497 43 q 631 347 631 200 q 564 573 631 494 q 383 651 497 651 q 202 573 269 651 q 135 347 135 494 q 202 122 135 200 q 383 43 269 43 m 396 760 q 317 781 353 760 q 261 836 282 801 q 240 913 240 871 q 261 990 240 956 q 317 1044 282 1024 q 396 1065 353 1065 q 475 1044 440 1065 q 531 990 510 1024 q 551 913 551 956 q 531 836 551 871 q 475 781 510 801 q 396 760 440 760 m 396 804 q 474 835 444 804 q 504 913 504 867 q 474 990 504 958 q 396 1021 444 1021 q 318 990 349 1021 q 288 913 288 958 q 318 835 288 867 q 396 804 349 804 z "},"ǻ":{"ha":810,"x_min":75,"x_max":699,"o":"m 383 -11 q 219 32 289 -11 q 113 156 150 75 q 75 347 75 236 q 113 540 75 460 q 221 663 151 619 q 383 706 290 706 q 552 654 482 706 q 644 513 622 603 l 628 513 l 642 694 l 699 694 q 691 618 694 656 q 688 544 688 581 l 688 0 l 629 0 l 629 182 l 644 182 q 551 40 622 92 q 383 -11 481 -11 m 383 43 q 564 122 497 43 q 631 347 631 200 q 564 573 631 494 q 383 651 497 651 q 202 573 269 651 q 135 347 135 494 q 202 122 135 200 q 383 43 269 43 m 396 760 q 317 781 353 760 q 261 836 282 801 q 240 913 240 871 q 261 990 240 956 q 317 1044 282 1024 q 396 1065 353 1065 q 447 1058 424 1065 q 490 1035 471 1050 l 596 1133 l 681 1133 l 524 1001 q 551 913 551 963 q 531 836 551 871 q 475 781 510 801 q 396 760 440 760 m 396 804 q 474 835 444 804 q 504 913 504 867 q 474 990 504 958 q 396 1021 444 1021 q 318 990 349 1021 q 288 913 288 958 q 318 835 288 867 q 396 804 349 804 z "},"ã":{"ha":810,"x_min":75,"x_max":699,"o":"m 383 -11 q 219 32 289 -11 q 113 156 150 75 q 75 347 75 236 q 113 540 75 460 q 221 663 151 619 q 383 706 290 706 q 552 654 482 706 q 644 513 622 603 l 628 513 l 642 694 l 699 694 q 691 618 694 656 q 688 544 688 581 l 688 0 l 629 0 l 629 182 l 644 182 q 551 40 622 92 q 383 -11 481 -11 m 383 43 q 564 122 497 43 q 631 347 631 200 q 564 573 631 494 q 383 651 497 651 q 202 573 269 651 q 135 347 135 494 q 202 122 135 200 q 383 43 269 43 m 207 826 l 163 829 q 206 953 171 910 q 296 997 240 997 q 351 981 325 997 q 410 932 376 965 q 459 890 440 901 q 496 879 478 879 q 585 1000 568 879 l 629 997 q 586 873 621 917 q 497 829 551 829 q 444 845 469 829 q 382 894 418 861 q 333 935 351 924 q 296 947 315 947 q 238 916 260 947 q 207 826 215 885 z "},"æ":{"ha":1236,"x_min":100,"x_max":1165,"o":"m 343 -11 q 219 16 274 -11 q 132 90 164 43 q 100 196 100 136 q 138 324 100 278 q 265 388 175 369 q 513 407 356 407 l 585 407 l 585 356 l 515 356 q 300 342 376 356 q 194 296 224 329 q 164 200 164 263 q 213 85 164 129 q 347 42 263 42 q 465 73 414 42 q 544 160 515 104 q 574 290 574 217 l 574 456 q 530 606 574 560 q 396 651 486 651 q 272 633 329 651 q 157 574 215 615 l 129 624 q 251 684 182 663 q 393 706 321 706 q 561 655 504 706 q 631 508 618 604 l 604 508 q 713 655 640 604 q 888 706 786 706 q 1091 620 1017 706 q 1165 388 1165 535 l 1165 354 l 618 354 l 618 407 l 1135 407 l 1111 389 q 1053 582 1111 511 q 883 653 994 653 q 701 580 769 653 q 633 371 633 507 l 633 361 q 702 128 633 214 q 897 43 771 43 q 1016 65 960 43 q 1125 135 1072 88 l 1154 89 q 1041 15 1111 42 q 899 -11 971 -11 q 694 50 774 -11 q 588 226 615 111 l 614 226 q 523 52 596 115 q 343 -11 450 -11 z "},"ǽ":{"ha":1236,"x_min":100,"x_max":1165,"o":"m 343 -11 q 219 16 274 -11 q 132 90 164 43 q 100 196 100 136 q 138 324 100 278 q 265 388 175 369 q 513 407 356 407 l 585 407 l 585 356 l 515 356 q 300 342 376 356 q 194 296 224 329 q 164 200 164 263 q 213 85 164 129 q 347 42 263 42 q 465 73 414 42 q 544 160 515 104 q 574 290 574 217 l 574 456 q 530 606 574 560 q 396 651 486 651 q 272 633 329 651 q 157 574 215 615 l 129 624 q 251 684 182 663 q 393 706 321 706 q 561 655 504 706 q 631 508 618 604 l 604 508 q 713 655 640 604 q 888 706 786 706 q 1091 620 1017 706 q 1165 388 1165 535 l 1165 354 l 618 354 l 618 407 l 1135 407 l 1111 389 q 1053 582 1111 511 q 883 653 994 653 q 701 580 769 653 q 633 371 633 507 l 633 361 q 702 128 633 214 q 897 43 771 43 q 1016 65 960 43 q 1125 135 1072 88 l 1154 89 q 1041 15 1111 42 q 899 -11 971 -11 q 694 50 774 -11 q 588 226 615 111 l 614 226 q 523 52 596 115 q 343 -11 450 -11 m 581 763 l 725 1040 l 800 1040 l 631 763 l 581 763 z "},"b":{"ha":810,"x_min":122,"x_max":735,"o":"m 428 -11 q 258 40 328 -11 q 165 182 189 92 l 181 182 l 181 0 l 122 0 l 122 1022 l 181 1022 l 181 513 l 165 513 q 258 654 189 603 q 428 706 328 706 q 591 663 522 706 q 697 540 660 619 q 735 347 735 460 q 697 156 735 236 q 590 32 658 75 q 428 -11 521 -11 m 426 43 q 608 122 540 43 q 675 347 675 200 q 608 573 675 494 q 426 651 540 651 q 246 573 313 651 q 179 347 179 494 q 246 122 179 200 q 426 43 313 43 z "},"ɓ":{"ha":810,"x_min":122,"x_max":735,"o":"m 429 -11 q 259 40 329 -11 q 165 182 189 92 l 181 182 l 181 0 l 122 0 l 122 825 q 175 981 122 928 q 325 1033 228 1033 q 360 1031 344 1033 q 392 1024 376 1029 l 383 972 q 354 979 365 978 q 328 981 343 981 q 218 941 256 981 q 181 828 181 901 l 181 513 l 165 513 q 259 654 189 603 q 429 706 329 706 q 592 663 524 706 q 697 540 660 619 q 735 347 735 460 q 697 156 735 236 q 591 32 660 75 q 429 -11 522 -11 m 428 43 q 608 122 542 43 q 675 347 675 200 q 608 573 675 494 q 428 651 542 651 q 247 573 314 651 q 179 347 179 494 q 247 122 179 200 q 428 43 314 43 z "},"c":{"ha":676,"x_min":75,"x_max":617,"o":"m 390 -11 q 222 33 293 -11 q 113 158 151 76 q 75 353 75 240 q 114 544 75 465 q 224 665 153 624 q 390 706 294 706 q 516 680 456 706 q 617 608 576 654 l 588 564 q 492 631 543 610 q 389 651 440 651 q 202 574 269 651 q 135 351 135 497 q 202 124 135 204 q 389 43 269 43 q 490 63 438 43 q 588 131 542 83 l 617 86 q 513 14 575 39 q 390 -11 451 -11 z "},"ć":{"ha":676,"x_min":75,"x_max":617,"o":"m 390 -11 q 222 33 293 -11 q 113 158 151 76 q 75 353 75 240 q 114 544 75 465 q 224 665 153 624 q 390 706 294 706 q 516 680 456 706 q 617 608 576 654 l 588 564 q 492 631 543 610 q 389 651 440 651 q 202 574 269 651 q 135 351 135 497 q 202 124 135 204 q 389 43 269 43 q 490 63 438 43 q 588 131 542 83 l 617 86 q 513 14 575 39 q 390 -11 451 -11 m 365 763 l 510 1040 l 585 1040 l 415 763 l 365 763 z "},"č":{"ha":676,"x_min":75,"x_max":617,"o":"m 390 -11 q 222 33 293 -11 q 113 158 151 76 q 75 353 75 240 q 114 544 75 465 q 224 665 153 624 q 390 706 294 706 q 516 680 456 706 q 617 608 576 654 l 588 564 q 492 631 543 610 q 389 651 440 651 q 202 574 269 651 q 135 351 135 497 q 202 124 135 204 q 389 43 269 43 q 490 63 438 43 q 588 131 542 83 l 617 86 q 513 14 575 39 q 390 -11 451 -11 m 357 763 l 206 1040 l 254 1040 l 390 817 l 526 1040 l 575 1040 l 424 763 l 357 763 z "},"ç":{"ha":676,"x_min":75,"x_max":617,"o":"m 390 -11 q 222 33 293 -11 q 113 158 151 76 q 75 353 75 240 q 114 544 75 465 q 224 665 153 624 q 390 706 294 706 q 516 680 456 706 q 617 608 576 654 l 588 564 q 492 631 543 610 q 389 651 440 651 q 202 574 269 651 q 135 351 135 497 q 202 124 135 204 q 389 43 269 43 q 490 63 438 43 q 588 131 542 83 l 617 86 q 513 14 575 39 q 390 -11 451 -11 m 397 -264 q 337 -257 365 -264 q 289 -239 308 -250 l 301 -192 q 349 -209 328 -204 q 403 -214 369 -214 q 465 -199 440 -214 q 489 -154 489 -183 q 435 -110 489 -110 q 403 -112 419 -110 q 364 -124 388 -115 l 343 -106 l 364 28 l 417 28 l 399 -76 l 374 -74 q 406 -67 390 -69 q 436 -64 422 -64 q 513 -87 481 -64 q 544 -154 544 -111 q 503 -233 544 -203 q 397 -264 463 -264 z "},"ḉ":{"ha":676,"x_min":75,"x_max":617,"o":"m 390 -11 q 222 33 293 -11 q 113 158 151 76 q 75 353 75 240 q 114 544 75 465 q 224 665 153 624 q 390 706 294 706 q 516 680 456 706 q 617 608 576 654 l 588 564 q 492 631 543 610 q 389 651 440 651 q 202 574 269 651 q 135 351 135 497 q 202 124 135 204 q 389 43 269 43 q 490 63 438 43 q 588 131 542 83 l 617 86 q 513 14 575 39 q 390 -11 451 -11 m 397 -264 q 337 -257 365 -264 q 289 -239 308 -250 l 301 -192 q 349 -209 328 -204 q 403 -214 369 -214 q 465 -199 440 -214 q 489 -154 489 -183 q 435 -110 489 -110 q 403 -112 419 -110 q 364 -124 388 -115 l 343 -106 l 364 28 l 417 28 l 399 -76 l 374 -74 q 406 -67 390 -69 q 436 -64 422 -64 q 513 -87 481 -64 q 544 -154 544 -111 q 503 -233 544 -203 q 397 -264 463 -264 m 365 763 l 510 1040 l 585 1040 l 415 763 l 365 763 z "},"ĉ":{"ha":676,"x_min":75,"x_max":617,"o":"m 390 -11 q 222 33 293 -11 q 113 158 151 76 q 75 353 75 240 q 114 544 75 465 q 224 665 153 624 q 390 706 294 706 q 516 680 456 706 q 617 608 576 654 l 588 564 q 492 631 543 610 q 389 651 440 651 q 202 574 269 651 q 135 351 135 497 q 202 124 135 204 q 389 43 269 43 q 490 63 438 43 q 588 131 542 83 l 617 86 q 513 14 575 39 q 390 -11 451 -11 m 206 763 l 357 1040 l 424 1040 l 575 763 l 526 763 l 390 986 l 254 763 l 206 763 z "},"ċ":{"ha":676,"x_min":75,"x_max":617,"o":"m 390 -11 q 222 33 293 -11 q 113 158 151 76 q 75 353 75 240 q 114 544 75 465 q 224 665 153 624 q 390 706 294 706 q 516 680 456 706 q 617 608 576 654 l 588 564 q 492 631 543 610 q 389 651 440 651 q 202 574 269 651 q 135 351 135 497 q 202 124 135 204 q 389 43 269 43 q 490 63 438 43 q 588 131 542 83 l 617 86 q 513 14 575 39 q 390 -11 451 -11 m 346 860 l 346 947 l 435 947 l 435 860 l 346 860 z "},"d":{"ha":810,"x_min":75,"x_max":688,"o":"m 381 -11 q 219 32 288 -11 q 113 156 150 75 q 75 347 75 236 q 113 540 75 460 q 219 663 150 619 q 381 706 288 706 q 550 654 479 706 q 644 513 621 603 l 629 513 l 629 1022 l 688 1022 l 688 0 l 629 0 l 629 182 l 644 182 q 550 40 621 92 q 381 -11 479 -11 m 382 43 q 563 122 494 43 q 631 347 631 200 q 563 573 631 494 q 382 651 494 651 q 201 573 268 651 q 135 347 135 494 q 201 122 135 200 q 382 43 268 43 z "},"ð":{"ha":772,"x_min":75,"x_max":697,"o":"m 385 -11 q 222 29 292 -11 q 113 143 151 69 q 75 315 75 217 q 114 489 75 415 q 224 603 153 563 q 389 643 294 643 q 569 584 500 643 q 665 407 639 525 l 639 407 q 590 665 640 543 q 435 871 539 786 l 458 867 l 189 757 l 171 803 l 415 903 l 414 886 q 322 942 372 918 q 213 983 271 967 l 229 1029 q 358 978 299 1008 q 467 911 418 949 l 447 915 l 604 979 l 622 933 l 488 878 l 489 893 q 606 755 560 833 q 674 583 651 676 q 697 383 697 490 q 661 166 697 254 q 556 33 625 78 q 385 -11 486 -11 m 383 43 q 567 116 499 43 q 635 315 635 189 q 567 515 635 443 q 385 588 500 588 q 202 515 269 588 q 135 315 135 443 q 201 115 135 186 q 383 43 267 43 z "},"ď":{"ha":810,"x_min":75,"x_max":832,"o":"m 381 -11 q 219 32 288 -11 q 113 156 150 75 q 75 347 75 236 q 113 540 75 460 q 219 663 150 619 q 381 706 288 706 q 550 654 479 706 q 644 513 621 603 l 629 513 l 629 1022 l 688 1022 l 688 0 l 629 0 l 629 182 l 644 182 q 550 40 621 92 q 381 -11 479 -11 m 382 43 q 563 122 494 43 q 631 347 631 200 q 563 573 631 494 q 382 651 494 651 q 201 573 268 651 q 135 347 135 494 q 201 122 135 200 q 382 43 268 43 m 764 761 l 764 1022 l 832 1022 l 801 761 l 764 761 z "},"đ":{"ha":810,"x_min":75,"x_max":824,"o":"m 382 -11 q 219 32 289 -11 q 113 156 150 75 q 75 347 75 236 q 113 540 75 460 q 219 663 150 619 q 382 706 289 706 q 551 654 481 706 q 644 513 621 603 l 629 513 l 629 825 l 357 825 l 357 876 l 629 876 l 629 1022 l 688 1022 l 688 876 l 824 876 l 824 825 l 688 825 l 688 0 l 629 0 l 629 182 l 644 182 q 551 40 621 92 q 382 -11 481 -11 m 383 43 q 563 122 494 43 q 631 347 631 200 q 563 573 631 494 q 383 651 494 651 q 202 573 269 651 q 135 347 135 494 q 202 122 135 200 q 383 43 269 43 z "},"ḍ":{"ha":810,"x_min":75,"x_max":688,"o":"m 381 -11 q 219 32 288 -11 q 113 156 150 75 q 75 347 75 236 q 113 540 75 460 q 219 663 150 619 q 381 706 288 706 q 550 654 479 706 q 644 513 621 603 l 629 513 l 629 1022 l 688 1022 l 688 0 l 629 0 l 629 182 l 644 182 q 550 40 621 92 q 381 -11 479 -11 m 382 43 q 563 122 494 43 q 631 347 631 200 q 563 573 631 494 q 382 651 494 651 q 201 573 268 651 q 135 347 135 494 q 201 122 135 200 q 382 43 268 43 m 364 -239 l 364 -151 l 453 -151 l 453 -239 l 364 -239 z "},"ɗ":{"ha":810,"x_min":75,"x_max":899,"o":"m 381 -11 q 219 32 288 -11 q 113 156 150 75 q 75 347 75 236 q 113 540 75 460 q 219 663 150 619 q 381 706 288 706 q 551 654 481 706 q 644 513 621 603 l 629 513 l 629 825 q 652 940 629 893 q 721 1010 675 986 q 832 1033 767 1033 q 867 1031 851 1033 q 899 1024 882 1029 l 890 972 q 860 979 871 978 q 835 981 849 981 q 724 941 761 981 q 688 828 688 901 l 688 0 l 629 0 l 629 182 l 644 182 q 551 40 621 92 q 381 -11 481 -11 m 382 43 q 563 122 496 43 q 631 347 631 200 q 563 573 631 494 q 382 651 496 651 q 201 573 268 651 q 135 347 135 494 q 201 122 135 200 q 382 43 268 43 z "},"ḏ":{"ha":810,"x_min":75,"x_max":688,"o":"m 381 -11 q 219 32 288 -11 q 113 156 150 75 q 75 347 75 236 q 113 540 75 460 q 219 663 150 619 q 381 706 288 706 q 550 654 479 706 q 644 513 621 603 l 629 513 l 629 1022 l 688 1022 l 688 0 l 629 0 l 629 182 l 644 182 q 550 40 621 92 q 381 -11 479 -11 m 382 43 q 563 122 494 43 q 631 347 631 200 q 563 573 631 494 q 382 651 494 651 q 201 573 268 651 q 135 347 135 494 q 201 122 135 200 q 382 43 268 43 m 214 -206 l 214 -153 l 603 -153 l 603 -206 l 214 -206 z "},"ǆ":{"ha":1521,"x_min":75,"x_max":1454,"o":"m 381 -11 q 219 32 288 -11 q 113 156 150 75 q 75 347 75 236 q 113 540 75 460 q 219 663 150 619 q 381 706 288 706 q 550 654 479 706 q 644 513 621 603 l 629 513 l 629 1022 l 688 1022 l 688 0 l 629 0 l 629 182 l 644 182 q 550 40 621 92 q 381 -11 479 -11 m 382 43 q 563 122 494 43 q 631 347 631 200 q 563 573 631 494 q 382 651 494 651 q 201 573 268 651 q 135 347 135 494 q 201 122 135 200 q 382 43 268 43 m 881 0 l 881 42 l 1379 663 l 1381 644 l 881 644 l 881 694 l 1438 694 l 1438 653 l 936 31 l 935 50 l 1454 50 l 1454 0 l 881 0 m 1125 763 l 974 1040 l 1022 1040 l 1158 817 l 1294 1040 l 1343 1040 l 1192 763 l 1125 763 z "},"e":{"ha":751,"x_min":75,"x_max":681,"o":"m 408 -11 q 165 83 256 -11 q 75 344 75 176 q 115 536 75 456 q 228 661 156 617 q 396 706 301 706 q 549 667 486 706 q 647 558 613 629 q 681 388 681 486 l 681 350 l 113 350 l 113 403 l 650 403 l 626 385 q 568 581 626 510 q 394 653 510 653 q 203 569 272 653 q 135 351 135 486 l 135 344 q 207 120 135 197 q 408 43 279 43 q 531 64 474 43 q 640 135 588 85 l 669 89 q 556 15 626 42 q 408 -11 485 -11 z "},"é":{"ha":751,"x_min":75,"x_max":681,"o":"m 408 -11 q 165 83 256 -11 q 75 344 75 176 q 115 536 75 456 q 228 661 156 617 q 396 706 301 706 q 549 667 486 706 q 647 558 613 629 q 681 388 681 486 l 681 350 l 113 350 l 113 403 l 650 403 l 626 385 q 568 581 626 510 q 394 653 510 653 q 203 569 272 653 q 135 351 135 486 l 135 344 q 207 120 135 197 q 408 43 279 43 q 531 64 474 43 q 640 135 588 85 l 669 89 q 556 15 626 42 q 408 -11 485 -11 m 371 763 l 515 1040 l 590 1040 l 421 763 l 371 763 z "},"ĕ":{"ha":751,"x_min":75,"x_max":681,"o":"m 408 -11 q 165 83 256 -11 q 75 344 75 176 q 115 536 75 456 q 228 661 156 617 q 396 706 301 706 q 549 667 486 706 q 647 558 613 629 q 681 388 681 486 l 681 350 l 113 350 l 113 403 l 650 403 l 626 385 q 568 581 626 510 q 394 653 510 653 q 203 569 272 653 q 135 351 135 486 l 135 344 q 207 120 135 197 q 408 43 279 43 q 531 64 474 43 q 640 135 588 85 l 669 89 q 556 15 626 42 q 408 -11 485 -11 m 396 760 q 295 791 339 760 q 226 881 251 822 q 196 1019 201 939 l 242 1025 q 288 866 247 922 q 396 810 328 810 q 505 866 465 810 q 550 1025 544 922 l 596 1019 q 566 881 592 939 q 497 791 540 822 q 396 760 454 760 z "},"ě":{"ha":751,"x_min":75,"x_max":681,"o":"m 408 -11 q 165 83 256 -11 q 75 344 75 176 q 115 536 75 456 q 228 661 156 617 q 396 706 301 706 q 549 667 486 706 q 647 558 613 629 q 681 388 681 486 l 681 350 l 113 350 l 113 403 l 650 403 l 626 385 q 568 581 626 510 q 394 653 510 653 q 203 569 272 653 q 135 351 135 486 l 135 344 q 207 120 135 197 q 408 43 279 43 q 531 64 474 43 q 640 135 588 85 l 669 89 q 556 15 626 42 q 408 -11 485 -11 m 363 763 l 211 1040 l 260 1040 l 396 817 l 532 1040 l 581 1040 l 429 763 l 363 763 z "},"ḝ":{"ha":751,"x_min":75,"x_max":681,"o":"m 408 -11 q 165 83 256 -11 q 75 344 75 176 q 115 536 75 456 q 228 661 156 617 q 396 706 301 706 q 549 667 486 706 q 647 558 613 629 q 681 388 681 486 l 681 350 l 113 350 l 113 403 l 650 403 l 626 385 q 568 581 626 510 q 394 653 510 653 q 203 569 272 653 q 135 351 135 486 l 135 344 q 207 120 135 197 q 408 43 279 43 q 531 64 474 43 q 640 135 588 85 l 669 89 q 556 15 626 42 q 408 -11 485 -11 m 403 -264 q 342 -257 371 -264 q 294 -239 314 -250 l 307 -192 q 354 -209 333 -204 q 408 -214 375 -214 q 470 -199 446 -214 q 494 -154 494 -183 q 440 -110 494 -110 q 409 -112 425 -110 q 369 -124 393 -115 l 349 -106 l 369 28 l 422 28 l 404 -76 l 379 -74 q 412 -67 396 -69 q 442 -64 428 -64 q 518 -87 486 -64 q 550 -154 550 -111 q 509 -233 550 -203 q 403 -264 468 -264 m 396 760 q 295 791 339 760 q 226 881 251 822 q 196 1019 201 939 l 242 1025 q 288 866 247 922 q 396 810 328 810 q 505 866 465 810 q 550 1025 544 922 l 596 1019 q 566 881 592 939 q 497 791 540 822 q 396 760 454 760 z "},"ê":{"ha":751,"x_min":75,"x_max":681,"o":"m 408 -11 q 165 83 256 -11 q 75 344 75 176 q 115 536 75 456 q 228 661 156 617 q 396 706 301 706 q 549 667 486 706 q 647 558 613 629 q 681 388 681 486 l 681 350 l 113 350 l 113 403 l 650 403 l 626 385 q 568 581 626 510 q 394 653 510 653 q 203 569 272 653 q 135 351 135 486 l 135 344 q 207 120 135 197 q 408 43 279 43 q 531 64 474 43 q 640 135 588 85 l 669 89 q 556 15 626 42 q 408 -11 485 -11 m 211 763 l 363 1040 l 429 1040 l 581 763 l 532 763 l 396 986 l 260 763 l 211 763 z "},"ế":{"ha":751,"x_min":75,"x_max":706,"o":"m 408 -11 q 165 83 256 -11 q 75 344 75 176 q 115 536 75 456 q 228 661 156 617 q 396 706 301 706 q 549 667 486 706 q 647 558 613 629 q 681 388 681 486 l 681 350 l 113 350 l 113 403 l 650 403 l 626 385 q 568 581 626 510 q 394 653 510 653 q 203 569 272 653 q 135 351 135 486 l 135 344 q 207 120 135 197 q 408 43 279 43 q 531 64 474 43 q 640 135 588 85 l 669 89 q 556 15 626 42 q 408 -11 485 -11 m 211 763 l 363 985 l 429 985 l 581 763 l 533 763 l 396 933 l 258 763 l 211 763 m 508 903 l 631 1111 l 706 1111 l 558 903 l 508 903 z "},"ệ":{"ha":751,"x_min":75,"x_max":681,"o":"m 408 -11 q 165 83 256 -11 q 75 344 75 176 q 115 536 75 456 q 228 661 156 617 q 396 706 301 706 q 549 667 486 706 q 647 558 613 629 q 681 388 681 486 l 681 350 l 113 350 l 113 403 l 650 403 l 626 385 q 568 581 626 510 q 394 653 510 653 q 203 569 272 653 q 135 351 135 486 l 135 344 q 207 120 135 197 q 408 43 279 43 q 531 64 474 43 q 640 135 588 85 l 669 89 q 556 15 626 42 q 408 -11 485 -11 m 351 -239 l 351 -151 l 440 -151 l 440 -239 l 351 -239 m 211 763 l 363 1040 l 429 1040 l 581 763 l 532 763 l 396 986 l 260 763 l 211 763 z "},"ề":{"ha":751,"x_min":75,"x_max":681,"o":"m 408 -11 q 165 83 256 -11 q 75 344 75 176 q 115 536 75 456 q 228 661 156 617 q 396 706 301 706 q 549 667 486 706 q 647 558 613 629 q 681 388 681 486 l 681 350 l 113 350 l 113 403 l 650 403 l 626 385 q 568 581 626 510 q 394 653 510 653 q 203 569 272 653 q 135 351 135 486 l 135 344 q 207 120 135 197 q 408 43 279 43 q 531 64 474 43 q 640 135 588 85 l 669 89 q 556 15 626 42 q 408 -11 485 -11 m 211 763 l 363 985 l 429 985 l 581 763 l 533 763 l 396 933 l 258 763 l 211 763 m 565 903 l 418 1111 l 493 1111 l 615 903 l 565 903 z "},"ể":{"ha":751,"x_min":75,"x_max":681,"o":"m 408 -11 q 165 83 256 -11 q 75 344 75 176 q 115 536 75 456 q 228 661 156 617 q 396 706 301 706 q 549 667 486 706 q 647 558 613 629 q 681 388 681 486 l 681 350 l 113 350 l 113 403 l 650 403 l 626 385 q 568 581 626 510 q 394 653 510 653 q 203 569 272 653 q 135 351 135 486 l 135 344 q 207 120 135 197 q 408 43 279 43 q 531 64 474 43 q 640 135 588 85 l 669 89 q 556 15 626 42 q 408 -11 485 -11 m 211 763 l 363 985 l 429 985 l 581 763 l 533 763 l 396 933 l 258 763 l 211 763 m 525 903 q 539 956 525 936 q 572 987 553 975 q 604 1010 590 999 q 618 1040 618 1022 q 601 1065 618 1058 q 546 1071 583 1071 q 506 1067 528 1071 q 458 1054 485 1064 l 446 1094 q 495 1111 468 1106 q 551 1117 522 1117 q 641 1097 610 1117 q 672 1044 672 1078 q 657 999 672 1015 q 622 972 642 983 q 588 944 603 960 q 572 903 572 929 l 525 903 z "},"ễ":{"ha":751,"x_min":75,"x_max":681,"o":"m 408 -11 q 165 83 256 -11 q 75 344 75 176 q 115 536 75 456 q 228 661 156 617 q 396 706 301 706 q 549 667 486 706 q 647 558 613 629 q 681 388 681 486 l 681 350 l 113 350 l 113 403 l 650 403 l 626 385 q 568 581 626 510 q 394 653 510 653 q 203 569 272 653 q 135 351 135 486 l 135 344 q 207 120 135 197 q 408 43 279 43 q 531 64 474 43 q 640 135 588 85 l 669 89 q 556 15 626 42 q 408 -11 485 -11 m 211 763 l 363 943 l 429 943 l 581 763 l 533 763 l 396 896 l 258 763 l 211 763 m 239 979 l 193 982 q 231 1082 200 1049 q 308 1115 261 1115 q 357 1104 335 1115 q 408 1069 379 1093 q 454 1039 439 1046 q 483 1032 469 1032 q 531 1052 515 1032 q 553 1118 546 1072 l 599 1115 q 563 1015 593 1049 q 485 982 533 982 q 435 994 458 982 q 376 1033 413 1006 q 345 1055 363 1044 q 308 1065 328 1065 q 262 1045 278 1065 q 239 979 246 1025 z "},"ȅ":{"ha":751,"x_min":75,"x_max":681,"o":"m 408 -11 q 165 83 256 -11 q 75 344 75 176 q 115 536 75 456 q 228 661 156 617 q 396 706 301 706 q 549 667 486 706 q 647 558 613 629 q 681 388 681 486 l 681 350 l 113 350 l 113 403 l 650 403 l 626 385 q 568 581 626 510 q 394 653 510 653 q 203 569 272 653 q 135 351 135 486 l 135 344 q 207 120 135 197 q 408 43 279 43 q 531 64 474 43 q 640 135 588 85 l 669 89 q 556 15 626 42 q 408 -11 485 -11 m 453 763 l 343 1040 l 410 1040 l 490 763 l 453 763 m 301 763 l 192 1040 l 258 1040 l 339 763 l 301 763 z "},"ë":{"ha":751,"x_min":75,"x_max":681,"o":"m 408 -11 q 165 83 256 -11 q 75 344 75 176 q 115 536 75 456 q 228 661 156 617 q 396 706 301 706 q 549 667 486 706 q 647 558 613 629 q 681 388 681 486 l 681 350 l 113 350 l 113 403 l 650 403 l 626 385 q 568 581 626 510 q 394 653 510 653 q 203 569 272 653 q 135 351 135 486 l 135 344 q 207 120 135 197 q 408 43 279 43 q 531 64 474 43 q 640 135 588 85 l 669 89 q 556 15 626 42 q 408 -11 485 -11 m 465 861 l 465 944 l 550 944 l 550 861 l 465 861 m 242 861 l 242 944 l 326 944 l 326 861 l 242 861 z "},"ė":{"ha":751,"x_min":75,"x_max":681,"o":"m 408 -11 q 165 83 256 -11 q 75 344 75 176 q 115 536 75 456 q 228 661 156 617 q 396 706 301 706 q 549 667 486 706 q 647 558 613 629 q 681 388 681 486 l 681 350 l 113 350 l 113 403 l 650 403 l 626 385 q 568 581 626 510 q 394 653 510 653 q 203 569 272 653 q 135 351 135 486 l 135 344 q 207 120 135 197 q 408 43 279 43 q 531 64 474 43 q 640 135 588 85 l 669 89 q 556 15 626 42 q 408 -11 485 -11 m 351 860 l 351 947 l 440 947 l 440 860 l 351 860 z "},"ẹ":{"ha":751,"x_min":75,"x_max":681,"o":"m 408 -11 q 165 83 256 -11 q 75 344 75 176 q 115 536 75 456 q 228 661 156 617 q 396 706 301 706 q 549 667 486 706 q 647 558 613 629 q 681 388 681 486 l 681 350 l 113 350 l 113 403 l 650 403 l 626 385 q 568 581 626 510 q 394 653 510 653 q 203 569 272 653 q 135 351 135 486 l 135 344 q 207 120 135 197 q 408 43 279 43 q 531 64 474 43 q 640 135 588 85 l 669 89 q 556 15 626 42 q 408 -11 485 -11 m 351 -239 l 351 -151 l 440 -151 l 440 -239 l 351 -239 z "},"è":{"ha":751,"x_min":75,"x_max":681,"o":"m 408 -11 q 165 83 256 -11 q 75 344 75 176 q 115 536 75 456 q 228 661 156 617 q 396 706 301 706 q 549 667 486 706 q 647 558 613 629 q 681 388 681 486 l 681 350 l 113 350 l 113 403 l 650 403 l 626 385 q 568 581 626 510 q 394 653 510 653 q 203 569 272 653 q 135 351 135 486 l 135 344 q 207 120 135 197 q 408 43 279 43 q 531 64 474 43 q 640 135 588 85 l 669 89 q 556 15 626 42 q 408 -11 485 -11 m 371 763 l 201 1040 l 276 1040 l 421 763 l 371 763 z "},"ẻ":{"ha":751,"x_min":75,"x_max":681,"o":"m 408 -11 q 165 83 256 -11 q 75 344 75 176 q 115 536 75 456 q 228 661 156 617 q 396 706 301 706 q 549 667 486 706 q 647 558 613 629 q 681 388 681 486 l 681 350 l 113 350 l 113 403 l 650 403 l 626 385 q 568 581 626 510 q 394 653 510 653 q 203 569 272 653 q 135 351 135 486 l 135 344 q 207 120 135 197 q 408 43 279 43 q 531 64 474 43 q 640 135 588 85 l 669 89 q 556 15 626 42 q 408 -11 485 -11 m 371 763 l 371 790 q 385 847 371 825 q 418 884 400 868 q 451 916 436 900 q 465 954 465 932 q 448 986 465 975 q 393 997 431 997 q 351 992 372 997 q 303 975 329 988 l 290 1019 q 340 1041 313 1035 q 399 1047 368 1047 q 490 1024 457 1047 q 522 957 522 1000 q 507 902 522 922 q 472 867 492 882 q 436 833 451 851 q 421 783 421 814 l 421 763 l 371 763 z "},"ȇ":{"ha":751,"x_min":75,"x_max":681,"o":"m 408 -11 q 165 83 256 -11 q 75 344 75 176 q 115 536 75 456 q 228 661 156 617 q 396 706 301 706 q 549 667 486 706 q 647 558 613 629 q 681 388 681 486 l 681 350 l 113 350 l 113 403 l 650 403 l 626 385 q 568 581 626 510 q 394 653 510 653 q 203 569 272 653 q 135 351 135 486 l 135 344 q 207 120 135 197 q 408 43 279 43 q 531 64 474 43 q 640 135 588 85 l 669 89 q 556 15 626 42 q 408 -11 485 -11 m 242 751 l 196 757 q 226 897 201 839 q 295 985 251 954 q 396 1017 339 1017 q 497 985 454 1017 q 566 897 540 954 q 596 757 592 839 l 550 751 q 505 910 544 854 q 396 967 465 967 q 288 910 328 967 q 242 751 247 854 z "},"ē":{"ha":751,"x_min":75,"x_max":681,"o":"m 408 -11 q 165 83 256 -11 q 75 344 75 176 q 115 536 75 456 q 228 661 156 617 q 396 706 301 706 q 549 667 486 706 q 647 558 613 629 q 681 388 681 486 l 681 350 l 113 350 l 113 403 l 650 403 l 626 385 q 568 581 626 510 q 394 653 510 653 q 203 569 272 653 q 135 351 135 486 l 135 344 q 207 120 135 197 q 408 43 279 43 q 531 64 474 43 q 640 135 588 85 l 669 89 q 556 15 626 42 q 408 -11 485 -11 m 201 879 l 201 932 l 590 932 l 590 879 l 201 879 z "},"ḗ":{"ha":751,"x_min":75,"x_max":681,"o":"m 408 -11 q 165 83 256 -11 q 75 344 75 176 q 115 536 75 456 q 228 661 156 617 q 396 706 301 706 q 549 667 486 706 q 647 558 613 629 q 681 388 681 486 l 681 350 l 113 350 l 113 403 l 650 403 l 626 385 q 568 581 626 510 q 394 653 510 653 q 203 569 272 653 q 135 351 135 486 l 135 344 q 207 120 135 197 q 408 43 279 43 q 531 64 474 43 q 640 135 588 85 l 669 89 q 556 15 626 42 q 408 -11 485 -11 m 201 799 l 201 851 l 590 851 l 590 799 l 201 799 m 371 903 l 507 1111 l 582 1111 l 421 903 l 371 903 z "},"ḕ":{"ha":751,"x_min":75,"x_max":681,"o":"m 408 -11 q 165 83 256 -11 q 75 344 75 176 q 115 536 75 456 q 228 661 156 617 q 396 706 301 706 q 549 667 486 706 q 647 558 613 629 q 681 388 681 486 l 681 350 l 113 350 l 113 403 l 650 403 l 626 385 q 568 581 626 510 q 394 653 510 653 q 203 569 272 653 q 135 351 135 486 l 135 344 q 207 120 135 197 q 408 43 279 43 q 531 64 474 43 q 640 135 588 85 l 669 89 q 556 15 626 42 q 408 -11 485 -11 m 201 799 l 201 851 l 590 851 l 590 799 l 201 799 m 371 903 l 210 1111 l 285 1111 l 421 903 l 371 903 z "},"ę":{"ha":751,"x_min":75,"x_max":681,"o":"m 408 -11 q 165 83 256 -11 q 75 344 75 176 q 115 536 75 456 q 228 661 156 617 q 396 706 301 706 q 549 667 486 706 q 647 558 613 629 q 681 388 681 486 l 681 350 l 113 350 l 113 403 l 650 403 l 626 385 q 568 581 626 510 q 394 653 510 653 q 203 569 272 653 q 135 351 135 486 l 135 344 q 207 120 135 197 q 408 43 279 43 q 531 64 474 43 q 640 135 588 85 l 669 89 q 556 15 626 42 q 408 -11 485 -11 m 468 -264 q 374 -229 411 -264 q 338 -136 338 -194 q 370 -35 338 -83 q 463 43 403 13 l 492 0 q 448 -26 471 -8 q 408 -71 425 -44 q 392 -131 392 -97 q 416 -194 392 -174 q 475 -214 440 -214 q 511 -210 493 -214 q 549 -196 529 -206 l 567 -240 q 526 -257 553 -250 q 468 -264 500 -264 z "},"ẽ":{"ha":751,"x_min":75,"x_max":681,"o":"m 408 -11 q 165 83 256 -11 q 75 344 75 176 q 115 536 75 456 q 228 661 156 617 q 396 706 301 706 q 549 667 486 706 q 647 558 613 629 q 681 388 681 486 l 681 350 l 113 350 l 113 403 l 650 403 l 626 385 q 568 581 626 510 q 394 653 510 653 q 203 569 272 653 q 135 351 135 486 l 135 344 q 207 120 135 197 q 408 43 279 43 q 531 64 474 43 q 640 135 588 85 l 669 89 q 556 15 626 42 q 408 -11 485 -11 m 207 826 l 163 829 q 206 953 171 910 q 296 997 240 997 q 351 981 325 997 q 410 932 376 965 q 459 890 440 901 q 496 879 478 879 q 585 1000 568 879 l 629 997 q 586 873 621 917 q 497 829 551 829 q 444 845 469 829 q 382 894 418 861 q 333 935 351 924 q 296 947 315 947 q 238 916 260 947 q 207 826 215 885 z "},"ə":{"ha":751,"x_min":71,"x_max":676,"o":"m 356 -11 q 146 74 221 -11 q 71 307 71 160 l 71 344 l 639 344 l 639 292 l 101 292 l 125 310 q 184 113 125 185 q 357 42 243 42 q 549 125 481 42 q 617 343 617 208 l 617 350 q 544 574 617 497 q 343 651 472 651 q 222 631 279 651 q 111 560 164 610 l 82 606 q 197 680 126 654 q 343 706 267 706 q 520 664 446 706 q 635 542 594 622 q 676 350 676 463 q 636 159 676 240 q 524 33 596 78 q 356 -11 451 -11 z "},"f":{"ha":432,"x_min":11,"x_max":442,"o":"m 150 0 l 150 644 l 11 644 l 11 694 l 164 694 l 150 679 l 150 803 q 202 969 150 910 q 350 1028 254 1028 q 400 1023 374 1028 q 442 1011 426 1018 l 442 956 q 403 968 426 963 q 353 974 379 974 q 272 953 304 974 q 224 892 239 932 q 208 793 208 853 l 208 675 l 197 694 l 413 694 l 413 644 l 208 644 l 208 0 l 150 0 z "},"g":{"ha":815,"x_min":75,"x_max":706,"o":"m 414 -310 q 255 -285 329 -310 q 121 -212 181 -261 l 149 -165 q 235 -218 194 -199 q 319 -247 275 -237 q 415 -256 363 -256 q 580 -197 524 -256 q 636 -28 636 -137 l 636 210 l 651 210 q 558 67 629 118 q 388 15 486 15 q 222 58 292 15 q 113 178 151 100 q 75 361 75 256 q 113 544 75 467 q 222 663 151 621 q 388 706 292 706 q 558 654 486 706 q 651 510 629 603 l 636 528 l 649 694 l 706 694 q 698 618 701 656 q 694 544 694 581 l 694 -18 q 624 -236 694 -162 q 414 -310 553 -310 m 386 69 q 569 147 501 69 q 636 361 636 224 q 569 575 636 499 q 386 651 501 651 q 203 575 271 651 q 135 361 135 499 q 203 147 135 224 q 386 69 271 69 z "},"ğ":{"ha":815,"x_min":75,"x_max":706,"o":"m 414 -310 q 255 -285 329 -310 q 121 -212 181 -261 l 149 -165 q 235 -218 194 -199 q 319 -247 275 -237 q 415 -256 363 -256 q 580 -197 524 -256 q 636 -28 636 -137 l 636 210 l 651 210 q 558 67 629 118 q 388 15 486 15 q 222 58 292 15 q 113 178 151 100 q 75 361 75 256 q 113 544 75 467 q 222 663 151 621 q 388 706 292 706 q 558 654 486 706 q 651 510 629 603 l 636 528 l 649 694 l 706 694 q 698 618 701 656 q 694 544 694 581 l 694 -18 q 624 -236 694 -162 q 414 -310 553 -310 m 386 69 q 569 147 501 69 q 636 361 636 224 q 569 575 636 499 q 386 651 501 651 q 203 575 271 651 q 135 361 135 499 q 203 147 135 224 q 386 69 271 69 m 411 760 q 310 791 354 760 q 242 881 267 822 q 211 1019 217 939 l 257 1025 q 303 866 263 922 q 411 810 343 810 q 520 866 481 810 q 565 1025 560 922 l 611 1019 q 581 881 607 939 q 513 791 556 822 q 411 760 469 760 z "},"ǧ":{"ha":815,"x_min":75,"x_max":706,"o":"m 414 -310 q 255 -285 329 -310 q 121 -212 181 -261 l 149 -165 q 235 -218 194 -199 q 319 -247 275 -237 q 415 -256 363 -256 q 580 -197 524 -256 q 636 -28 636 -137 l 636 210 l 651 210 q 558 67 629 118 q 388 15 486 15 q 222 58 292 15 q 113 178 151 100 q 75 361 75 256 q 113 544 75 467 q 222 663 151 621 q 388 706 292 706 q 558 654 486 706 q 651 510 629 603 l 636 528 l 649 694 l 706 694 q 698 618 701 656 q 694 544 694 581 l 694 -18 q 624 -236 694 -162 q 414 -310 553 -310 m 386 69 q 569 147 501 69 q 636 361 636 224 q 569 575 636 499 q 386 651 501 651 q 203 575 271 651 q 135 361 135 499 q 203 147 135 224 q 386 69 271 69 m 378 763 l 226 1040 l 275 1040 l 411 817 l 547 1040 l 596 1040 l 444 763 l 378 763 z "},"ĝ":{"ha":815,"x_min":75,"x_max":706,"o":"m 414 -310 q 255 -285 329 -310 q 121 -212 181 -261 l 149 -165 q 235 -218 194 -199 q 319 -247 275 -237 q 415 -256 363 -256 q 580 -197 524 -256 q 636 -28 636 -137 l 636 210 l 651 210 q 558 67 629 118 q 388 15 486 15 q 222 58 292 15 q 113 178 151 100 q 75 361 75 256 q 113 544 75 467 q 222 663 151 621 q 388 706 292 706 q 558 654 486 706 q 651 510 629 603 l 636 528 l 649 694 l 706 694 q 698 618 701 656 q 694 544 694 581 l 694 -18 q 624 -236 694 -162 q 414 -310 553 -310 m 386 69 q 569 147 501 69 q 636 361 636 224 q 569 575 636 499 q 386 651 501 651 q 203 575 271 651 q 135 361 135 499 q 203 147 135 224 q 386 69 271 69 m 226 763 l 378 1040 l 444 1040 l 596 763 l 547 763 l 411 986 l 275 763 l 226 763 z "},"ģ":{"ha":815,"x_min":75,"x_max":706,"o":"m 414 -310 q 255 -285 329 -310 q 121 -212 181 -261 l 149 -165 q 235 -218 194 -199 q 319 -247 275 -237 q 415 -256 363 -256 q 580 -197 524 -256 q 636 -28 636 -137 l 636 210 l 651 210 q 558 67 629 118 q 388 15 486 15 q 222 58 292 15 q 113 178 151 100 q 75 361 75 256 q 113 544 75 467 q 222 663 151 621 q 388 706 292 706 q 558 654 486 706 q 651 510 629 603 l 636 528 l 649 694 l 706 694 q 698 618 701 656 q 694 544 694 581 l 694 -18 q 624 -236 694 -162 q 414 -310 553 -310 m 386 69 q 569 147 501 69 q 636 361 636 224 q 569 575 636 499 q 386 651 501 651 q 203 575 271 651 q 135 361 135 499 q 203 147 135 224 q 386 69 271 69 m 363 792 l 363 867 q 379 956 363 914 q 428 1032 396 999 l 464 1004 q 422 938 432 968 q 411 872 411 907 l 390 882 l 460 882 l 460 792 l 363 792 z "},"ġ":{"ha":815,"x_min":75,"x_max":706,"o":"m 414 -310 q 255 -285 329 -310 q 121 -212 181 -261 l 149 -165 q 235 -218 194 -199 q 319 -247 275 -237 q 415 -256 363 -256 q 580 -197 524 -256 q 636 -28 636 -137 l 636 210 l 651 210 q 558 67 629 118 q 388 15 486 15 q 222 58 292 15 q 113 178 151 100 q 75 361 75 256 q 113 544 75 467 q 222 663 151 621 q 388 706 292 706 q 558 654 486 706 q 651 510 629 603 l 636 528 l 649 694 l 706 694 q 698 618 701 656 q 694 544 694 581 l 694 -18 q 624 -236 694 -162 q 414 -310 553 -310 m 386 69 q 569 147 501 69 q 636 361 636 224 q 569 575 636 499 q 386 651 501 651 q 203 575 271 651 q 135 361 135 499 q 203 147 135 224 q 386 69 271 69 m 367 860 l 367 947 l 456 947 l 456 860 l 367 860 z "},"ḡ":{"ha":815,"x_min":75,"x_max":706,"o":"m 414 -310 q 255 -285 329 -310 q 121 -212 181 -261 l 149 -165 q 235 -218 194 -199 q 319 -247 275 -237 q 415 -256 363 -256 q 580 -197 524 -256 q 636 -28 636 -137 l 636 210 l 651 210 q 558 67 629 118 q 388 15 486 15 q 222 58 292 15 q 113 178 151 100 q 75 361 75 256 q 113 544 75 467 q 222 663 151 621 q 388 706 292 706 q 558 654 486 706 q 651 510 629 603 l 636 528 l 649 694 l 706 694 q 698 618 701 656 q 694 544 694 581 l 694 -18 q 624 -236 694 -162 q 414 -310 553 -310 m 386 69 q 569 147 501 69 q 636 361 636 224 q 569 575 636 499 q 386 651 501 651 q 203 575 271 651 q 135 361 135 499 q 203 147 135 224 q 386 69 271 69 m 217 879 l 217 932 l 606 932 l 606 879 l 217 879 z "},"ǥ":{"ha":815,"x_min":75,"x_max":801,"o":"m 414 -310 q 255 -285 329 -310 q 121 -212 181 -261 l 149 -165 q 235 -218 194 -199 q 319 -247 275 -237 q 415 -256 363 -256 q 626 -110 588 -256 l 638 -121 l 451 -121 l 451 -71 l 644 -71 l 633 -79 q 635 -54 635 -67 q 636 -28 636 -42 l 636 210 l 651 210 q 558 67 629 118 q 388 15 486 15 q 222 58 292 15 q 113 178 151 100 q 75 361 75 256 q 113 544 75 467 q 222 663 151 621 q 388 706 292 706 q 558 654 486 706 q 651 510 629 603 l 628 510 l 642 694 l 699 694 q 691 618 694 656 q 688 544 688 581 l 693 -18 q 692 -51 693 -35 q 689 -82 692 -67 l 681 -71 l 801 -71 l 801 -121 l 674 -121 l 685 -111 q 597 -260 665 -210 q 414 -310 528 -310 m 386 69 q 569 147 501 69 q 636 361 636 224 q 569 575 636 499 q 386 651 501 651 q 203 575 271 651 q 135 361 135 499 q 203 147 135 224 q 386 69 271 69 z "},"h":{"ha":792,"x_min":122,"x_max":674,"o":"m 122 0 l 122 1022 l 181 1022 l 181 526 l 164 526 q 263 660 192 615 q 426 706 333 706 q 613 640 553 706 q 674 444 674 575 l 674 0 l 615 0 l 615 439 q 571 601 615 550 q 426 651 526 651 q 248 583 315 651 q 181 403 181 515 l 181 0 l 122 0 z "},"ħ":{"ha":792,"x_min":-15,"x_max":674,"o":"m 122 0 l 122 825 l -15 825 l -15 876 l 122 876 l 122 1022 l 181 1022 l 181 876 l 464 876 l 464 825 l 181 825 l 181 528 l 164 528 q 263 660 192 615 q 426 706 333 706 q 612 640 550 706 q 674 444 674 575 l 674 0 l 615 0 l 615 439 q 570 601 615 550 q 426 651 525 651 q 248 583 315 651 q 181 403 181 515 l 181 0 l 122 0 z "},"ḫ":{"ha":792,"x_min":122,"x_max":674,"o":"m 122 0 l 122 1022 l 181 1022 l 181 526 l 164 526 q 263 660 192 615 q 426 706 333 706 q 613 640 553 706 q 674 444 674 575 l 674 0 l 615 0 l 615 439 q 571 601 615 550 q 426 651 526 651 q 248 583 315 651 q 181 403 181 515 l 181 0 l 122 0 m 397 -299 q 258 -244 311 -299 q 197 -94 204 -190 l 243 -89 q 289 -207 249 -165 q 397 -249 329 -249 q 506 -207 467 -249 q 551 -89 546 -165 l 597 -94 q 537 -244 590 -190 q 397 -299 483 -299 z "},"ȟ":{"ha":792,"x_min":122,"x_max":674,"o":"m 122 0 l 122 1022 l 181 1022 l 181 526 l 164 526 q 263 660 192 615 q 426 706 333 706 q 613 640 553 706 q 674 444 674 575 l 674 0 l 615 0 l 615 439 q 571 601 615 550 q 426 651 526 651 q 248 583 315 651 q 181 403 181 515 l 181 0 l 122 0 m 369 1063 l 201 1299 l 253 1299 l 403 1115 l 553 1299 l 604 1299 l 436 1063 l 369 1063 z "},"ĥ":{"ha":792,"x_min":122,"x_max":674,"o":"m 122 0 l 122 1022 l 181 1022 l 181 526 l 164 526 q 263 660 192 615 q 426 706 333 706 q 613 640 553 706 q 674 444 674 575 l 674 0 l 615 0 l 615 439 q 571 601 615 550 q 426 651 526 651 q 248 583 315 651 q 181 403 181 515 l 181 0 l 122 0 m 201 1063 l 369 1299 l 436 1299 l 604 1063 l 553 1063 l 403 1246 l 253 1063 l 201 1063 z "},"ḥ":{"ha":792,"x_min":122,"x_max":674,"o":"m 122 0 l 122 1022 l 181 1022 l 181 526 l 164 526 q 263 660 192 615 q 426 706 333 706 q 613 640 553 706 q 674 444 674 575 l 674 0 l 615 0 l 615 439 q 571 601 615 550 q 426 651 526 651 q 248 583 315 651 q 181 403 181 515 l 181 0 l 122 0 m 353 -239 l 353 -151 l 442 -151 l 442 -239 l 353 -239 z "},"i":{"ha":303,"x_min":107,"x_max":196,"o":"m 122 0 l 122 694 l 181 694 l 181 0 l 122 0 m 107 876 l 107 964 l 196 964 l 196 876 l 107 876 z "},"ı":{"ha":303,"x_min":122,"x_max":181,"o":"m 122 0 l 122 694 l 181 694 l 181 0 l 122 0 z "},"í":{"ha":303,"x_min":122,"x_max":346,"o":"m 122 0 l 122 694 l 181 694 l 181 0 l 122 0 m 126 763 l 271 1040 l 346 1040 l 176 763 l 126 763 z "},"ĭ":{"ha":303,"x_min":-49,"x_max":351,"o":"m 122 0 l 122 694 l 181 694 l 181 0 l 122 0 m 151 760 q 51 791 94 760 q -18 881 7 822 q -49 1019 -43 939 l -3 1025 q 43 866 3 922 q 151 810 83 810 q 260 866 221 810 q 306 1025 300 922 l 351 1019 q 322 881 347 939 q 253 791 296 822 q 151 760 210 760 z "},"î":{"ha":303,"x_min":-33,"x_max":336,"o":"m 122 0 l 122 694 l 181 694 l 181 0 l 122 0 m -33 763 l 118 1040 l 185 1040 l 336 763 l 288 763 l 151 986 l 15 763 l -33 763 z "},"ȉ":{"ha":303,"x_min":-53,"x_max":246,"o":"m 122 0 l 122 694 l 181 694 l 181 0 l 122 0 m 208 763 l 99 1040 l 165 1040 l 246 763 l 208 763 m 57 763 l -53 1040 l 14 1040 l 94 763 l 57 763 z "},"ï":{"ha":303,"x_min":-3,"x_max":306,"o":"m 122 0 l 122 694 l 181 694 l 181 0 l 122 0 m 221 861 l 221 944 l 306 944 l 306 861 l 221 861 m -3 861 l -3 944 l 82 944 l 82 861 l -3 861 z "},"ḯ":{"ha":303,"x_min":-3,"x_max":338,"o":"m 122 0 l 122 694 l 181 694 l 181 0 l 122 0 m 126 903 l 263 1111 l 338 1111 l 176 903 l 126 903 m -3 764 l -3 847 l 82 847 l 82 764 l -3 764 m 221 764 l 221 847 l 306 847 l 306 764 l 221 764 z "},"ị":{"ha":303,"x_min":107,"x_max":204,"o":"m 122 0 l 122 694 l 181 694 l 181 0 l 122 0 m 107 876 l 107 964 l 196 964 l 196 876 l 107 876 m 115 -239 l 115 -151 l 204 -151 l 204 -239 l 115 -239 z "},"ì":{"ha":303,"x_min":-43,"x_max":181,"o":"m 122 0 l 122 694 l 181 694 l 181 0 l 122 0 m 126 763 l -43 1040 l 32 1040 l 176 763 l 126 763 z "},"ỉ":{"ha":303,"x_min":46,"x_max":278,"o":"m 122 0 l 122 694 l 181 694 l 181 0 l 122 0 m 126 763 l 126 790 q 141 847 126 825 q 174 884 156 868 q 206 916 192 900 q 221 954 221 932 q 203 986 221 975 q 149 997 186 997 q 106 992 128 997 q 58 975 85 988 l 46 1019 q 96 1041 68 1035 q 154 1047 124 1047 q 245 1024 213 1047 q 278 957 278 1000 q 263 902 278 922 q 227 867 247 882 q 192 833 207 851 q 176 783 176 814 l 176 763 l 126 763 z "},"ȋ":{"ha":303,"x_min":-49,"x_max":351,"o":"m 122 0 l 122 694 l 181 694 l 181 0 l 122 0 m -3 751 l -49 757 q -18 897 -43 839 q 51 985 7 954 q 151 1017 94 1017 q 253 985 210 1017 q 322 897 296 954 q 351 757 347 839 l 306 751 q 260 910 300 854 q 151 967 221 967 q 43 910 83 967 q -3 751 3 854 z "},"ī":{"ha":303,"x_min":-43,"x_max":346,"o":"m 122 0 l 122 694 l 181 694 l 181 0 l 122 0 m -43 879 l -43 932 l 346 932 l 346 879 l -43 879 z "},"į":{"ha":303,"x_min":28,"x_max":257,"o":"m 122 0 l 122 694 l 181 694 l 181 0 l 122 0 m 107 860 l 107 947 l 196 947 l 196 860 l 107 860 m 158 -264 q 65 -229 101 -264 q 28 -136 28 -194 q 60 -35 28 -83 q 153 43 93 13 l 182 0 q 138 -26 161 -8 q 99 -71 115 -44 q 82 -131 82 -97 q 106 -194 82 -174 q 165 -214 131 -214 q 201 -210 183 -214 q 239 -196 219 -206 l 257 -240 q 217 -257 243 -250 q 158 -264 190 -264 z "},"ĩ":{"ha":303,"x_min":-82,"x_max":385,"o":"m 122 0 l 122 694 l 181 694 l 181 0 l 122 0 m -37 826 l -82 829 q -39 953 -74 910 q 51 997 -4 997 q 106 981 81 997 q 165 932 132 965 q 215 890 196 901 q 251 879 233 879 q 340 1000 324 879 l 385 997 q 342 873 376 917 q 253 829 307 829 q 199 845 225 829 q 138 894 174 861 q 89 935 107 924 q 51 947 71 947 q -7 916 15 947 q -37 826 -29 885 z "},"j":{"ha":303,"x_min":-71,"x_max":207,"o":"m 13 -303 q -28 -298 -1 -303 q -71 -287 -56 -293 l -71 -232 q -32 -243 -56 -237 q 10 -249 -8 -249 q 104 -206 75 -249 q 133 -71 133 -162 l 133 694 l 192 694 l 192 -83 q 146 -247 192 -192 q 13 -303 100 -303 m 118 876 l 118 964 l 207 964 l 207 876 l 118 876 z "},"ȷ":{"ha":303,"x_min":-71,"x_max":192,"o":"m 13 -303 q -28 -298 -1 -303 q -71 -287 -56 -293 l -71 -232 q -32 -243 -56 -237 q 10 -249 -8 -249 q 104 -206 75 -249 q 133 -71 133 -162 l 133 694 l 192 694 l 192 -83 q 146 -247 192 -192 q 13 -303 100 -303 z "},"ĵ":{"ha":303,"x_min":-71,"x_max":347,"o":"m 13 -303 q -28 -298 -1 -303 q -71 -287 -56 -293 l -71 -232 q -32 -243 -56 -237 q 10 -249 -8 -249 q 104 -206 75 -249 q 133 -71 133 -162 l 133 694 l 192 694 l 192 -83 q 146 -247 192 -192 q 13 -303 100 -303 m -22 763 l 129 1040 l 196 1040 l 347 763 l 299 763 l 163 986 l 26 763 l -22 763 z "},"k":{"ha":669,"x_min":122,"x_max":669,"o":"m 122 0 l 122 1022 l 181 1022 l 181 374 l 183 374 l 543 694 l 624 694 l 217 335 l 221 381 l 669 0 l 585 0 l 183 340 l 181 340 l 181 0 l 122 0 z "},"ǩ":{"ha":669,"x_min":122,"x_max":669,"o":"m 122 0 l 122 1022 l 181 1022 l 181 374 l 183 374 l 543 694 l 624 694 l 217 335 l 221 381 l 669 0 l 585 0 l 183 340 l 181 340 l 181 0 l 122 0 m 311 1063 l 143 1299 l 194 1299 l 344 1115 l 494 1299 l 546 1299 l 378 1063 l 311 1063 z "},"ķ":{"ha":669,"x_min":122,"x_max":669,"o":"m 122 0 l 122 1022 l 181 1022 l 181 374 l 183 374 l 543 694 l 624 694 l 217 335 l 221 381 l 669 0 l 585 0 l 183 340 l 181 340 l 181 0 l 122 0 m 318 -360 l 282 -332 q 324 -265 314 -296 q 335 -200 335 -235 l 356 -210 l 286 -210 l 286 -119 l 383 -119 l 383 -194 q 367 -284 383 -242 q 318 -360 350 -326 z "},"ĸ":{"ha":669,"x_min":122,"x_max":669,"o":"m 122 0 l 122 694 l 181 694 l 181 374 l 183 374 l 543 694 l 624 694 l 217 335 l 221 381 l 669 0 l 585 0 l 183 340 l 181 340 l 181 0 l 122 0 z "},"l":{"ha":303,"x_min":122,"x_max":181,"o":"m 122 0 l 122 1022 l 181 1022 l 181 0 l 122 0 z "},"ĺ":{"ha":303,"x_min":122,"x_max":367,"o":"m 122 0 l 122 1022 l 181 1022 l 181 0 l 122 0 m 125 1063 l 289 1299 l 367 1299 l 178 1063 l 125 1063 z "},"ľ":{"ha":303,"x_min":122,"x_max":321,"o":"m 122 0 l 122 1022 l 181 1022 l 181 0 l 122 0 m 253 761 l 253 1022 l 321 1022 l 290 761 l 253 761 z "},"ļ":{"ha":303,"x_min":99,"x_max":200,"o":"m 122 0 l 122 1022 l 181 1022 l 181 0 l 122 0 m 135 -360 l 99 -332 q 141 -265 131 -296 q 151 -200 151 -235 l 172 -210 l 103 -210 l 103 -119 l 200 -119 l 200 -194 q 183 -284 200 -242 q 135 -360 167 -326 z "},"ŀ":{"ha":303,"x_min":122,"x_max":354,"o":"m 122 0 l 122 1022 l 181 1022 l 181 0 l 122 0 m 258 449 l 258 543 l 354 543 l 354 449 l 258 449 z "},"ḷ":{"ha":303,"x_min":107,"x_max":196,"o":"m 122 0 l 122 1022 l 181 1022 l 181 0 l 122 0 m 107 -239 l 107 -151 l 196 -151 l 196 -239 l 107 -239 z "},"ǉ":{"ha":606,"x_min":122,"x_max":510,"o":"m 122 0 l 122 1022 l 181 1022 l 181 0 l 122 0 m 315 -303 q 274 -298 301 -303 q 232 -287 247 -293 l 232 -232 q 271 -243 247 -237 q 313 -249 294 -249 q 407 -206 378 -249 q 436 -71 436 -162 l 436 694 l 494 694 l 494 -83 q 449 -247 494 -192 q 315 -303 403 -303 m 421 876 l 421 964 l 510 964 l 510 876 l 421 876 z "},"ḻ":{"ha":303,"x_min":-43,"x_max":346,"o":"m 122 0 l 122 1022 l 181 1022 l 181 0 l 122 0 m -43 -206 l -43 -153 l 346 -153 l 346 -206 l -43 -206 z "},"ł":{"ha":303,"x_min":-21,"x_max":324,"o":"m 122 0 l 122 1022 l 181 1022 l 181 0 l 122 0 m 7 381 l -21 426 l 296 611 l 324 565 l 7 381 z "},"m":{"ha":1194,"x_min":111,"x_max":1076,"o":"m 122 0 l 122 544 q 119 618 122 581 q 111 694 115 656 l 168 694 l 181 528 l 164 528 q 251 660 190 614 q 400 706 313 706 q 547 662 492 706 q 619 526 603 618 l 600 526 q 690 657 624 608 q 849 706 756 706 q 1018 642 960 706 q 1076 442 1076 578 l 1076 0 l 1018 0 l 1018 436 q 978 600 1018 549 q 847 651 938 651 q 687 583 746 651 q 628 400 628 515 l 628 0 l 569 0 l 569 436 q 529 600 569 549 q 399 651 489 651 q 239 583 297 651 q 181 400 181 515 l 181 0 l 122 0 z "},"ṃ":{"ha":1194,"x_min":111,"x_max":1076,"o":"m 122 0 l 122 544 q 119 618 122 581 q 111 694 115 656 l 168 694 l 181 528 l 164 528 q 251 660 190 614 q 400 706 313 706 q 547 662 492 706 q 619 526 603 618 l 600 526 q 690 657 624 608 q 849 706 756 706 q 1018 642 960 706 q 1076 442 1076 578 l 1076 0 l 1018 0 l 1018 436 q 978 600 1018 549 q 847 651 938 651 q 687 583 746 651 q 628 400 628 515 l 628 0 l 569 0 l 569 436 q 529 600 569 549 q 399 651 489 651 q 239 583 297 651 q 181 400 181 515 l 181 0 l 122 0 m 553 -239 l 553 -151 l 642 -151 l 642 -239 l 553 -239 z "},"n":{"ha":792,"x_min":111,"x_max":674,"o":"m 122 0 l 122 544 q 119 618 122 581 q 111 694 115 656 l 168 694 l 181 528 l 164 528 q 262 660 193 615 q 424 706 331 706 q 610 642 547 706 q 674 442 674 578 l 674 0 l 615 0 l 615 436 q 569 600 615 549 q 425 651 524 651 q 247 583 313 651 q 181 400 181 515 l 181 0 l 122 0 z "},"ń":{"ha":792,"x_min":111,"x_max":674,"o":"m 122 0 l 122 544 q 119 618 122 581 q 111 694 115 656 l 168 694 l 181 528 l 164 528 q 262 660 193 615 q 424 706 331 706 q 610 642 547 706 q 674 442 674 578 l 674 0 l 615 0 l 615 436 q 569 600 615 549 q 425 651 524 651 q 247 583 313 651 q 181 400 181 515 l 181 0 l 122 0 m 369 763 l 514 1040 l 589 1040 l 419 763 l 369 763 z "},"ŉ":{"ha":919,"x_min":118,"x_max":801,"o":"m 154 799 l 118 826 q 156 888 149 860 q 164 943 164 917 l 190 935 l 119 935 l 119 1032 l 215 1032 l 215 956 q 203 873 215 913 q 154 799 190 833 m 250 0 l 250 544 q 247 618 250 581 q 239 694 243 656 l 296 694 l 308 528 l 292 528 q 390 660 321 615 q 551 706 458 706 q 738 642 675 706 q 801 442 801 578 l 801 0 l 743 0 l 743 436 q 697 600 743 549 q 553 651 651 651 q 374 583 440 651 q 308 400 308 515 l 308 0 l 250 0 z "},"ň":{"ha":792,"x_min":111,"x_max":674,"o":"m 122 0 l 122 544 q 119 618 122 581 q 111 694 115 656 l 168 694 l 181 528 l 164 528 q 262 660 193 615 q 424 706 331 706 q 610 642 547 706 q 674 442 674 578 l 674 0 l 615 0 l 615 436 q 569 600 615 549 q 425 651 524 651 q 247 583 313 651 q 181 400 181 515 l 181 0 l 122 0 m 361 763 l 210 1040 l 258 1040 l 394 817 l 531 1040 l 579 1040 l 428 763 l 361 763 z "},"ņ":{"ha":792,"x_min":111,"x_max":674,"o":"m 122 0 l 122 544 q 119 618 122 581 q 111 694 115 656 l 168 694 l 181 528 l 164 528 q 262 660 193 615 q 424 706 331 706 q 610 642 547 706 q 674 442 674 578 l 674 0 l 615 0 l 615 436 q 569 600 615 549 q 425 651 524 651 q 247 583 313 651 q 181 400 181 515 l 181 0 l 122 0 m 378 -360 l 342 -332 q 384 -265 374 -296 q 394 -200 394 -235 l 415 -210 l 346 -210 l 346 -119 l 443 -119 l 443 -194 q 426 -284 443 -242 q 378 -360 410 -326 z "},"ṅ":{"ha":792,"x_min":111,"x_max":674,"o":"m 122 0 l 122 544 q 119 618 122 581 q 111 694 115 656 l 168 694 l 181 528 l 164 528 q 262 660 193 615 q 424 706 331 706 q 610 642 547 706 q 674 442 674 578 l 674 0 l 615 0 l 615 436 q 569 600 615 549 q 425 651 524 651 q 247 583 313 651 q 181 400 181 515 l 181 0 l 122 0 m 350 860 l 350 947 l 439 947 l 439 860 l 350 860 z "},"ṇ":{"ha":792,"x_min":111,"x_max":674,"o":"m 122 0 l 122 544 q 119 618 122 581 q 111 694 115 656 l 168 694 l 181 528 l 164 528 q 262 660 193 615 q 424 706 331 706 q 610 642 547 706 q 674 442 674 578 l 674 0 l 615 0 l 615 436 q 569 600 615 549 q 425 651 524 651 q 247 583 313 651 q 181 400 181 515 l 181 0 l 122 0 m 350 -239 l 350 -151 l 439 -151 l 439 -239 l 350 -239 z "},"ŋ":{"ha":792,"x_min":111,"x_max":674,"o":"m 122 0 l 122 544 q 119 618 122 581 q 111 694 115 656 l 168 694 l 181 528 l 164 528 q 263 660 193 615 q 425 706 332 706 q 611 642 549 706 q 674 442 674 578 l 674 -75 q 622 -243 674 -183 q 475 -303 571 -303 q 430 -298 453 -303 q 392 -287 407 -293 l 392 -232 q 426 -243 407 -237 q 471 -249 444 -249 q 581 -201 546 -249 q 615 -62 615 -154 l 615 436 q 570 600 615 549 q 426 651 525 651 q 247 583 314 651 q 181 400 181 515 l 181 0 l 122 0 z "},"ǌ":{"ha":1094,"x_min":111,"x_max":999,"o":"m 122 0 l 122 544 q 119 618 122 581 q 111 694 115 656 l 168 694 l 181 528 l 164 528 q 262 660 193 615 q 424 706 331 706 q 610 642 547 706 q 674 442 674 578 l 674 0 l 615 0 l 615 436 q 569 600 615 549 q 425 651 524 651 q 247 583 313 651 q 181 400 181 515 l 181 0 l 122 0 m 804 -303 q 763 -298 790 -303 q 721 -287 736 -293 l 721 -232 q 760 -243 736 -237 q 801 -249 783 -249 q 896 -206 867 -249 q 925 -71 925 -162 l 925 694 l 983 694 l 983 -83 q 938 -247 983 -192 q 804 -303 892 -303 m 910 876 l 910 964 l 999 964 l 999 876 l 910 876 z "},"ṉ":{"ha":792,"x_min":111,"x_max":674,"o":"m 122 0 l 122 544 q 119 618 122 581 q 111 694 115 656 l 168 694 l 181 528 l 164 528 q 262 660 193 615 q 424 706 331 706 q 610 642 547 706 q 674 442 674 578 l 674 0 l 615 0 l 615 436 q 569 600 615 549 q 425 651 524 651 q 247 583 313 651 q 181 400 181 515 l 181 0 l 122 0 m 200 -206 l 200 -153 l 589 -153 l 589 -206 l 200 -206 z "},"ñ":{"ha":792,"x_min":111,"x_max":674,"o":"m 122 0 l 122 544 q 119 618 122 581 q 111 694 115 656 l 168 694 l 181 528 l 164 528 q 262 660 193 615 q 424 706 331 706 q 610 642 547 706 q 674 442 674 578 l 674 0 l 615 0 l 615 436 q 569 600 615 549 q 425 651 524 651 q 247 583 313 651 q 181 400 181 515 l 181 0 l 122 0 m 206 826 l 161 829 q 204 953 169 910 q 294 997 239 997 q 349 981 324 997 q 408 932 375 965 q 458 890 439 901 q 494 879 476 879 q 583 1000 567 879 l 628 997 q 585 873 619 917 q 496 829 550 829 q 442 845 468 829 q 381 894 417 861 q 332 935 350 924 q 294 947 314 947 q 236 916 258 947 q 206 826 214 885 z "},"o":{"ha":768,"x_min":75,"x_max":693,"o":"m 383 -11 q 219 32 289 -11 q 113 156 150 75 q 75 347 75 236 q 113 539 75 458 q 219 663 150 619 q 383 706 289 706 q 547 663 478 706 q 655 539 617 619 q 693 347 693 458 q 655 156 693 236 q 547 32 617 75 q 383 -11 478 -11 m 383 43 q 565 122 497 43 q 633 347 633 200 q 565 573 633 494 q 383 651 497 651 q 202 573 269 651 q 135 347 135 494 q 202 122 135 200 q 383 43 269 43 z "},"ó":{"ha":768,"x_min":75,"x_max":693,"o":"m 383 -11 q 219 32 289 -11 q 113 156 150 75 q 75 347 75 236 q 113 539 75 458 q 219 663 150 619 q 383 706 289 706 q 547 663 478 706 q 655 539 617 619 q 693 347 693 458 q 655 156 693 236 q 547 32 617 75 q 383 -11 478 -11 m 383 43 q 565 122 497 43 q 633 347 633 200 q 565 573 633 494 q 383 651 497 651 q 202 573 269 651 q 135 347 135 494 q 202 122 135 200 q 383 43 269 43 m 360 763 l 504 1040 l 579 1040 l 410 763 l 360 763 z "},"ŏ":{"ha":768,"x_min":75,"x_max":693,"o":"m 383 -11 q 219 32 289 -11 q 113 156 150 75 q 75 347 75 236 q 113 539 75 458 q 219 663 150 619 q 383 706 289 706 q 547 663 478 706 q 655 539 617 619 q 693 347 693 458 q 655 156 693 236 q 547 32 617 75 q 383 -11 478 -11 m 383 43 q 565 122 497 43 q 633 347 633 200 q 565 573 633 494 q 383 651 497 651 q 202 573 269 651 q 135 347 135 494 q 202 122 135 200 q 383 43 269 43 m 385 760 q 284 791 328 760 q 215 881 240 822 q 185 1019 190 939 l 231 1025 q 276 866 236 922 q 385 810 317 810 q 494 866 454 810 q 539 1025 533 922 l 585 1019 q 555 881 581 939 q 486 791 529 822 q 385 760 443 760 z "},"ô":{"ha":768,"x_min":75,"x_max":693,"o":"m 383 -11 q 219 32 289 -11 q 113 156 150 75 q 75 347 75 236 q 113 539 75 458 q 219 663 150 619 q 383 706 289 706 q 547 663 478 706 q 655 539 617 619 q 693 347 693 458 q 655 156 693 236 q 547 32 617 75 q 383 -11 478 -11 m 383 43 q 565 122 497 43 q 633 347 633 200 q 565 573 633 494 q 383 651 497 651 q 202 573 269 651 q 135 347 135 494 q 202 122 135 200 q 383 43 269 43 m 200 763 l 351 1040 l 418 1040 l 569 763 l 521 763 l 385 986 l 249 763 l 200 763 z "},"ố":{"ha":768,"x_min":75,"x_max":694,"o":"m 383 -11 q 219 32 289 -11 q 113 156 150 75 q 75 347 75 236 q 113 539 75 458 q 219 663 150 619 q 383 706 289 706 q 547 663 478 706 q 655 539 617 619 q 693 347 693 458 q 655 156 693 236 q 547 32 617 75 q 383 -11 478 -11 m 383 43 q 565 122 497 43 q 633 347 633 200 q 565 573 633 494 q 383 651 497 651 q 202 573 269 651 q 135 347 135 494 q 202 122 135 200 q 383 43 269 43 m 200 763 l 351 985 l 418 985 l 569 763 l 522 763 l 385 933 l 247 763 l 200 763 m 497 903 l 619 1111 l 694 1111 l 547 903 l 497 903 z "},"ộ":{"ha":768,"x_min":75,"x_max":693,"o":"m 383 -11 q 219 32 289 -11 q 113 156 150 75 q 75 347 75 236 q 113 539 75 458 q 219 663 150 619 q 383 706 289 706 q 547 663 478 706 q 655 539 617 619 q 693 347 693 458 q 655 156 693 236 q 547 32 617 75 q 383 -11 478 -11 m 383 43 q 565 122 497 43 q 633 347 633 200 q 565 573 633 494 q 383 651 497 651 q 202 573 269 651 q 135 347 135 494 q 202 122 135 200 q 383 43 269 43 m 340 -239 l 340 -151 l 429 -151 l 429 -239 l 340 -239 m 200 763 l 351 1040 l 418 1040 l 569 763 l 521 763 l 385 986 l 249 763 l 200 763 z "},"ồ":{"ha":768,"x_min":75,"x_max":693,"o":"m 383 -11 q 219 32 289 -11 q 113 156 150 75 q 75 347 75 236 q 113 539 75 458 q 219 663 150 619 q 383 706 289 706 q 547 663 478 706 q 655 539 617 619 q 693 347 693 458 q 655 156 693 236 q 547 32 617 75 q 383 -11 478 -11 m 383 43 q 565 122 497 43 q 633 347 633 200 q 565 573 633 494 q 383 651 497 651 q 202 573 269 651 q 135 347 135 494 q 202 122 135 200 q 383 43 269 43 m 200 763 l 351 985 l 418 985 l 569 763 l 522 763 l 385 933 l 247 763 l 200 763 m 554 903 l 407 1111 l 482 1111 l 604 903 l 554 903 z "},"ổ":{"ha":768,"x_min":75,"x_max":693,"o":"m 383 -11 q 219 32 289 -11 q 113 156 150 75 q 75 347 75 236 q 113 539 75 458 q 219 663 150 619 q 383 706 289 706 q 547 663 478 706 q 655 539 617 619 q 693 347 693 458 q 655 156 693 236 q 547 32 617 75 q 383 -11 478 -11 m 383 43 q 565 122 497 43 q 633 347 633 200 q 565 573 633 494 q 383 651 497 651 q 202 573 269 651 q 135 347 135 494 q 202 122 135 200 q 383 43 269 43 m 200 763 l 351 985 l 418 985 l 569 763 l 522 763 l 385 933 l 247 763 l 200 763 m 514 903 q 528 956 514 936 q 560 987 542 975 q 593 1010 579 999 q 607 1040 607 1022 q 590 1065 607 1058 q 535 1071 572 1071 q 495 1067 517 1071 q 447 1054 474 1064 l 435 1094 q 484 1111 457 1106 q 540 1117 511 1117 q 630 1097 599 1117 q 661 1044 661 1078 q 646 999 661 1015 q 611 972 631 983 q 576 944 592 960 q 561 903 561 929 l 514 903 z "},"ỗ":{"ha":768,"x_min":75,"x_max":693,"o":"m 383 -11 q 219 32 289 -11 q 113 156 150 75 q 75 347 75 236 q 113 539 75 458 q 219 663 150 619 q 383 706 289 706 q 547 663 478 706 q 655 539 617 619 q 693 347 693 458 q 655 156 693 236 q 547 32 617 75 q 383 -11 478 -11 m 383 43 q 565 122 497 43 q 633 347 633 200 q 565 573 633 494 q 383 651 497 651 q 202 573 269 651 q 135 347 135 494 q 202 122 135 200 q 383 43 269 43 m 200 763 l 351 943 l 418 943 l 569 763 l 522 763 l 385 896 l 247 763 l 200 763 m 228 979 l 182 982 q 219 1082 189 1049 q 297 1115 250 1115 q 346 1104 324 1115 q 397 1069 368 1093 q 443 1039 428 1046 q 472 1032 458 1032 q 519 1052 504 1032 q 542 1118 535 1072 l 588 1115 q 552 1015 582 1049 q 474 982 522 982 q 424 994 447 982 q 365 1033 401 1006 q 334 1055 351 1044 q 297 1065 317 1065 q 251 1045 267 1065 q 228 979 235 1025 z "},"ȍ":{"ha":768,"x_min":75,"x_max":693,"o":"m 383 -11 q 219 32 289 -11 q 113 156 150 75 q 75 347 75 236 q 113 539 75 458 q 219 663 150 619 q 383 706 289 706 q 547 663 478 706 q 655 539 617 619 q 693 347 693 458 q 655 156 693 236 q 547 32 617 75 q 383 -11 478 -11 m 383 43 q 565 122 497 43 q 633 347 633 200 q 565 573 633 494 q 383 651 497 651 q 202 573 269 651 q 135 347 135 494 q 202 122 135 200 q 383 43 269 43 m 442 763 l 332 1040 l 399 1040 l 479 763 l 442 763 m 290 763 l 181 1040 l 247 1040 l 328 763 l 290 763 z "},"ö":{"ha":768,"x_min":75,"x_max":693,"o":"m 383 -11 q 219 32 289 -11 q 113 156 150 75 q 75 347 75 236 q 113 539 75 458 q 219 663 150 619 q 383 706 289 706 q 547 663 478 706 q 655 539 617 619 q 693 347 693 458 q 655 156 693 236 q 547 32 617 75 q 383 -11 478 -11 m 383 43 q 565 122 497 43 q 633 347 633 200 q 565 573 633 494 q 383 651 497 651 q 202 573 269 651 q 135 347 135 494 q 202 122 135 200 q 383 43 269 43 m 454 861 l 454 944 l 539 944 l 539 861 l 454 861 m 231 861 l 231 944 l 315 944 l 315 861 l 231 861 z "},"ȫ":{"ha":768,"x_min":75,"x_max":693,"o":"m 383 -11 q 219 32 289 -11 q 113 156 150 75 q 75 347 75 236 q 113 539 75 458 q 219 663 150 619 q 383 706 289 706 q 547 663 478 706 q 655 539 617 619 q 693 347 693 458 q 655 156 693 236 q 547 32 617 75 q 383 -11 478 -11 m 383 43 q 565 122 497 43 q 633 347 633 200 q 565 573 633 494 q 383 651 497 651 q 202 573 269 651 q 135 347 135 494 q 202 122 135 200 q 383 43 269 43 m 190 981 l 190 1033 l 579 1033 l 579 981 l 190 981 m 231 813 l 231 896 l 315 896 l 315 813 l 231 813 m 454 813 l 454 896 l 539 896 l 539 813 l 454 813 z "},"ȱ":{"ha":768,"x_min":75,"x_max":693,"o":"m 383 -11 q 219 32 289 -11 q 113 156 150 75 q 75 347 75 236 q 113 539 75 458 q 219 663 150 619 q 383 706 289 706 q 547 663 478 706 q 655 539 617 619 q 693 347 693 458 q 655 156 693 236 q 547 32 617 75 q 383 -11 478 -11 m 383 43 q 565 122 497 43 q 633 347 633 200 q 565 573 633 494 q 383 651 497 651 q 202 573 269 651 q 135 347 135 494 q 202 122 135 200 q 383 43 269 43 m 190 981 l 190 1033 l 579 1033 l 579 981 l 190 981 m 343 813 l 343 896 l 428 896 l 428 813 l 343 813 z "},"ọ":{"ha":768,"x_min":75,"x_max":693,"o":"m 383 -11 q 219 32 289 -11 q 113 156 150 75 q 75 347 75 236 q 113 539 75 458 q 219 663 150 619 q 383 706 289 706 q 547 663 478 706 q 655 539 617 619 q 693 347 693 458 q 655 156 693 236 q 547 32 617 75 q 383 -11 478 -11 m 383 43 q 565 122 497 43 q 633 347 633 200 q 565 573 633 494 q 383 651 497 651 q 202 573 269 651 q 135 347 135 494 q 202 122 135 200 q 383 43 269 43 m 340 -239 l 340 -151 l 429 -151 l 429 -239 l 340 -239 z "},"ò":{"ha":768,"x_min":75,"x_max":693,"o":"m 383 -11 q 219 32 289 -11 q 113 156 150 75 q 75 347 75 236 q 113 539 75 458 q 219 663 150 619 q 383 706 289 706 q 547 663 478 706 q 655 539 617 619 q 693 347 693 458 q 655 156 693 236 q 547 32 617 75 q 383 -11 478 -11 m 383 43 q 565 122 497 43 q 633 347 633 200 q 565 573 633 494 q 383 651 497 651 q 202 573 269 651 q 135 347 135 494 q 202 122 135 200 q 383 43 269 43 m 360 763 l 190 1040 l 265 1040 l 410 763 l 360 763 z "},"ỏ":{"ha":768,"x_min":75,"x_max":693,"o":"m 383 -11 q 219 32 289 -11 q 113 156 150 75 q 75 347 75 236 q 113 539 75 458 q 219 663 150 619 q 383 706 289 706 q 547 663 478 706 q 655 539 617 619 q 693 347 693 458 q 655 156 693 236 q 547 32 617 75 q 383 -11 478 -11 m 383 43 q 565 122 497 43 q 633 347 633 200 q 565 573 633 494 q 383 651 497 651 q 202 573 269 651 q 135 347 135 494 q 202 122 135 200 q 383 43 269 43 m 360 763 l 360 790 q 374 847 360 825 q 407 884 389 868 q 440 916 425 900 q 454 954 454 932 q 437 986 454 975 q 382 997 419 997 q 340 992 361 997 q 292 975 318 988 l 279 1019 q 329 1041 301 1035 q 388 1047 357 1047 q 478 1024 446 1047 q 511 957 511 1000 q 496 902 511 922 q 460 867 481 882 q 425 833 440 851 q 410 783 410 814 l 410 763 l 360 763 z "},"ơ":{"ha":768,"x_min":75,"x_max":693,"o":"m 383 -11 q 219 32 289 -11 q 113 156 150 75 q 75 347 75 236 q 113 539 75 458 q 219 663 150 619 q 383 706 289 706 q 547 663 478 706 q 655 539 617 619 q 693 347 693 458 q 655 156 693 236 q 547 32 617 75 q 383 -11 478 -11 m 383 43 q 565 122 497 43 q 633 347 633 200 q 565 573 633 494 q 383 651 497 651 q 202 573 269 651 q 135 347 135 494 q 202 122 135 200 q 383 43 269 43 m 471 642 l 450 660 l 450 694 q 553 715 517 696 q 603 771 589 733 q 617 861 617 808 l 617 878 l 672 878 l 672 850 q 649 740 672 785 q 581 669 626 694 q 471 642 536 644 z "},"ớ":{"ha":768,"x_min":75,"x_max":693,"o":"m 383 -11 q 219 32 289 -11 q 113 156 150 75 q 75 347 75 236 q 113 539 75 458 q 219 663 150 619 q 383 706 289 706 q 547 663 478 706 q 655 539 617 619 q 693 347 693 458 q 655 156 693 236 q 547 32 617 75 q 383 -11 478 -11 m 383 43 q 565 122 497 43 q 633 347 633 200 q 565 573 633 494 q 383 651 497 651 q 202 573 269 651 q 135 347 135 494 q 202 122 135 200 q 383 43 269 43 m 471 642 l 450 660 l 450 694 q 553 715 517 696 q 603 771 589 733 q 617 861 617 808 l 617 878 l 672 878 l 672 850 q 649 740 672 785 q 581 669 626 694 q 471 642 536 644 m 358 763 l 503 1040 l 578 1040 l 408 763 l 358 763 z "},"ợ":{"ha":768,"x_min":75,"x_max":693,"o":"m 383 -11 q 219 32 289 -11 q 113 156 150 75 q 75 347 75 236 q 113 539 75 458 q 219 663 150 619 q 383 706 289 706 q 547 663 478 706 q 655 539 617 619 q 693 347 693 458 q 655 156 693 236 q 547 32 617 75 q 383 -11 478 -11 m 383 43 q 565 122 497 43 q 633 347 633 200 q 565 573 633 494 q 383 651 497 651 q 202 573 269 651 q 135 347 135 494 q 202 122 135 200 q 383 43 269 43 m 471 642 l 450 660 l 450 694 q 553 715 517 696 q 603 771 589 733 q 617 861 617 808 l 617 878 l 672 878 l 672 850 q 649 740 672 785 q 581 669 626 694 q 471 642 536 644 m 339 -239 l 339 -151 l 428 -151 l 428 -239 l 339 -239 z "},"ờ":{"ha":768,"x_min":75,"x_max":693,"o":"m 383 -11 q 219 32 289 -11 q 113 156 150 75 q 75 347 75 236 q 113 539 75 458 q 219 663 150 619 q 383 706 289 706 q 547 663 478 706 q 655 539 617 619 q 693 347 693 458 q 655 156 693 236 q 547 32 617 75 q 383 -11 478 -11 m 383 43 q 565 122 497 43 q 633 347 633 200 q 565 573 633 494 q 383 651 497 651 q 202 573 269 651 q 135 347 135 494 q 202 122 135 200 q 383 43 269 43 m 471 642 l 450 660 l 450 694 q 553 715 517 696 q 603 771 589 733 q 617 861 617 808 l 617 878 l 672 878 l 672 850 q 649 740 672 785 q 581 669 626 694 q 471 642 536 644 m 358 763 l 189 1040 l 264 1040 l 408 763 l 358 763 z "},"ở":{"ha":768,"x_min":75,"x_max":693,"o":"m 383 -11 q 219 32 289 -11 q 113 156 150 75 q 75 347 75 236 q 113 539 75 458 q 219 663 150 619 q 383 706 289 706 q 547 663 478 706 q 655 539 617 619 q 693 347 693 458 q 655 156 693 236 q 547 32 617 75 q 383 -11 478 -11 m 383 43 q 565 122 497 43 q 633 347 633 200 q 565 573 633 494 q 383 651 497 651 q 202 573 269 651 q 135 347 135 494 q 202 122 135 200 q 383 43 269 43 m 471 642 l 450 660 l 450 694 q 553 715 517 696 q 603 771 589 733 q 617 861 617 808 l 617 878 l 672 878 l 672 850 q 649 740 672 785 q 581 669 626 694 q 471 642 536 644 m 358 763 l 358 790 q 373 847 358 825 q 406 884 388 868 q 438 916 424 900 q 453 954 453 932 q 435 986 453 975 q 381 997 418 997 q 338 992 360 997 q 290 975 317 988 l 278 1019 q 328 1041 300 1035 q 386 1047 356 1047 q 477 1024 444 1047 q 510 957 510 1000 q 494 902 510 922 q 459 867 479 882 q 424 833 439 851 q 408 783 408 814 l 408 763 l 358 763 z "},"ỡ":{"ha":768,"x_min":75,"x_max":693,"o":"m 383 -11 q 219 32 289 -11 q 113 156 150 75 q 75 347 75 236 q 113 539 75 458 q 219 663 150 619 q 383 706 289 706 q 547 663 478 706 q 655 539 617 619 q 693 347 693 458 q 655 156 693 236 q 547 32 617 75 q 383 -11 478 -11 m 383 43 q 565 122 497 43 q 633 347 633 200 q 565 573 633 494 q 383 651 497 651 q 202 573 269 651 q 135 347 135 494 q 202 122 135 200 q 383 43 269 43 m 471 642 l 450 660 l 450 694 q 553 715 517 696 q 603 771 589 733 q 617 861 617 808 l 617 878 l 672 878 l 672 850 q 649 740 672 785 q 581 669 626 694 q 471 642 536 644 m 194 826 l 150 829 q 193 953 158 910 q 283 997 228 997 q 335 983 310 997 q 397 932 360 969 q 447 890 429 901 q 483 879 465 879 q 572 1000 556 879 l 617 997 q 574 873 608 917 q 485 829 539 829 q 428 846 454 829 q 369 894 401 863 q 321 935 339 924 q 283 947 303 947 q 194 826 211 947 z "},"ő":{"ha":768,"x_min":75,"x_max":693,"o":"m 383 -11 q 219 32 289 -11 q 113 156 150 75 q 75 347 75 236 q 113 539 75 458 q 219 663 150 619 q 383 706 289 706 q 547 663 478 706 q 655 539 617 619 q 693 347 693 458 q 655 156 693 236 q 547 32 617 75 q 383 -11 478 -11 m 383 43 q 565 122 497 43 q 633 347 633 200 q 565 573 633 494 q 383 651 497 651 q 202 573 269 651 q 135 347 135 494 q 202 122 135 200 q 383 43 269 43 m 442 763 l 522 1040 l 589 1040 l 479 763 l 442 763 m 290 763 l 371 1040 l 438 1040 l 328 763 l 290 763 z "},"ȏ":{"ha":768,"x_min":75,"x_max":693,"o":"m 383 -11 q 219 32 289 -11 q 113 156 150 75 q 75 347 75 236 q 113 539 75 458 q 219 663 150 619 q 383 706 289 706 q 547 663 478 706 q 655 539 617 619 q 693 347 693 458 q 655 156 693 236 q 547 32 617 75 q 383 -11 478 -11 m 383 43 q 565 122 497 43 q 633 347 633 200 q 565 573 633 494 q 383 651 497 651 q 202 573 269 651 q 135 347 135 494 q 202 122 135 200 q 383 43 269 43 m 231 751 l 185 757 q 215 897 190 839 q 284 985 240 954 q 385 1017 328 1017 q 486 985 443 1017 q 555 897 529 954 q 585 757 581 839 l 539 751 q 494 910 533 854 q 385 967 454 967 q 276 910 317 967 q 231 751 236 854 z "},"ō":{"ha":768,"x_min":75,"x_max":693,"o":"m 383 -11 q 219 32 289 -11 q 113 156 150 75 q 75 347 75 236 q 113 539 75 458 q 219 663 150 619 q 383 706 289 706 q 547 663 478 706 q 655 539 617 619 q 693 347 693 458 q 655 156 693 236 q 547 32 617 75 q 383 -11 478 -11 m 383 43 q 565 122 497 43 q 633 347 633 200 q 565 573 633 494 q 383 651 497 651 q 202 573 269 651 q 135 347 135 494 q 202 122 135 200 q 383 43 269 43 m 190 879 l 190 932 l 579 932 l 579 879 l 190 879 z "},"ṓ":{"ha":768,"x_min":75,"x_max":693,"o":"m 383 -11 q 219 32 289 -11 q 113 156 150 75 q 75 347 75 236 q 113 539 75 458 q 219 663 150 619 q 383 706 289 706 q 547 663 478 706 q 655 539 617 619 q 693 347 693 458 q 655 156 693 236 q 547 32 617 75 q 383 -11 478 -11 m 383 43 q 565 122 497 43 q 633 347 633 200 q 565 573 633 494 q 383 651 497 651 q 202 573 269 651 q 135 347 135 494 q 202 122 135 200 q 383 43 269 43 m 190 799 l 190 851 l 579 851 l 579 799 l 190 799 m 360 903 l 496 1111 l 571 1111 l 410 903 l 360 903 z "},"ṑ":{"ha":768,"x_min":75,"x_max":693,"o":"m 383 -11 q 219 32 289 -11 q 113 156 150 75 q 75 347 75 236 q 113 539 75 458 q 219 663 150 619 q 383 706 289 706 q 547 663 478 706 q 655 539 617 619 q 693 347 693 458 q 655 156 693 236 q 547 32 617 75 q 383 -11 478 -11 m 383 43 q 565 122 497 43 q 633 347 633 200 q 565 573 633 494 q 383 651 497 651 q 202 573 269 651 q 135 347 135 494 q 202 122 135 200 q 383 43 269 43 m 190 799 l 190 851 l 579 851 l 579 799 l 190 799 m 360 903 l 199 1111 l 274 1111 l 410 903 l 360 903 z "},"ǫ":{"ha":768,"x_min":75,"x_max":693,"o":"m 383 -11 q 219 32 289 -11 q 113 156 150 75 q 75 347 75 236 q 113 539 75 458 q 219 663 150 619 q 383 706 289 706 q 547 663 478 706 q 655 539 617 619 q 693 347 693 458 q 655 156 693 236 q 547 32 617 75 q 383 -11 478 -11 m 383 43 q 565 122 497 43 q 633 347 633 200 q 565 573 633 494 q 383 651 497 651 q 202 573 269 651 q 135 347 135 494 q 202 122 135 200 q 383 43 269 43 m 438 -264 q 344 -229 381 -264 q 307 -136 307 -194 q 340 -35 307 -83 q 432 43 372 13 l 461 0 q 417 -26 440 -8 q 378 -71 394 -44 q 361 -131 361 -97 q 385 -194 361 -174 q 444 -214 410 -214 q 481 -210 463 -214 q 518 -196 499 -206 l 536 -240 q 496 -257 522 -250 q 438 -264 469 -264 z "},"ø":{"ha":768,"x_min":75,"x_max":693,"o":"m 383 -11 q 219 32 289 -11 q 113 156 150 75 q 75 347 75 236 q 113 539 75 458 q 219 663 150 619 q 383 706 289 706 q 547 663 478 706 q 655 539 617 619 q 693 347 693 458 q 655 156 693 236 q 547 32 617 75 q 383 -11 478 -11 m 383 43 q 565 122 497 43 q 633 347 633 200 q 565 573 633 494 q 383 651 497 651 q 202 573 269 651 q 135 347 135 494 q 202 122 135 200 q 383 43 269 43 m 188 -43 l 146 -17 l 582 738 l 624 711 l 188 -43 z "},"ǿ":{"ha":768,"x_min":75,"x_max":693,"o":"m 383 -11 q 219 32 289 -11 q 113 156 150 75 q 75 347 75 236 q 113 539 75 458 q 219 663 150 619 q 383 706 289 706 q 547 663 478 706 q 655 539 617 619 q 693 347 693 458 q 655 156 693 236 q 547 32 617 75 q 383 -11 478 -11 m 383 43 q 565 122 497 43 q 633 347 633 200 q 565 573 633 494 q 383 651 497 651 q 202 573 269 651 q 135 347 135 494 q 202 122 135 200 q 383 43 269 43 m 188 -43 l 146 -17 l 582 738 l 624 711 l 188 -43 m 358 763 l 503 1040 l 578 1040 l 408 763 l 358 763 z "},"õ":{"ha":768,"x_min":75,"x_max":693,"o":"m 383 -11 q 219 32 289 -11 q 113 156 150 75 q 75 347 75 236 q 113 539 75 458 q 219 663 150 619 q 383 706 289 706 q 547 663 478 706 q 655 539 617 619 q 693 347 693 458 q 655 156 693 236 q 547 32 617 75 q 383 -11 478 -11 m 383 43 q 565 122 497 43 q 633 347 633 200 q 565 573 633 494 q 383 651 497 651 q 202 573 269 651 q 135 347 135 494 q 202 122 135 200 q 383 43 269 43 m 196 826 l 151 829 q 194 953 160 910 q 285 997 229 997 q 340 981 314 997 q 399 932 365 965 q 448 890 429 901 q 485 879 467 879 q 574 1000 557 879 l 618 997 q 575 873 610 917 q 486 829 540 829 q 433 845 458 829 q 371 894 407 861 q 322 935 340 924 q 285 947 304 947 q 226 916 249 947 q 196 826 204 885 z "},"ṍ":{"ha":768,"x_min":75,"x_max":693,"o":"m 383 -11 q 219 32 289 -11 q 113 156 150 75 q 75 347 75 236 q 113 539 75 458 q 219 663 150 619 q 383 706 289 706 q 547 663 478 706 q 655 539 617 619 q 693 347 693 458 q 655 156 693 236 q 547 32 617 75 q 383 -11 478 -11 m 383 43 q 565 122 497 43 q 633 347 633 200 q 565 573 633 494 q 383 651 497 651 q 202 573 269 651 q 135 347 135 494 q 202 122 135 200 q 383 43 269 43 m 228 757 l 182 760 q 219 860 189 826 q 297 893 250 893 q 344 883 321 893 q 397 847 367 872 q 440 818 424 826 q 472 810 456 810 q 519 830 504 810 q 542 896 535 850 l 588 893 q 551 793 582 826 q 474 760 521 760 q 426 771 449 760 q 372 806 403 782 q 331 834 347 825 q 297 843 314 843 q 251 823 267 843 q 228 757 235 803 m 360 903 l 496 1111 l 571 1111 l 410 903 l 360 903 z "},"ṏ":{"ha":768,"x_min":75,"x_max":693,"o":"m 383 -11 q 219 32 289 -11 q 113 156 150 75 q 75 347 75 236 q 113 539 75 458 q 219 663 150 619 q 383 706 289 706 q 547 663 478 706 q 655 539 617 619 q 693 347 693 458 q 655 156 693 236 q 547 32 617 75 q 383 -11 478 -11 m 383 43 q 565 122 497 43 q 633 347 633 200 q 565 573 633 494 q 383 651 497 651 q 202 573 269 651 q 135 347 135 494 q 202 122 135 200 q 383 43 269 43 m 228 757 l 182 760 q 219 860 189 826 q 297 893 250 893 q 344 883 321 893 q 397 847 367 872 q 440 818 424 826 q 472 810 456 810 q 519 830 504 810 q 542 896 535 850 l 588 893 q 551 793 582 826 q 474 760 521 760 q 426 771 449 760 q 372 806 403 782 q 331 834 347 825 q 297 843 314 843 q 251 823 267 843 q 228 757 235 803 m 231 957 l 231 1040 l 315 1040 l 315 957 l 231 957 m 454 957 l 454 1040 l 539 1040 l 539 957 l 454 957 z "},"ȭ":{"ha":768,"x_min":75,"x_max":693,"o":"m 383 -11 q 219 32 289 -11 q 113 156 150 75 q 75 347 75 236 q 113 539 75 458 q 219 663 150 619 q 383 706 289 706 q 547 663 478 706 q 655 539 617 619 q 693 347 693 458 q 655 156 693 236 q 547 32 617 75 q 383 -11 478 -11 m 383 43 q 565 122 497 43 q 633 347 633 200 q 565 573 633 494 q 383 651 497 651 q 202 573 269 651 q 135 347 135 494 q 202 122 135 200 q 383 43 269 43 m 190 981 l 190 1033 l 579 1033 l 579 981 l 190 981 m 228 757 l 182 760 q 219 860 189 826 q 297 893 250 893 q 344 883 321 893 q 397 847 367 872 q 440 818 424 826 q 472 810 456 810 q 519 830 504 810 q 542 896 535 850 l 588 893 q 551 793 582 826 q 474 760 521 760 q 426 771 449 760 q 372 806 403 782 q 331 834 347 825 q 297 843 314 843 q 251 823 267 843 q 228 757 235 803 z "},"œ":{"ha":1300,"x_min":75,"x_max":1229,"o":"m 385 -11 q 221 32 290 -11 q 113 156 151 75 q 75 347 75 236 q 113 539 75 458 q 221 663 151 619 q 385 706 290 706 q 574 642 496 706 q 679 460 653 578 l 650 460 q 759 642 678 578 q 951 706 840 706 q 1156 620 1082 706 q 1229 388 1229 535 l 1229 350 l 668 350 l 668 403 l 1199 403 l 1175 389 q 1117 582 1175 511 q 947 653 1058 653 q 763 569 829 653 q 696 353 696 486 l 696 344 q 765 121 696 199 q 963 43 835 43 q 1080 65 1024 43 q 1189 135 1136 88 l 1218 89 q 1149 35 1190 57 q 1060 1 1108 13 q 964 -11 1013 -11 q 757 51 838 -11 q 649 231 676 113 l 676 231 q 573 51 650 114 q 385 -11 496 -11 m 385 43 q 567 122 499 43 q 635 347 635 200 q 567 573 635 494 q 385 651 499 651 q 203 573 271 651 q 135 347 135 494 q 203 122 135 200 q 385 43 271 43 z "},"p":{"ha":810,"x_min":111,"x_max":735,"o":"m 122 -300 l 122 544 q 119 618 122 581 q 111 694 115 656 l 168 694 l 182 513 l 165 513 q 258 654 189 603 q 426 706 326 706 q 590 663 521 706 q 697 540 658 619 q 735 347 735 460 q 697 156 735 236 q 590 32 660 75 q 426 -11 521 -11 q 258 40 326 -11 q 165 182 189 92 l 181 182 l 181 -300 l 122 -300 m 426 43 q 608 122 540 43 q 675 347 675 200 q 608 573 675 494 q 426 651 540 651 q 246 573 313 651 q 179 347 179 494 q 246 122 179 200 q 426 43 313 43 z "},"þ":{"ha":810,"x_min":122,"x_max":735,"o":"m 122 -300 l 122 1022 l 181 1022 l 181 513 l 165 513 q 258 654 189 603 q 428 706 328 706 q 591 663 522 706 q 697 540 660 619 q 735 347 735 460 q 697 156 735 236 q 591 32 660 75 q 428 -11 522 -11 q 258 40 328 -11 q 165 182 189 92 l 181 182 l 181 -300 l 122 -300 m 428 43 q 608 122 542 43 q 675 347 675 200 q 608 573 675 494 q 428 651 542 651 q 247 573 314 651 q 179 347 179 494 q 247 122 179 200 q 428 43 314 43 z "},"q":{"ha":810,"x_min":75,"x_max":699,"o":"m 629 -300 l 629 182 l 644 182 q 551 40 622 92 q 383 -11 481 -11 q 219 32 289 -11 q 113 156 150 75 q 75 347 75 236 q 113 540 75 460 q 221 663 151 619 q 383 706 290 706 q 552 654 482 706 q 644 513 622 603 l 628 513 l 642 694 l 699 694 q 691 618 694 656 q 688 544 688 581 l 688 -300 l 629 -300 m 383 43 q 564 122 497 43 q 631 347 631 200 q 564 573 631 494 q 383 651 497 651 q 202 573 269 651 q 135 347 135 494 q 202 122 135 200 q 383 43 269 43 z "},"r":{"ha":467,"x_min":111,"x_max":457,"o":"m 119 0 l 119 536 q 117 615 119 575 q 111 694 115 656 l 168 694 l 176 543 l 164 542 q 215 633 178 597 q 299 688 251 669 q 394 706 347 706 q 427 704 411 706 q 457 699 443 703 l 454 644 q 424 650 440 649 q 390 651 408 651 q 278 619 326 651 q 204 538 231 586 q 178 444 178 490 l 178 0 l 119 0 z "},"ŕ":{"ha":467,"x_min":111,"x_max":483,"o":"m 119 0 l 119 536 q 117 615 119 575 q 111 694 115 656 l 168 694 l 176 543 l 164 542 q 215 633 178 597 q 299 688 251 669 q 394 706 347 706 q 427 704 411 706 q 457 699 443 703 l 454 644 q 424 650 440 649 q 390 651 408 651 q 278 619 326 651 q 204 538 231 586 q 178 444 178 490 l 178 0 l 119 0 m 264 763 l 408 1040 l 483 1040 l 314 763 l 264 763 z "},"ř":{"ha":467,"x_min":104,"x_max":474,"o":"m 119 0 l 119 536 q 117 615 119 575 q 111 694 115 656 l 168 694 l 176 543 l 164 542 q 215 633 178 597 q 299 688 251 669 q 394 706 347 706 q 427 704 411 706 q 457 699 443 703 l 454 644 q 424 650 440 649 q 390 651 408 651 q 278 619 326 651 q 204 538 231 586 q 178 444 178 490 l 178 0 l 119 0 m 256 763 l 104 1040 l 153 1040 l 289 817 l 425 1040 l 474 1040 l 322 763 l 256 763 z "},"ŗ":{"ha":467,"x_min":96,"x_max":457,"o":"m 119 0 l 119 536 q 117 615 119 575 q 111 694 115 656 l 168 694 l 176 543 l 164 542 q 215 633 178 597 q 299 688 251 669 q 394 706 347 706 q 427 704 411 706 q 457 699 443 703 l 454 644 q 424 650 440 649 q 390 651 408 651 q 278 619 326 651 q 204 538 231 586 q 178 444 178 490 l 178 0 l 119 0 m 132 -360 l 96 -332 q 138 -265 128 -296 q 149 -200 149 -235 l 169 -210 l 100 -210 l 100 -119 l 197 -119 l 197 -194 q 181 -284 197 -242 q 132 -360 164 -326 z "},"ȑ":{"ha":467,"x_min":85,"x_max":457,"o":"m 119 0 l 119 536 q 117 615 119 575 q 111 694 115 656 l 168 694 l 176 543 l 164 542 q 215 633 178 597 q 299 688 251 669 q 394 706 347 706 q 427 704 411 706 q 457 699 443 703 l 454 644 q 424 650 440 649 q 390 651 408 651 q 278 619 326 651 q 204 538 231 586 q 178 444 178 490 l 178 0 l 119 0 m 346 763 l 236 1040 l 303 1040 l 383 763 l 346 763 m 194 763 l 85 1040 l 151 1040 l 232 763 l 194 763 z "},"ṛ":{"ha":467,"x_min":104,"x_max":457,"o":"m 119 0 l 119 536 q 117 615 119 575 q 111 694 115 656 l 168 694 l 176 543 l 164 542 q 215 633 178 597 q 299 688 251 669 q 394 706 347 706 q 427 704 411 706 q 457 699 443 703 l 454 644 q 424 650 440 649 q 390 651 408 651 q 278 619 326 651 q 204 538 231 586 q 178 444 178 490 l 178 0 l 119 0 m 104 -239 l 104 -151 l 193 -151 l 193 -239 l 104 -239 z "},"ȓ":{"ha":467,"x_min":89,"x_max":489,"o":"m 119 0 l 119 536 q 117 615 119 575 q 111 694 115 656 l 168 694 l 176 543 l 164 542 q 215 633 178 597 q 299 688 251 669 q 394 706 347 706 q 427 704 411 706 q 457 699 443 703 l 454 644 q 424 650 440 649 q 390 651 408 651 q 278 619 326 651 q 204 538 231 586 q 178 444 178 490 l 178 0 l 119 0 m 135 751 l 89 757 q 119 897 94 839 q 188 985 144 954 q 289 1017 232 1017 q 390 985 347 1017 q 459 897 433 954 q 489 757 485 839 l 443 751 q 398 910 438 854 q 289 967 358 967 q 181 910 221 967 q 135 751 140 854 z "},"ṟ":{"ha":467,"x_min":-46,"x_max":457,"o":"m 119 0 l 119 536 q 117 615 119 575 q 111 694 115 656 l 168 694 l 176 543 l 164 542 q 215 633 178 597 q 299 688 251 669 q 394 706 347 706 q 427 704 411 706 q 457 699 443 703 l 454 644 q 424 650 440 649 q 390 651 408 651 q 278 619 326 651 q 204 538 231 586 q 178 444 178 490 l 178 0 l 119 0 m -46 -206 l -46 -153 l 343 -153 l 343 -206 l -46 -206 z "},"s":{"ha":683,"x_min":81,"x_max":597,"o":"m 339 -11 q 192 13 261 -11 q 81 81 124 38 l 110 126 q 218 63 160 83 q 342 43 276 43 q 486 79 436 43 q 536 178 536 115 q 504 256 536 226 q 399 301 472 286 l 278 328 q 146 394 189 349 q 103 508 103 440 q 133 610 103 565 q 219 680 163 654 q 351 706 275 706 q 487 681 425 706 q 586 611 549 656 l 556 565 q 463 630 514 608 q 351 651 411 651 q 213 613 261 651 q 165 510 165 574 q 195 431 165 461 q 290 385 225 400 l 411 357 q 551 292 506 335 q 597 181 597 250 q 565 79 597 122 q 475 13 533 36 q 339 -11 417 -11 z "},"ś":{"ha":683,"x_min":81,"x_max":597,"o":"m 339 -11 q 192 13 261 -11 q 81 81 124 38 l 110 126 q 218 63 160 83 q 342 43 276 43 q 486 79 436 43 q 536 178 536 115 q 504 256 536 226 q 399 301 472 286 l 278 328 q 146 394 189 349 q 103 508 103 440 q 133 610 103 565 q 219 680 163 654 q 351 706 275 706 q 487 681 425 706 q 586 611 549 656 l 556 565 q 463 630 514 608 q 351 651 411 651 q 213 613 261 651 q 165 510 165 574 q 195 431 165 461 q 290 385 225 400 l 411 357 q 551 292 506 335 q 597 181 597 250 q 565 79 597 122 q 475 13 533 36 q 339 -11 417 -11 m 325 763 l 469 1040 l 544 1040 l 375 763 l 325 763 z "},"ṥ":{"ha":683,"x_min":81,"x_max":597,"o":"m 339 -11 q 192 13 261 -11 q 81 81 124 38 l 110 126 q 218 63 160 83 q 342 43 276 43 q 486 79 436 43 q 536 178 536 115 q 504 256 536 226 q 399 301 472 286 l 278 328 q 146 394 189 349 q 103 508 103 440 q 133 610 103 565 q 219 680 163 654 q 351 706 275 706 q 487 681 425 706 q 586 611 549 656 l 556 565 q 463 630 514 608 q 351 651 411 651 q 213 613 261 651 q 165 510 165 574 q 195 431 165 461 q 290 385 225 400 l 411 357 q 551 292 506 335 q 597 181 597 250 q 565 79 597 122 q 475 13 533 36 q 339 -11 417 -11 m 325 763 l 469 1040 l 544 1040 l 375 763 l 325 763 m 265 1056 l 265 1139 l 350 1139 l 350 1056 l 265 1056 z "},"š":{"ha":683,"x_min":81,"x_max":597,"o":"m 339 -11 q 192 13 261 -11 q 81 81 124 38 l 110 126 q 218 63 160 83 q 342 43 276 43 q 486 79 436 43 q 536 178 536 115 q 504 256 536 226 q 399 301 472 286 l 278 328 q 146 394 189 349 q 103 508 103 440 q 133 610 103 565 q 219 680 163 654 q 351 706 275 706 q 487 681 425 706 q 586 611 549 656 l 556 565 q 463 630 514 608 q 351 651 411 651 q 213 613 261 651 q 165 510 165 574 q 195 431 165 461 q 290 385 225 400 l 411 357 q 551 292 506 335 q 597 181 597 250 q 565 79 597 122 q 475 13 533 36 q 339 -11 417 -11 m 317 763 l 165 1040 l 214 1040 l 350 817 l 486 1040 l 535 1040 l 383 763 l 317 763 z "}}}
